<?xml version="1.0" encoding="UTF-8"?>
<svg width="33px" height="34px" viewBox="0 0 33 34" version="1.1" xmlns="http://www.w3.org/2000/svg" xmlns:xlink="http://www.w3.org/1999/xlink">
    <!-- Generator: Sketch 52.2 (67145) - http://www.bohemiancoding.com/sketch -->
    <title>excited</title>
    <desc>Created with Sketch.</desc>
    <g id="Toto-je-verzia-na-vyrobu" stroke="none" stroke-width="1" fill="none" fill-rule="evenodd">
        <g id="Homepage" transform="translate(-873.000000, -653.000000)" fill-rule="nonzero">
            <g id="Widgety" transform="translate(800.000000, 80.000000)">
                <g id="Otazka-tyzdna" transform="translate(0.000000, 427.500000)">
                    <g id="Pozicie" transform="translate(0.000000, 30.000000)">
                        <g id="emo" transform="translate(73.000000, 115.000000)">
                            <g id="excited" transform="translate(0.000000, 1.000000)">
                                <path d="M16.5,33 C7.38730163,33 1.16573418e-15,25.6126984 0,16.5 C-1.16573418e-15,7.38730163 7.38730163,1.66533454e-15 16.5,0 C25.6126984,-1.66533454e-15 33,7.38730163 33,16.5 C32.9896671,25.6084149 25.6084149,32.9896671 16.5,33 Z" id="Shape" fill="#FFD764"></path>
                                <path d="M25.2,23.5 C25.3950989,22.7657743 25.4959096,22.0096935 25.5,21.25 C25.5,20.8357864 25.1642136,20.5 24.75,20.5 L8.25,20.5 C7.83578644,20.5 7.5,20.8357864 7.5,21.25 C7.50286649,22.009533 7.60241677,22.765611 7.79625,23.5 L25.2,23.5 Z" id="Shape" fill="#FFFFFF"></path>
                                <path d="M7.8,23.5 C8.8260452,27.4655414 12.4038693,30.2354597 16.5,30.2354597 C20.5961307,30.2354597 24.1739548,27.4655414 25.2,23.5 L7.8,23.5 Z" id="Shape" fill="#AE453E"></path>
                                <path d="M12.0105,29.03875 C14.7855947,30.6539163 18.2144053,30.6539163 20.9895,29.03875 C20.0421224,27.4633518 18.3383154,26.4997947 16.5,26.4997947 C14.6616846,26.4997947 12.9578776,27.4633518 12.0105,29.03875 Z" id="Shape" fill="#E86C60"></path>
                                <path d="M14.21175,10.063 L10.7835,10.147 L8.77125,7.372 C8.60384263,7.1408298 8.31973297,7.02471749 8.03833474,7.07246605 C7.75693651,7.12021462 7.52703121,7.32354667 7.44525,7.597 L6.46575,10.8835 L3.20325,11.9395 C2.93183554,12.0274961 2.73385966,12.2618742 2.69248435,12.5441812 C2.65110904,12.8264881 2.77350172,13.1078199 3.00825,13.27 L5.8305,15.22 L5.8305,18.649 C5.82898172,18.9349815 5.99023372,19.1969357 6.24624958,19.324386 C6.50226545,19.4518363 6.80847987,19.4225972 7.03575,19.249 L9.7605,17.16625 L13.02,18.229 C13.2913287,18.3176349 13.5894487,18.2445698 13.7890439,18.040518 C13.9886391,17.8364661 14.0551041,17.5368055 13.9605,17.2675 L12.8175,14.026 L14.83575,11.25475 C15.0039688,11.0240893 15.0266473,10.7179286 14.89425,10.465 C14.770805,10.2036362 14.5001903,10.0442411 14.21175,10.063 Z" id="Shape" fill="#E2AC4B"></path>
                                <path d="M30.3075,12.54325 C30.2660635,12.2610157 30.0681059,12.0267223 29.79675,11.93875 L26.53425,10.88275 L25.55475,7.6 C25.4729688,7.32654667 25.2430635,7.12321462 24.9616653,7.07546605 C24.680267,7.02771749 24.3961574,7.1438298 24.22875,7.375 L22.2165,10.15 L18.78825,10.066 C18.4993502,10.0452966 18.2277171,10.2052915 18.10575,10.468 C17.9733527,10.7209286 17.9960312,11.0270893 18.16425,11.25775 L20.1825,14.029 L19.04325,17.26375 C18.9486459,17.5330555 19.0151109,17.8327161 19.2147061,18.036768 C19.4143013,18.2408198 19.7124213,18.3138849 19.98375,18.22525 L23.24325,17.1625 L25.968,19.24525 C26.0992571,19.3437011 26.2591776,19.3963932 26.42325,19.39525 C26.8374636,19.39525 27.17325,19.0594636 27.17325,18.64525 L27.1695,15.21625 L29.99175,13.26625 C30.2254938,13.1045482 30.3477488,12.8246104 30.3075,12.54325 Z" id="Shape" fill="#E2AC4B"></path>
                            </g>
                        </g>
                    </g>
                </g>
            </g>
        </g>
    </g>
</svg>