<?xml version="1.0" encoding="UTF-8"?>
<svg width="33px" height="35px" viewBox="0 0 33 35" version="1.1" xmlns="http://www.w3.org/2000/svg" xmlns:xlink="http://www.w3.org/1999/xlink">
    <!-- Generator: Sketch 52.2 (67145) - http://www.bohemiancoding.com/sketch -->
    <title>frustrated</title>
    <desc>Created with Sketch.</desc>
    <g id="Toto-je-verzia-na-vyrobu" stroke="none" stroke-width="1" fill="none" fill-rule="evenodd">
        <g id="Homepage" transform="translate(-1007.000000, -652.000000)" fill-rule="nonzero">
            <g id="Widgety" transform="translate(800.000000, 80.000000)">
                <g id="Otazka-tyzdna" transform="translate(0.000000, 427.500000)">
                    <g id="Pozicie" transform="translate(0.000000, 30.000000)">
                        <g id="emo" transform="translate(73.000000, 115.000000)">
                            <g id="frustrated" transform="translate(134.000000, 0.000000)">
                                <path d="M16.5,33.4782609 C7.38730163,33.4782609 1.16573418e-15,25.9838969 0,16.7391304 C-1.16573418e-15,7.49436397 7.38730163,1.68946982e-15 16.5,0 C25.6126984,-1.68946982e-15 33,7.49436397 33,16.7391304 C32.9896671,25.9795514 25.6084149,33.4677782 16.5,33.4782609 Z" id="Shape" fill="#FFD764"></path>
                                <path d="M26.25,15.2173913 C25.8357864,15.2173913 25.5,15.5580442 25.5,15.9782609 C25.5,16.8186942 24.8284271,17.5 24,17.5 C23.1715729,17.5 22.5,16.8186942 22.5,15.9782609 C22.5,15.5580442 22.1642136,15.2173913 21.75,15.2173913 C21.3357864,15.2173913 21,15.5580442 21,15.9782609 C21,17.6591275 22.3431458,19.0217391 24,19.0217391 C25.6568542,19.0217391 27,17.6591275 27,15.9782609 C27,15.5580442 26.6642136,15.2173913 26.25,15.2173913 Z" id="Shape" fill="#444444"></path>
                                <path d="M6.75,15.2173913 C7.16421356,15.2173913 7.5,15.5580442 7.5,15.9782609 C7.5,16.8186942 8.17157288,17.5 9,17.5 C9.82842712,17.5 10.5,16.8186942 10.5,15.9782609 C10.5,15.5580442 10.8357864,15.2173913 11.25,15.2173913 C11.6642136,15.2173913 12,15.5580442 12,15.9782609 C12,17.6591275 10.6568542,19.0217391 9,19.0217391 C7.34314575,19.0217391 6,17.6591275 6,15.9782609 C6,15.5580442 6.33578644,15.2173913 6.75,15.2173913 Z" id="Shape" fill="#444444"></path>
                                <path d="M21,13.6956522 C20.7385791,13.6953997 20.4961502,13.5570702 20.3601669,13.3305644 C20.2241835,13.1040587 20.2142691,12.822063 20.334,12.5863043 C20.7812725,11.7079757 21.4125281,10.9395426 22.1835,10.3348913 C22.8895798,9.78220151 23.698932,9.38072041 24.5625,9.15478261 C24.9595115,9.06008576 25.358346,9.30458938 25.4603296,9.70519271 C25.5623132,10.105796 25.3300614,10.515649 24.9375,10.6278261 C24.2696216,10.8026174 23.6437116,11.1132482 23.09775,11.5408696 C22.5007715,12.0089013 22.012073,12.6038904 21.666,13.2840217 C21.5372998,13.536743 21.2803926,13.6955281 21,13.6956522 Z" id="Shape" fill="#444444"></path>
                                <path d="M12,13.6956522 C11.7189038,13.6959509 11.461242,13.5367637 11.3325,13.2832609 C10.9862101,12.6030537 10.4972506,12.0080584 9.9,11.5401087 C9.35403835,11.1124873 8.72812841,10.8018565 8.06025,10.6270652 C7.79561547,10.5639435 7.58536768,10.3604873 7.51072889,10.0952953 C7.4360901,9.83010332 7.50874704,9.54469845 7.70063111,9.34933741 C7.89251517,9.15397637 8.17358172,9.07924824 8.43525,9.15402174 C9.298818,9.37995954 10.1081702,9.78144064 10.81425,10.3341304 C11.5852219,10.9387817 12.2164775,11.7072148 12.66375,12.5855435 C12.783661,12.8210021 12.7741622,13.1027959 12.6386758,13.3293941 C12.5031895,13.5559923 12.2612392,13.6947423 12,13.6956522 Z" id="Shape" fill="#444444"></path>
                                <path d="M11.469,27.3913043 C11.1731836,27.391287 10.9050111,27.2148698 10.7843128,26.9408831 C10.6636145,26.6668963 10.7129405,26.3465293 10.91025,26.1229348 C12.333049,24.5094157 14.3660019,23.5871792 16.5,23.5871792 C18.6339981,23.5871792 20.666951,24.5094157 22.08975,26.1229348 C22.2714403,26.3250107 22.3322381,26.610471 22.2489934,26.8706206 C22.1657488,27.1307702 21.9512722,27.3255744 21.6872303,27.3808573 C21.4231884,27.4361403 21.1502148,27.3433945 20.97225,27.1379348 C19.8339971,25.8468117 18.2074337,25.1088199 16.5,25.1088199 C14.7925663,25.1088199 13.1660029,25.8468117 12.02775,27.1379348 C11.8854857,27.2991511 11.6822898,27.3912919 11.469,27.3913043 Z" id="Shape" fill="#444444"></path>
                                <path d="M11.51025,26.326087 L13.46625,20.8021739 C13.586512,20.4629472 13.4556105,20.0846625 13.152725,19.8961366 C12.8498396,19.7076107 12.458116,19.7605963 12.2145,20.0230435 L8.1555,24.3904348 C6.6196645,23.2539187 4.48162756,23.5006863 3.23669101,24.9581531 C1.99175446,26.4156199 2.05513261,28.5976879 3.3825,29.9782609 C2.87399845,31.578299 3.64688298,33.3084251 5.16805925,33.9752909 C6.68923552,34.6421567 8.46087687,34.0275207 9.261,32.5553261 C9.57376136,32.6589312 9.90025898,32.7135803 10.22925,32.7173913 C11.7875395,32.7149952 13.1292305,31.6010496 13.4397294,30.051875 C13.7502282,28.5027003 12.9438798,26.9456567 11.51025,26.326087 Z" id="Shape" fill="#B3B3B3"></path>
                                <path d="M21.48975,26.326087 L19.53375,20.8021739 C19.413488,20.4629472 19.5443895,20.0846625 19.847275,19.8961366 C20.1501604,19.7076107 20.541884,19.7605963 20.7855,20.0230435 L24.8445,24.3904348 C26.3803355,23.2539187 28.5183724,23.5006863 29.763309,24.9581531 C31.0082455,26.4156199 30.9448674,28.5976879 29.6175,29.9782609 C30.1260016,31.578299 29.353117,33.3084251 27.8319408,33.9752909 C26.3107645,34.6421567 24.5391231,34.0275207 23.739,32.5553261 C23.4262386,32.6589312 23.099741,32.7135803 22.77075,32.7173913 C21.2124605,32.7149952 19.8707695,31.6010496 19.5602706,30.051875 C19.2497718,28.5027003 20.0561202,26.9456567 21.48975,26.326087 Z" id="Shape" fill="#B3B3B3"></path>
                            </g>
                        </g>
                    </g>
                </g>
            </g>
        </g>
    </g>
</svg>