<?xml version="1.0" encoding="UTF-8"?>
<svg width="33px" height="35px" viewBox="0 0 33 35" version="1.1" xmlns="http://www.w3.org/2000/svg" xmlns:xlink="http://www.w3.org/1999/xlink">
    <!-- Generator: Sketch 52.2 (67145) - http://www.bohemiancoding.com/sketch -->
    <title>thinker</title>
    <desc>Created with Sketch.</desc>
    <g id="Toto-je-verzia-na-vyrobu" stroke="none" stroke-width="1" fill="none" fill-rule="evenodd">
        <g id="Homepage" transform="translate(-962.000000, -653.000000)" fill-rule="nonzero">
            <g id="Widgety" transform="translate(800.000000, 80.000000)">
                <g id="Otazka-tyzdna" transform="translate(0.000000, 427.500000)">
                    <g id="Pozicie" transform="translate(0.000000, 30.000000)">
                        <g id="emo" transform="translate(73.000000, 115.000000)">
                            <g id="thinker" transform="translate(89.000000, 1.000000)">
                                <path d="M16.5,33 C7.38730163,33 1.16573418e-15,25.6126984 0,16.5 C-1.16573418e-15,7.38730163 7.38730163,1.66533454e-15 16.5,0 C25.6126984,-1.66533454e-15 33,7.38730163 33,16.5 C32.9896671,25.6084149 25.6084149,32.9896671 16.5,33 Z" id="Shape" fill="#FFD764"></path>
                                <path d="M9.75,18.25 C8.83995995,18.25 8.0195283,17.7018051 7.67127105,16.8610377 C7.3230138,16.0202703 7.51551425,15.0525052 8.15900974,14.4090097 C8.80250523,13.7655143 9.77027035,13.5730138 10.6110377,13.9212711 C11.4518051,14.2695283 12,15.0899599 12,16 C12,17.2426407 10.9926407,18.25 9.75,18.25 Z" id="Shape" fill="#444444"></path>
                                <path d="M23.25,18.25 C22.3399599,18.25 21.5195283,17.7018051 21.1712711,16.8610377 C20.8230138,16.0202703 21.0155143,15.0525052 21.6590097,14.4090097 C22.3025052,13.7655143 23.2702703,13.5730138 24.1110377,13.9212711 C24.9518051,14.2695283 25.5,15.0899599 25.5,16 C25.5,17.2426407 24.4926407,18.25 23.25,18.25 Z" id="Shape" fill="#444444"></path>
                                <path d="M21.75,25.75 C21.5438114,25.7502657 21.3466077,25.6656335 21.20475,25.516 C18.234,22.375 12.285,24.196 12.225,24.2155 C11.8298403,24.3397641 11.4087641,24.1201597 11.2845,23.725 C11.1602359,23.3298403 11.3798403,22.9087641 11.775,22.7845 C12.05475,22.696 18.684,20.67175 22.29525,24.484 C22.5015718,24.7016302 22.5584205,25.0212437 22.4397976,25.2966709 C22.3211746,25.5720981 22.0498857,25.7503869 21.75,25.75 Z" id="Shape" fill="#444444"></path>
                                <path d="M12.75,11.479 C12.5374661,11.4789442 12.3349352,11.3887185 12.19275,11.23075 C10.0755,8.878 6.36375,10.63525 6.32775,10.654 C6.08659573,10.7713617 5.80114824,10.7511542 5.57893285,10.6009893 C5.35671746,10.4508245 5.23149397,10.1935159 5.25043285,9.92598935 C5.26937174,9.65846275 5.42959573,9.42136175 5.67075,9.304 C5.86275,9.2095 10.431,7.03075 13.30725,10.22575 C13.5063804,10.4457891 13.557039,10.7625507 13.4364657,11.0337189 C13.3158924,11.3048871 13.0467658,11.4794581 12.75,11.479 Z" id="Shape" fill="#444444"></path>
                                <path d="M20.25,13 C19.9724916,12.9997737 19.717789,12.8463315 19.587874,12.6011111 C19.4579591,12.3558907 19.4740677,12.0589758 19.62975,11.82925 C19.725,11.689 22.01625,8.392 27.12975,9.2605 C27.5381646,9.33008789 27.8128379,9.71758543 27.74325,10.126 C27.6736621,10.5344146 27.2861646,10.8090879 26.87775,10.7395 C22.7175,10.0315 20.8935,12.64375 20.87775,12.67075 C20.7368405,12.8786997 20.5011838,13.0022999 20.25,13 Z" id="Shape" fill="#444444"></path>
                                <path d="M15,25.75 L5.25,25.75 L5.25,22.75 C5.25,21.9215729 4.57842712,21.25 3.75,21.25 C2.92157288,21.25 2.25,21.9215729 2.25,22.75 L2.25,30.25 C2.25247959,32.3200399 3.92996014,33.9975204 6,34 L9,34 C10.2426407,34 11.25,32.9926407 11.25,31.75 L11.25,28.75 L15,28.75 C15.8284271,28.75 16.5,28.0784271 16.5,27.25 C16.5,26.4215729 15.8284271,25.75 15,25.75 Z" id="Shape" fill="#E2AC4B"></path>
                            </g>
                        </g>
                    </g>
                </g>
            </g>
        </g>
    </g>
</svg>