<?xml version="1.0" encoding="UTF-8"?>
<svg width="33px" height="34px" viewBox="0 0 33 34" version="1.1" xmlns="http://www.w3.org/2000/svg" xmlns:xlink="http://www.w3.org/1999/xlink">
    <!-- Generator: Sketch 52.2 (67145) - http://www.bohemiancoding.com/sketch -->
    <title>upside-down-face</title>
    <desc>Created with Sketch.</desc>
    <g id="Toto-je-verzia-na-vyrobu" stroke="none" stroke-width="1" fill="none" fill-rule="evenodd">
        <g id="Homepage" transform="translate(-918.000000, -653.000000)" fill-rule="nonzero">
            <g id="Widgety" transform="translate(800.000000, 80.000000)">
                <g id="Otazka-tyzdna" transform="translate(0.000000, 427.500000)">
                    <g id="Pozicie" transform="translate(0.000000, 30.000000)">
                        <g id="emo" transform="translate(73.000000, 115.000000)">
                            <g id="upside-down-face" transform="translate(45.000000, 1.000000)">
                                <path d="M33,16.5 C33,25.6126984 25.6126984,33 16.5,33 C7.38730163,33 1.16573418e-15,25.6126984 0,16.5 C-1.16573418e-15,7.38730163 7.38730163,1.66533454e-15 16.5,0 C25.6084149,0.0103328686 32.9896671,7.39158508 33,16.5 Z" id="Shape" fill="#FFD764"></path>
                                <path d="M11.25,19.5 C11.25,20.7426407 10.2426407,21.75 9,21.75 C7.75735931,21.75 6.75,20.7426407 6.75,19.5 C6.75,18.2573593 7.75735931,17.25 9,17.25 C10.2426407,17.25 11.25,18.2573593 11.25,19.5 Z" id="Shape" fill="#444444"></path>
                                <path d="M26.25,19.5 C26.25,20.7426407 25.2426407,21.75 24,21.75 C22.7573593,21.75 21.75,20.7426407 21.75,19.5 C21.75,18.2573593 22.7573593,17.25 24,17.25 C25.2426407,17.25 26.25,18.2573593 26.25,19.5 Z" id="Shape" fill="#444444"></path>
                                <path d="M10.5,12 C10.215921,12 9.95622362,11.8394982 9.82917961,11.5854102 C9.7021356,11.3313222 9.72955257,11.0272632 9.9,10.8 C11.4580487,8.7226018 13.9032522,7.5 16.5,7.5 C19.0967478,7.5 21.5419513,8.7226018 23.1,10.8 C23.2607695,11.0143594 23.2949673,11.2982051 23.1897114,11.5446152 C23.0844555,11.7910254 22.8557368,11.9625644 22.5897114,11.9946152 C22.323686,12.026666 22.0607695,11.9143594 21.9,11.7 C20.6252329,10.0003106 18.6246118,9 16.5,9 C14.3753882,9 12.3747671,10.0003106 11.1,11.7 C10.9583592,11.8888544 10.736068,12 10.5,12 Z" id="Shape" fill="#444444"></path>
                            </g>
                        </g>
                    </g>
                </g>
            </g>
        </g>
    </g>
</svg>