<?xml version="1.0" encoding="UTF-8"?>
<svg width="577px" height="373px" viewBox="0 0 577 373" version="1.1" xmlns="http://www.w3.org/2000/svg" xmlns:xlink="http://www.w3.org/1999/xlink">
    <!-- Generator: Sketch 61.2 (89653) - https://sketch.com -->
    <title>Group 2</title>
    <desc>Created with Sketch.</desc>
    <defs>
        <rect id="path-1" x="0" y="0" width="577" height="373"></rect>
        <linearGradient x1="49.9944184%" y1="100%" x2="49.9944184%" y2="0%" id="linearGradient-3">
            <stop stop-color="#808080" stop-opacity="0.25" offset="0%"></stop>
            <stop stop-color="#808080" stop-opacity="0.12" offset="54%"></stop>
            <stop stop-color="#808080" stop-opacity="0.1" offset="100%"></stop>
        </linearGradient>
        <linearGradient x1="49.9936241%" y1="100.004506%" x2="49.9936241%" y2="1.2807187e-14%" id="linearGradient-4">
            <stop stop-color="#808080" stop-opacity="0.25" offset="0%"></stop>
            <stop stop-color="#808080" stop-opacity="0.12" offset="54%"></stop>
            <stop stop-color="#808080" stop-opacity="0.1" offset="100%"></stop>
        </linearGradient>
        <linearGradient x1="50.0026011%" y1="100%" x2="50.0026011%" y2="-0.0182621717%" id="linearGradient-5">
            <stop stop-color="#808080" stop-opacity="0.25" offset="0%"></stop>
            <stop stop-color="#808080" stop-opacity="0.12" offset="54%"></stop>
            <stop stop-color="#808080" stop-opacity="0.1" offset="100%"></stop>
        </linearGradient>
        <linearGradient x1="49.9975438%" y1="100%" x2="49.9975438%" y2="0%" id="linearGradient-6">
            <stop stop-color="#808080" stop-opacity="0.25" offset="0%"></stop>
            <stop stop-color="#808080" stop-opacity="0.12" offset="54%"></stop>
            <stop stop-color="#808080" stop-opacity="0.1" offset="100%"></stop>
        </linearGradient>
        <linearGradient x1="50.0024608%" y1="99.9961641%" x2="50.0024608%" y2="0.00165012633%" id="linearGradient-7">
            <stop stop-color="#808080" stop-opacity="0.25" offset="0%"></stop>
            <stop stop-color="#808080" stop-opacity="0.12" offset="54%"></stop>
            <stop stop-color="#808080" stop-opacity="0.1" offset="100%"></stop>
        </linearGradient>
        <linearGradient x1="50%" y1="100.025363%" x2="50%" y2="0%" id="linearGradient-8">
            <stop stop-color="#808080" stop-opacity="0.25" offset="0%"></stop>
            <stop stop-color="#808080" stop-opacity="0.12" offset="54%"></stop>
            <stop stop-color="#808080" stop-opacity="0.1" offset="100%"></stop>
        </linearGradient>
        <linearGradient x1="49.9693811%" y1="100.000101%" x2="49.9693811%" y2="-0.0172476432%" id="linearGradient-9">
            <stop stop-color="#808080" stop-opacity="0.25" offset="0%"></stop>
            <stop stop-color="#808080" stop-opacity="0.12" offset="54%"></stop>
            <stop stop-color="#808080" stop-opacity="0.1" offset="100%"></stop>
        </linearGradient>
    </defs>
    <g id="Page-1" stroke="none" stroke-width="1" fill="none" fill-rule="evenodd">
        <g id="Group-2">
            <mask id="mask-2" fill="white">
                <use xlink:href="#path-1"></use>
            </mask>
            <g id="Rectangle"></g>
            <g id="undraw_taking_notes_tjaf" mask="url(#mask-2)">
                <path d="M354.854559,60.0529333 C330.140237,81.0085818 298.075973,79.6544204 270.008451,68.7534206 C241.94093,57.8524209 216.086294,38.437131 188.718768,24.6416111 C166.317515,13.2486546 142.187256,5.63242263 117.302393,2.10046516 C82.4212159,-2.73501972 43.4586189,3.15558263 19.1507454,37.0321885 C-7.91759028,74.7568698 -5.83454213,142.797841 23.4410342,177.447447 C38.3328527,195.062831 57.8310866,203.706895 74.8398239,217.462918 C91.8485612,231.218942 107.581502,254.053489 106.136352,280.600696 C104.798459,305.178727 89.2010013,324.04671 73.0785474,335.895622 C60.6084841,345.036212 45.2537661,355.023153 43.7239394,373.964486 C42.2674992,392.290805 55.1778816,406.650559 67.5124621,414.820666 C107.728275,441.463793 157.269821,441.204245 197.350151,414.149228 C211.649233,404.495185 224.78542,391.658863 239.77885,384.131982 C279.136605,364.383794 322.513684,384.261756 364.185937,391.534731 C399.462273,397.690524 435.636182,394.502602 470.003654,382.207944 C490.642201,374.827764 511.35978,363.543086 525.862086,342.519729 C536.316842,327.358763 542.831307,308.169167 548.944969,289.222191 C555.470724,269.015093 561.740567,248.666936 567.754499,228.177721 C571.361728,215.877421 574.918152,203.351427 575.849596,190.182207 C577.543131,166.332038 570.418994,142.786556 560.726328,122.63212 C537.733767,74.8076508 498.968749,41.2075196 457.008595,32.6706601 C415.048441,24.1338006 370.5875,40.8069135 338.026465,77.2846378" id="Path" fill="#57B99B" fill-rule="nonzero" opacity="0.1"></path>
                <g id="Group-9" transform="translate(215.000000, 320.000000)" fill-rule="nonzero">
                    <path d="M28.0286642,-3.4283687e-13 C28.0286642,-3.4283687e-13 30.1653247,2.79371007 27.0383581,7.01425061 C23.9113915,11.2347912 21.3305937,14.8078624 22.3749165,17.427715 C22.3749165,17.427715 27.0923748,9.59213759 30.9335622,9.48422604 C34.7747495,9.3763145 32.2539703,4.71213759 28.0286642,-3.4283687e-13 Z" id="Path" fill="#57B99B"></path>
                    <path d="M28.0286642,-3.14415161e-13 C28.2126403,0.27033639 28.3580782,0.564919647 28.4607978,0.875282555 C32.2119573,5.27567568 34.2045733,9.3763145 30.6034601,9.48422604 C27.248423,9.58014742 23.22718,15.5692383 22.2608813,17.0859951 C22.2608813,17.1999017 22.3329035,17.3138084 22.3749165,17.427715 C22.3749165,17.427715 27.0923748,9.59213759 30.9335622,9.48422604 C34.7747495,9.3763145 32.2539703,4.71213759 28.0286642,-3.14415161e-13 Z" id="Path" fill="#000000" opacity="0.1"></path>
                    <path d="M32.0018924,3.56108108 C32.0018924,4.54427518 31.893859,5.35960688 31.7558163,5.35960688 C31.6177737,5.35960688 31.5097403,4.56226044 31.5097403,3.56108108 C31.5097403,2.55990172 31.6477829,3.0395086 31.7858256,3.0395086 C31.9238683,3.0395086 32.0018924,2.57788698 32.0018924,3.56108108 Z" id="Path" fill="#FFD037"></path>
                    <path d="M33.3703154,4.73611794 C32.5060482,5.20972973 31.7498145,5.49149877 31.6837941,5.37159705 C31.6177737,5.25169533 32.2839796,4.77208845 33.1302412,4.30447174 C33.9765028,3.83685504 33.6584045,4.17857494 33.7304267,4.30447174 C33.802449,4.43036855 34.2345826,4.26850123 33.3703154,4.73611794 Z" id="Path" fill="#FFD037"></path>
                    <path d="M16.7211688,-3.4283687e-13 C16.7211688,-3.4283687e-13 14.5845083,2.79371007 17.711475,7.01425061 C20.8384416,11.2347912 23.4192393,14.8078624 22.3749165,17.427715 C22.3749165,17.427715 17.6574583,9.59213759 13.8162709,9.48422604 C9.97508349,9.3763145 12.4958627,4.71213759 16.7211688,-3.4283687e-13 Z" id="Path" fill="#57B99B"></path>
                    <path d="M16.7211688,-3.14415161e-13 C16.5371928,0.27033639 16.3917548,0.564919647 16.2890353,0.875282555 C12.5378757,5.27567568 10.5452597,9.3763145 14.1463729,9.48422604 C17.50141,9.58014742 21.5226531,15.5692383 22.4889518,17.0859951 C22.4589425,17.1999017 22.4169295,17.3138084 22.3749165,17.427715 C22.3749165,17.427715 17.6574583,9.59213759 13.8162709,9.48422604 C9.97508349,9.3763145 12.4958627,4.71213759 16.7211688,-3.14415161e-13 Z" id="Path" fill="#000000" opacity="0.1"></path>
                    <path d="M12.7479406,3.56108108 C12.7479406,4.54427518 12.855974,5.35960688 12.9940167,5.35960688 C13.1320594,5.35960688 13.2400928,4.56226044 13.2400928,3.56108108 C13.2400928,2.55990172 13.1020501,3.0395086 12.9640074,3.0395086 C12.8259647,3.0395086 12.7479406,2.57788698 12.7479406,3.56108108 Z" id="Path" fill="#FFD037"></path>
                    <path d="M11.3795176,4.73611794 C12.2437848,5.20972973 13.0000186,5.49149877 13.066039,5.37159705 C13.1320594,5.25169533 12.4658534,4.77208845 11.6195918,4.30447174 C10.7733302,3.83685504 11.0914286,4.17857494 11.0194063,4.30447174 C10.947384,4.43036855 10.5092486,4.26850123 11.3795176,4.73611794 Z" id="Path" fill="#FFD037"></path>
                    <ellipse id="Oval" fill="#57B99B" opacity="0.1" cx="22.3749165" cy="35.3829975" rx="22.3749165" ry="3.42918919"></ellipse>
                    <path d="M33.9164842,13.662801 L33.8084508,14.5320885 L33.6584045,15.7670762 L33.592384,16.2826536 L33.4423377,17.5116462 L33.3823191,18.0272236 L33.2322727,19.2622113 L31.5157421,33.2847174 C31.3656957,34.5376904 29.3190631,35.5148894 26.8462987,35.5148894 L17.9275417,35.5148894 C15.4547774,35.5148894 13.4141466,34.5376904 13.2580983,33.2847174 L11.5415677,19.2682064 L11.3915213,18.0332187 L11.3315028,17.5176413 L11.1814564,16.2886486 L11.115436,15.7730713 L10.9653896,14.5380835 L10.8573562,13.6687961 C10.7733302,12.9613759 11.8836735,12.3618227 13.2580983,12.3618227 L31.4497217,12.3618227 C32.8661596,12.3558722 33.9765028,12.9553808 33.9164842,13.662801 Z" id="Path" fill="#65617D"></path>
                    <polygon id="Path" fill="#9D9CB5" points="33.7784416 14.5320885 33.6283952 15.7670762 11.115436 15.7670762 10.9653896 14.5320885"></polygon>
                    <polygon id="Path" fill="#9D9CB5" points="33.5683766 16.2826536 33.4183302 17.5116462 11.3315028 17.5116462 11.1754545 16.2826536"></polygon>
                    <polygon id="Path" fill="#9D9CB5" points="33.3523098 18.0272236 33.2022635 19.2622113 11.5415677 19.2622113 11.3915213 18.0272236"></polygon>
                </g>
                <g id="Group" opacity="0.35" transform="translate(215.901624, 95.569249)" fill="#57B99B" fill-rule="nonzero">
                    <path d="M78.7841165,3.37953052 L78.7841165,0.18721831 L28.4360745,0.18721831 C26.1204489,0.18721831 27.5328844,3.39873239 27.5328844,3.39873239 L0.177755492,3.39873239 L0.177755492,74.9977347 L120.282818,74.9977347 L120.282818,3.37953052 L78.7841165,3.37953052 Z" id="Path" opacity="0.2"></path>
                </g>
                <path d="M454.387039,152.354002 C454.387039,152.354002 469.525081,125.557782 492.340239,117.838627 C501.923436,114.661076 510.215992,108.462073 515.972111,100.172899 C518.675119,96.2187903 521.008573,92.0247295 522.943009,87.6436737" id="Path" stroke="#535461" stroke-width="0.959999981"></path>
                <path d="M537.259532,82.6895892 C534.665263,85.2098357 522.568281,87.8164906 522.568281,87.8164906 C522.568281,87.8164906 525.532474,75.8153169 528.131547,73.29027 C530.729116,70.7716052 534.87823,70.8339332 537.398854,73.4294836 C539.919477,76.0250339 539.857101,80.1709244 537.259532,82.6895892 L537.259532,82.6895892 Z" id="Path" fill="#57B99B" fill-rule="nonzero"></path>
                <path d="M530.418348,104.397312 C526.868042,105.102981 515.294718,100.720153 515.294718,100.720153 C515.294718,100.720153 524.317011,92.2569249 527.867316,91.5512559 C530.163828,91.095912 532.529004,91.8993792 534.071905,93.6589991 C535.614807,95.4186191 536.101031,97.8670637 535.347421,100.082027 C534.593811,102.296991 532.714859,103.941968 530.418348,104.397312 L530.418348,104.397312 Z" id="Path" fill="#57B99B" fill-rule="nonzero"></path>
                <path d="M505.498949,127.919613 C502.078357,126.738697 494.305158,117.118556 494.305158,117.118556 C494.305158,117.118556 506.36851,114.358286 509.789102,115.544002 C512.001511,116.309769 513.637012,118.196755 514.079528,120.494152 C514.522044,122.791549 513.704345,125.150327 511.934451,126.681957 C510.164558,128.213588 507.711358,128.685379 505.498949,127.919613 L505.498949,127.919613 Z" id="Path" fill="#57B99B" fill-rule="nonzero"></path>
                <path d="M482.63575,141.461737 C479.066227,140.88088 469.7749,132.720082 469.7749,132.720082 C469.7749,132.720082 481.199293,127.967617 484.77362,128.553275 C487.083862,128.934872 489.014877,130.519024 489.839268,132.708996 C490.66366,134.898969 490.256184,137.362053 488.770333,139.170428 C487.284482,140.978804 484.945992,141.857736 482.63575,141.476138 L482.63575,141.461737 Z" id="Path" fill="#57B99B" fill-rule="nonzero"></path>
                <path d="M505.205893,91.3544366 C505.205893,94.9739906 511.754021,105.463016 511.754021,105.463016 C511.754021,105.463016 518.316562,94.9787911 518.316562,91.3592371 C518.381114,88.9767818 517.145985,86.7471713 515.091201,85.5369333 C513.036418,84.3266953 510.486037,84.3266953 508.431253,85.5369333 C506.376469,86.7471713 505.14134,88.9767818 505.205893,91.3592371 L505.205893,91.3544366 Z" id="Path" fill="#57B99B" fill-rule="nonzero"></path>
                <path d="M478.672283,107.532019 C479.753228,110.983556 489.145444,119.053146 489.145444,119.053146 C489.145444,119.053146 492.263372,107.085575 491.182426,103.634038 C490.572857,101.296386 488.7247,99.4839941 486.374206,98.9188656 C484.023712,98.353737 481.552754,99.1276855 479.94569,100.932392 C478.338626,102.737099 477.856547,105.279363 478.6915,107.54642 L478.672283,107.532019 Z" id="Path" fill="#57B99B" fill-rule="nonzero"></path>
                <path d="M455.035606,126.791502 C455.516027,130.377453 463.414136,139.901585 463.414136,139.901585 C463.414136,139.901585 468.511394,128.634883 468.030974,125.048932 C467.862538,122.612471 466.352024,120.471795 464.111906,119.494895 C461.871788,118.517994 459.273849,118.867001 457.37149,120.400402 C455.46913,121.933803 454.578076,124.397105 455.059628,126.791502 L455.035606,126.791502 Z" id="Path" fill="#57B99B" fill-rule="nonzero"></path>
                <path d="M537.259532,82.6895892 C534.665263,85.2098357 522.568281,87.8164906 522.568281,87.8164906 C522.568281,87.8164906 525.532474,75.8153169 528.131547,73.29027 C530.729116,70.7716052 534.87823,70.8339332 537.398854,73.4294836 C539.919477,76.0250339 539.857101,80.1709244 537.259532,82.6895892 L537.259532,82.6895892 Z" id="Path" fill="#000000" fill-rule="nonzero" opacity="0.25"></path>
                <path d="M530.418348,104.397312 C526.868042,105.102981 515.294718,100.720153 515.294718,100.720153 C515.294718,100.720153 524.317011,92.2569249 527.867316,91.5512559 C530.163828,91.095912 532.529004,91.8993792 534.071905,93.6589991 C535.614807,95.4186191 536.101031,97.8670637 535.347421,100.082027 C534.593811,102.296991 532.714859,103.941968 530.418348,104.397312 L530.418348,104.397312 Z" id="Path" fill="#000000" fill-rule="nonzero" opacity="0.25"></path>
                <path d="M505.498949,127.919613 C502.078357,126.738697 494.305158,117.118556 494.305158,117.118556 C494.305158,117.118556 506.36851,114.358286 509.789102,115.544002 C512.001511,116.309769 513.637012,118.196755 514.079528,120.494152 C514.522044,122.791549 513.704345,125.150327 511.934451,126.681957 C510.164558,128.213588 507.711358,128.685379 505.498949,127.919613 L505.498949,127.919613 Z" id="Path" fill="#000000" fill-rule="nonzero" opacity="0.25"></path>
                <path d="M482.63575,141.461737 C479.066227,140.88088 469.7749,132.720082 469.7749,132.720082 C469.7749,132.720082 481.199293,127.967617 484.77362,128.553275 C487.083862,128.934872 489.014877,130.519024 489.839268,132.708996 C490.66366,134.898969 490.256184,137.362053 488.770333,139.170428 C487.284482,140.978804 484.945992,141.857736 482.63575,141.476138 L482.63575,141.461737 Z" id="Path" fill="#000000" fill-rule="nonzero" opacity="0.25"></path>
                <path d="M505.205893,91.3544366 C505.205893,94.9739906 511.754021,105.463016 511.754021,105.463016 C511.754021,105.463016 518.316562,94.9787911 518.316562,91.3592371 C518.381114,88.9767818 517.145985,86.7471713 515.091201,85.5369333 C513.036418,84.3266953 510.486037,84.3266953 508.431253,85.5369333 C506.376469,86.7471713 505.14134,88.9767818 505.205893,91.3592371 L505.205893,91.3544366 Z" id="Path" fill="#000000" fill-rule="nonzero" opacity="0.25"></path>
                <path d="M478.672283,107.532019 C479.753228,110.983556 489.145444,119.053146 489.145444,119.053146 C489.145444,119.053146 492.263372,107.085575 491.182426,103.634038 C490.572857,101.296386 488.7247,99.4839941 486.374206,98.9188656 C484.023712,98.353737 481.552754,99.1276855 479.94569,100.932392 C478.338626,102.737099 477.856547,105.279363 478.6915,107.54642 L478.672283,107.532019 Z" id="Path" fill="#000000" fill-rule="nonzero" opacity="0.25"></path>
                <path d="M455.035606,126.791502 C455.516027,130.377453 463.414136,139.901585 463.414136,139.901585 C463.414136,139.901585 468.511394,128.634883 468.030974,125.048932 C467.862538,122.612471 466.352024,120.471795 464.111906,119.494895 C461.871788,118.517994 459.273849,118.867001 457.37149,120.400402 C455.46913,121.933803 454.578076,124.397105 455.059628,126.791502 L455.035606,126.791502 Z" id="Path" fill="#000000" fill-rule="nonzero" opacity="0.25"></path>
                <path d="M455.261404,151.82115 C455.261404,151.82115 458.230401,121.194155 475.919475,104.906162 C483.392463,98.1230511 488.458772,89.0983832 490.356103,79.1900469 C491.224374,74.4792692 491.656975,69.6986479 491.648558,64.9086502" id="Path" stroke="#535461" stroke-width="0.959999981"></path>
                <path d="M502.774967,54.5780399 C501.420181,57.9383685 491.417832,65.2158803 491.417832,65.2158803 C491.417832,65.2158803 489.260745,53.0322887 490.61553,49.6719601 C491.490882,47.5015737 493.458528,45.9626858 495.777276,45.6349806 C498.096023,45.3072753 500.413598,46.2405389 501.856994,48.08322 C503.300389,49.9259011 503.650318,52.3980526 502.774967,54.568439 L502.774967,54.5780399 Z" id="Path" fill="#57B99B" fill-rule="nonzero"></path>
                <path d="M505.325998,77.2074531 C502.366609,79.2908568 490.010201,79.967723 490.010201,79.967723 C490.010201,79.967723 494.814403,68.5762089 497.7834,66.4976056 C499.698018,65.1512971 502.186003,64.9278994 504.310156,65.9115643 C506.434309,66.8952293 507.87192,68.9365148 508.081455,71.2664882 C508.29099,73.5964617 507.240616,75.8611447 505.325998,77.2074531 L505.325998,77.2074531 Z" id="Path" fill="#57B99B" fill-rule="nonzero"></path>
                <path d="M492.076008,108.789742 C488.468052,109.092171 477.461624,103.446819 477.461624,103.446819 C477.461624,103.446819 487.372693,96.0396948 490.980649,95.7372653 C493.314063,95.5417503 495.574613,96.6049811 496.910772,98.5264489 C498.246932,100.447917 498.455706,102.935705 497.458452,105.052687 C496.461197,107.16967 494.409421,108.594227 492.076008,108.789742 L492.076008,108.789742 Z" id="Path" fill="#57B99B" fill-rule="nonzero"></path>
                <path d="M476.66893,130.425458 C473.166667,131.337547 461.357937,127.626784 461.357937,127.626784 C461.357937,127.626784 469.875788,118.654707 473.368443,117.747418 C476.87211,116.839373 480.449081,118.941333 481.357832,122.442277 C482.266583,125.943221 480.162988,129.517413 476.659322,130.425458 L476.66893,130.425458 Z" id="Path" fill="#57B99B" fill-rule="nonzero"></path>
                <path d="M476.981203,75.479284 C478.446485,78.7868075 488.689045,85.7234859 488.689045,85.7234859 C488.689045,85.7234859 490.43297,73.4822887 488.967689,70.1747653 C487.50838,66.8607326 483.636734,65.3562623 480.320124,66.8144366 C477.003514,68.272611 475.497874,72.1412491 476.957182,75.4552817 L476.981203,75.479284 Z" id="Path" fill="#57B99B" fill-rule="nonzero"></path>
                <path d="M459.282521,101.036984 C461.684623,103.754049 473.522178,107.315998 473.522178,107.315998 C473.522178,107.315998 471.518825,95.1132042 469.131137,92.391338 C466.743178,89.6738316 462.602667,89.4051763 459.883047,91.7912797 C457.163427,94.177383 456.894563,98.3146763 459.282521,101.032183 L459.282521,101.036984 Z" id="Path" fill="#57B99B" fill-rule="nonzero"></path>
                <path d="M445.484852,128.188439 C447.406533,131.27034 458.456199,136.781279 458.456199,136.781279 C458.456199,136.781279 458.576304,124.41527 456.654623,121.333369 C454.723588,118.336795 450.749752,117.431931 447.710054,119.296641 C444.670357,121.161351 443.679624,125.111743 445.480048,128.188439 L445.484852,128.188439 Z" id="Path" fill="#57B99B" fill-rule="nonzero"></path>
                <path d="M127.739704,275.716467 C127.739704,275.716467 109.003314,252.515798 110.180344,229.233521 C110.740084,219.473115 108.117113,209.794527 102.705005,201.650023 C100.104575,197.804373 97.1568787,194.204967 93.8989016,190.896972" id="Path" stroke="#535461" stroke-width="0.959999981"></path>
                <path d="M94.5570774,176.221937 C95.9022541,179.462254 93.9373352,191.28581 93.9373352,191.28581 C93.9373352,191.28581 84.1751958,184.325129 82.8300191,181.084812 C81.4874555,177.84634 83.026435,174.133522 86.267426,172.792001 C89.508417,171.450481 93.2241222,172.988264 94.5666858,176.226737 L94.5570774,176.221937 Z" id="Path" fill="#57B99B" fill-rule="nonzero"></path>
                <path d="M111.712884,190.148099 C111.07873,193.594836 102.993257,202.442101 102.993257,202.442101 C102.993257,202.442101 98.5685864,191.28581 99.221958,187.848674 C99.6061149,185.593233 101.175479,183.718996 103.329479,182.943205 C105.483478,182.167414 107.888638,182.610174 109.624539,184.102048 C111.36044,185.593921 112.158336,187.903942 111.712884,190.148099 L111.712884,190.148099 Z" id="Path" fill="#57B99B" fill-rule="nonzero"></path>
                <path d="M123.982818,220.976714 C121.691213,223.636174 110.237994,227.193322 110.237994,227.193322 C110.237994,227.193322 112.063591,215.350563 114.355196,212.691103 C116.684447,210.206972 120.560305,210.001599 123.139421,212.225646 C125.718537,214.449694 126.082189,218.310921 123.963601,220.976714 L123.982818,220.976714 Z" id="Path" fill="#57B99B" fill-rule="nonzero"></path>
                <path d="M128.018348,246.3952 C126.211968,249.400293 115.527421,254.844026 115.527421,254.844026 C115.527421,254.844026 115.32084,242.842852 117.132025,239.85696 C118.95865,236.898392 122.827401,235.958873 125.809208,237.749723 C128.791015,239.540572 129.775967,243.395187 128.018348,246.3952 L128.018348,246.3952 Z" id="Path" fill="#57B99B" fill-rule="nonzero"></path>
                <path d="M90.9106877,208.173862 C94.1727412,209.465188 105.971862,207.319378 105.971862,207.319378 C105.971862,207.319378 98.8616428,197.670434 95.6043935,196.374308 C92.3710278,195.189306 88.7813654,196.793094 87.5092618,199.991048 C86.2371582,203.189002 87.7454686,206.817545 90.9106877,208.173862 L90.9106877,208.173862 Z" id="Path" fill="#57B99B" fill-rule="nonzero"></path>
                <path d="M96.0127507,237.850364 C99.5102101,238.109589 110.127498,232.536244 110.127498,232.536244 C110.127498,232.536244 100.451834,225.450751 96.9543744,225.191526 C94.6913323,225.020021 92.5086274,226.067925 91.2284638,227.940502 C89.9483001,229.813079 89.7651649,232.22584 90.7480435,234.269922 C91.7309221,236.314003 93.7304917,237.67886 95.9935339,237.850364 L96.0127507,237.850364 Z" id="Path" fill="#57B99B" fill-rule="nonzero"></path>
                <path d="M104.929351,265.995516 C108.330726,266.8452 119.740707,263.115235 119.740707,263.115235 C119.740707,263.115235 111.400611,254.527195 107.999236,253.691913 C104.595068,252.844846 101.148227,254.915642 100.300501,258.317165 C99.452776,261.718689 101.525182,265.162851 104.929351,266.009918 L104.929351,265.995516 Z" id="Path" fill="#57B99B" fill-rule="nonzero"></path>
                <path d="M440.104145,90.2695305 L439.700592,90.2695305 C440.334747,89.5494601 440.661433,88.8293897 440.608586,88.1909272 L436.957393,84.5425704 L438.350611,81.4222653 L433.656905,81.4222653 L434.526466,78.9884272 L431.744833,78.9884272 L400.969112,89.2326291 C400.969112,89.2326291 400.935482,89.6598709 400.969112,90.2695305 L381.151777,90.2695305 L381.151777,179.486256 L467.223868,179.486256 L467.223868,90.2695305 L440.104145,90.2695305 Z" id="Path" fill="url(#linearGradient-3)" fill-rule="nonzero"></path>
                <rect id="Rectangle" fill="#F6F7F9" fill-rule="nonzero" x="381.790735" y="90.581561" width="84.774957" height="87.9638028"></rect>
                <path d="M439.868739,90.581561 C435.852426,96.490939 409.025759,104.2725 409.025759,104.2725 L409.193906,98.1134977 L404.231165,98.1134977 C404.510607,96.8951328 403.95053,95.6388736 402.857163,95.0315962 C401.415903,94.2395188 401.276581,91.6712676 401.295798,90.581561 L439.868739,90.581561 Z" id="Path" fill="#000000" fill-rule="nonzero" opacity="0.1"></path>
                <path d="M431.629532,79.4588732 L401.319819,89.5398592 C401.319819,89.5398592 400.973916,93.4762441 402.857163,94.4987441 C403.948042,95.1082941 404.507252,96.3626087 404.231165,97.5806455 L409.193906,97.5806455 L409.025759,103.739648 C409.025759,103.739648 440.877622,94.4987441 440.363572,88.5125587 L436.770029,84.917007 L438.139226,81.8351056 L433.512779,81.8351056 L434.372732,79.4348709 L431.629532,79.4588732 Z" id="Path" fill="#9D9CB5" fill-rule="nonzero"></path>
                <g id="Group" opacity="0.35" transform="translate(397.020057, 119.091549)" fill="#57B99B" fill-rule="nonzero">
                    <rect id="Rectangle" opacity="0.2" x="0.441986628" y="0.00480046948" width="53.43234" height="1.49774648"></rect>
                </g>
                <g id="Group" opacity="0.35" transform="translate(397.020057, 126.772300)" fill="#57B99B" fill-rule="nonzero">
                    <rect id="Rectangle" opacity="0.2" x="0.441986628" y="0.220821596" width="53.43234" height="1.49774648"></rect>
                </g>
                <g id="Group" opacity="0.35" transform="translate(397.020057, 134.453052)" fill="#57B99B" fill-rule="nonzero">
                    <rect id="Rectangle" opacity="0.2" x="0.441986628" y="0.432042254" width="53.43234" height="1.49774648"></rect>
                </g>
                <g id="Group" opacity="0.35" transform="translate(397.020057, 142.613850)" fill="#57B99B" fill-rule="nonzero">
                    <rect id="Rectangle" opacity="0.2" x="0.441986628" y="0.163215962" width="53.43234" height="1.49774648"></rect>
                </g>
                <g id="Group" opacity="0.35" transform="translate(397.020057, 150.294601)" fill="#57B99B" fill-rule="nonzero">
                    <rect id="Rectangle" opacity="0.2" x="0.441986628" y="0.37443662" width="53.43234" height="1.49774648"></rect>
                </g>
                <g id="Group" opacity="0.35" transform="translate(397.020057, 158.455399)" fill="#57B99B" fill-rule="nonzero">
                    <rect id="Rectangle" opacity="0.2" x="0.441986628" y="0.110410798" width="53.43234" height="1.49774648"></rect>
                </g>
                <path d="M152.870487,83.0400235 L152.668711,83.0400235 C154.186839,79.1516432 155.589666,75.3592723 155.527211,74.6344014 C155.392693,73.1942606 152.505368,76.3241667 152.37085,75.5416901 C152.236332,74.7592136 152.37085,71.7925235 151.059303,71.7925235 C149.747755,71.7925235 148.955062,73.3334742 148.176781,73.3334742 C147.3985,73.3334742 144.232531,72.8150235 144.232531,72.8150235 L140.201805,83.0400235 L109.839245,83.0400235 L109.839245,178.324542 L185.188357,178.324542 L185.188357,83.0400235 L152.870487,83.0400235 Z" id="Path" fill="url(#linearGradient-4)" fill-rule="nonzero"></path>
                <rect id="Rectangle" fill="#F6F7F9" fill-rule="nonzero" x="110.684785" y="83.5680751" width="73.6436199" height="94.1180047"></rect>
                <path d="M152.750382,83.5680751 C151.198625,87.595669 149.449895,91.839284 149.051146,92.8521831 C148.27767,94.7723709 147.768424,93.7498709 146.865234,93.495446 C145.962044,93.2410211 144.81384,93.7498709 144.29979,93.495446 C143.78574,93.2410211 140.768701,93.495446 140.768701,93.495446 C140.802423,93.0240011 140.802423,92.5507524 140.768701,92.0793075 C140.701442,91.5704577 137.232808,92.0793075 137.232808,92.0793075 L140.538099,83.5680751 L152.750382,83.5680751 Z" id="Path" fill="#000000" fill-rule="nonzero" opacity="0.1"></path>
                <path d="M144.29979,73.4726878 L137.232808,91.5704577 C137.232808,91.5704577 140.701442,91.0568075 140.763897,91.5704577 C140.800167,92.0402058 140.800167,92.5120478 140.763897,92.9817958 C140.763897,92.9817958 143.78574,92.7225704 144.29979,92.9817958 C144.81384,93.2410211 145.966848,92.7225704 146.865234,92.9817958 C147.76362,93.2410211 148.27767,94.2635211 149.051146,92.3385329 C149.824623,90.4135446 155.474365,76.6794014 155.344651,75.2680634 C155.214938,73.8567254 152.390067,76.9386268 152.260353,76.1657512 C152.13064,75.3928756 152.260353,72.4645892 150.977631,72.4645892 C149.694909,72.4645892 148.921433,73.986338 148.15276,73.986338 C147.384088,73.986338 144.29979,73.4726878 144.29979,73.4726878 Z" id="Path" fill="#9D9CB5" fill-rule="nonzero"></path>
                <g id="Group" opacity="0.35" transform="translate(120.778415, 108.530516)" fill="#57B99B" fill-rule="nonzero">
                    <rect id="Rectangle" opacity="0.2" x="0.0144126074" y="0.0192018779" width="53.43234" height="1.49774648"></rect>
                </g>
                <g id="Group" opacity="0.35" transform="translate(120.778415, 113.811033)" fill="#57B99B" fill-rule="nonzero">
                    <rect id="Rectangle" opacity="0.2" x="0.0144126074" y="0.388838028" width="53.43234" height="1.49774648"></rect>
                </g>
                <g id="Group" opacity="0.35" transform="translate(120.778415, 119.571596)" fill="#57B99B" fill-rule="nonzero">
                    <rect id="Rectangle" opacity="0.2" x="0.0144126074" y="0.273626761" width="53.43234" height="1.49774648"></rect>
                </g>
                <g id="Group" opacity="0.35" transform="translate(120.778415, 125.332160)" fill="#57B99B" fill-rule="nonzero">
                    <rect id="Rectangle" opacity="0.2" x="0.0144126074" y="0.163215962" width="53.43234" height="1.49774648"></rect>
                </g>
                <g id="Group" opacity="0.35" transform="translate(120.778415, 131.092723)" fill="#57B99B" fill-rule="nonzero">
                    <rect id="Rectangle" opacity="0.2" x="0.0144126074" y="0.0480046948" width="53.43234" height="1.49774648"></rect>
                </g>
                <g id="Group" opacity="0.35" transform="translate(120.778415, 136.373239)" fill="#57B99B" fill-rule="nonzero">
                    <rect id="Rectangle" opacity="0.2" x="0.0144126074" y="0.412840376" width="53.43234" height="1.49774648"></rect>
                </g>
                <path d="M430.76958,223.929002 L430.567803,223.929002 C432.431834,219.128533 434.151738,214.438474 434.070067,213.559988 C433.911528,211.798216 430.366027,215.643392 430.226705,214.683298 C430.087383,213.723204 430.226705,210.055646 428.617297,210.055646 C427.007889,210.055646 426.042245,211.975833 425.0766,211.975833 C424.110955,211.975833 420.243572,211.33257 420.243572,211.33257 L415.276027,223.929002 L378.067479,223.929002 L378.067479,341.4877 L470.418663,341.4877 L470.418663,223.929002 L430.76958,223.929002 Z" id="Path" fill="url(#linearGradient-5)" fill-rule="nonzero"></path>
                <rect id="Rectangle" fill="#F6F7F9" fill-rule="nonzero" x="378.807326" y="224.745082" width="90.7417765" height="115.979343"></rect>
                <path d="M430.591824,224.745082 C428.698968,229.670364 426.575511,234.826068 426.080678,236.064589 C425.119838,238.436021 424.500096,237.168697 423.390325,236.856667 C422.280554,236.544636 420.85851,237.168697 420.224355,236.856667 C419.590201,236.544636 415.871748,236.856667 415.871748,236.856667 C415.913274,236.276551 415.913274,235.694212 415.871748,235.114096 C415.790076,234.485235 411.51914,235.114096 411.51914,235.114096 L415.569083,224.745082 L430.591824,224.745082 Z" id="Path" fill="#000000" fill-rule="nonzero" opacity="0.1"></path>
                <path d="M420.224355,212.302265 L411.51914,234.600446 C411.51914,234.600446 415.790076,233.966784 415.871748,234.600446 C415.913291,235.178959 415.913291,235.759703 415.871748,236.338216 C415.871748,236.338216 419.590201,236.026185 420.224355,236.338216 C420.85851,236.650246 422.280554,236.026185 423.390325,236.338216 C424.500096,236.650246 425.129446,237.922371 426.080678,235.550939 C427.03191,233.179507 433.9932,216.253052 433.834661,214.515282 C433.676122,212.777512 430.193075,216.569883 430.034537,215.62419 C429.875998,214.678498 430.034537,211.058944 428.453954,211.058944 C426.873372,211.058944 425.922139,212.935927 424.970907,212.935927 C424.019675,212.935927 420.224355,212.302265 420.224355,212.302265 Z" id="Path" fill="#9D9CB5" fill-rule="nonzero"></path>
                <g id="Group" opacity="0.35" transform="translate(397.020057, 256.865023)" fill="#57B99B" fill-rule="nonzero">
                    <rect id="Rectangle" opacity="0.2" x="0.441986628" y="0.288028169" width="53.43234" height="3.8067723"></rect>
                </g>
                <g id="Group" opacity="0.35" transform="translate(397.020057, 281.827465)" fill="#57B99B" fill-rule="nonzero">
                    <rect id="Rectangle" opacity="0.2" x="0.441986628" y="0.0528051643" width="53.43234" height="3.8067723"></rect>
                </g>
                <g id="Group" opacity="0.35" transform="translate(397.020057, 306.309859)" fill="#57B99B" fill-rule="nonzero">
                    <rect id="Rectangle" opacity="0.2" x="0.441986628" y="0.302429577" width="53.43234" height="3.8067723"></rect>
                </g>
                <polygon id="Path" fill="url(#linearGradient-6)" fill-rule="nonzero" points="168.325606 227.946995 168.325606 213.752007 148.383362 213.752007 148.383362 227.946995 106.745339 227.946995 106.745339 339.788333 204.544489 339.788333 204.544489 227.946995"></polygon>
                <rect id="Rectangle" fill="#F6F7F9" fill-rule="nonzero" x="107.778243" y="228.513451" width="95.7333429" height="110.545211"></rect>
                <rect id="Rectangle" fill="#000000" fill-rule="nonzero" opacity="0.1" x="148.537096" y="228.513451" width="19.5242789" height="15.0590728"></rect>
                <rect id="Rectangle" fill="#9D9CB5" fill-rule="nonzero" x="148.537096" y="214.481678" width="19.5242789" height="28.5771948"></rect>
                <g id="Group" opacity="0.35" transform="translate(128.465138, 254.944836)" fill="#57B99B" fill-rule="nonzero">
                    <rect id="Rectangle" opacity="0.2" x="0.461203438" y="0.307230047" width="53.43234" height="3.8067723"></rect>
                </g>
                <g id="Group" opacity="0.35" transform="translate(128.465138, 262.625587)" fill="#57B99B" fill-rule="nonzero">
                    <rect id="Rectangle" opacity="0.2" x="0.461203438" y="0.196819249" width="53.43234" height="3.8067723"></rect>
                </g>
                <g id="Group" opacity="0.35" transform="translate(128.465138, 270.306338)" fill="#57B99B" fill-rule="nonzero">
                    <rect id="Rectangle" opacity="0.2" x="0.461203438" y="0.0912089202" width="53.43234" height="3.8067723"></rect>
                </g>
                <g id="Group" opacity="0.35" transform="translate(128.465138, 277.507042)" fill="#57B99B" fill-rule="nonzero">
                    <rect id="Rectangle" opacity="0.2" x="0.461203438" y="0.46084507" width="53.43234" height="3.8067723"></rect>
                </g>
                <g id="Group" opacity="0.35" transform="translate(167.859599, 286.147887)" fill="#57B99B" fill-rule="nonzero">
                    <rect id="Rectangle" opacity="0.2" x="0.201776504" y="0.249624413" width="14.3021108" height="11.5499296"></rect>
                </g>
                <g id="Group" opacity="0.35" transform="translate(128.465138, 300.549296)" fill="#57B99B" fill-rule="nonzero">
                    <rect id="Rectangle" opacity="0.2" x="0.461203438" y="0.134413146" width="14.3021108" height="11.5499296"></rect>
                </g>
                <path d="M305.672951,227.769378 L305.538434,227.769378 C307.094995,221.687183 308.267221,216.843509 308.267221,216.843509 L301.627813,219.963815 C301.627813,219.963815 296.91489,213.723204 295.170965,214.764906 C293.427039,215.806608 289.59809,218.403662 289.59809,218.403662 L284.515244,215.801808 L282.569542,227.769378 L242.43043,227.769378 L242.43043,314.125023 L245.010287,315.665974 C247.138548,314.9027 250.640812,313.606573 250.640812,313.606573 L249.031404,318.071009 L250.117154,318.714272 L251.947555,317.05811 L252.624947,320.22162 L254.801251,321.522547 L258.236256,319.338333 L257.275415,323.015493 L260.499035,324.935681 L269.872034,321.416937 L267.047163,328.848063 L268.90639,329.961772 L273.1485,329.2177 C273.1485,329.2177 272.956332,330.701045 272.836227,332.309202 L277.092751,334.853451 C278.836676,334.176585 280.479713,333.509319 280.479713,333.509319 C280.479713,333.509319 280.311566,335.131878 280.234699,336.725634 L283.088395,338.434601 C285.341566,337.119272 288.209675,335.328697 288.209675,335.328697 L285.807574,339.793134 L340.04702,339.793134 L340.04702,227.769378 L305.672951,227.769378 Z" id="Path" fill="url(#linearGradient-7)" fill-rule="nonzero"></path>
                <path d="M338.980487,228.513451 L338.980487,339.058662 L285.783553,339.058662 L288.156829,334.656631 C288.156829,334.656631 285.346371,336.418404 283.136437,337.719331 L280.340392,336.029566 C280.417259,334.459812 280.585406,332.856455 280.585406,332.856455 C280.585406,332.856455 278.971194,333.51412 277.260898,334.181385 L273.086046,331.670739 C273.206151,330.086585 273.388711,328.622441 273.388711,328.622441 L269.233075,329.356913 L267.412283,328.257606 L270.179503,320.922488 L260.989064,324.398028 L257.823095,322.47784 L258.745501,318.848685 L255.38256,321.004096 L253.249494,319.722371 L252.586514,316.602066 L250.789742,318.243826 L249.723209,317.605364 L251.303792,313.203333 C251.303792,313.203333 247.868787,314.480258 245.778959,315.233932 L243.251948,313.716984 L243.251948,228.513451 L338.980487,228.513451 Z" id="Path" fill="#F6F7F9" fill-rule="nonzero"></path>
                <g id="Group" opacity="0.35" transform="translate(263.943649, 262.625587)" fill="#57B99B" fill-rule="nonzero">
                    <rect id="Rectangle" opacity="0.2" x="0.451595033" y="0.196819249" width="53.43234" height="3.8067723"></rect>
                </g>
                <g id="Group" opacity="0.35" transform="translate(263.943649, 274.146714)" fill="#57B99B" fill-rule="nonzero">
                    <rect id="Rectangle" opacity="0.2" x="0.451595033" y="0.0576056338" width="53.43234" height="3.8067723"></rect>
                </g>
                <g id="Group" opacity="0.35" transform="translate(263.943649, 285.187793)" fill="#57B99B" fill-rule="nonzero">
                    <rect id="Rectangle" opacity="0.2" x="0.451595033" y="0.393638498" width="53.43234" height="3.8067723"></rect>
                </g>
                <g id="Group" opacity="0.35" transform="translate(263.943649, 296.708920)" fill="#57B99B" fill-rule="nonzero">
                    <rect id="Rectangle" opacity="0.2" x="0.451595033" y="0.254424883" width="10.7037631" height="3.8067723"></rect>
                </g>
                <path d="M305.264594,228.513451 C302.660716,238.776854 298.865396,252.995845 297.875731,252.746221 C296.338386,252.32858 293.936285,249.385892 293.936285,249.385892 C293.936285,249.385892 288.286543,254.690411 285.548147,251.954143 C282.809752,249.217876 279.038453,251.094859 279.038453,251.094859 L282.689647,228.50865 L305.264594,228.513451 Z" id="Path" fill="#000000" fill-rule="nonzero" opacity="0.1"></path>
                <path d="M284.520048,216.728298 L279.038453,250.610012 C279.038453,250.610012 282.804947,248.728228 285.543343,251.469296 C288.281738,254.210364 293.936285,248.891444 293.936285,248.891444 C293.936285,248.891444 296.338386,251.829331 297.875731,252.251772 C299.413075,252.674214 307.810821,217.755599 307.810821,217.755599 L301.301127,220.8375 C301.301127,220.8375 296.679484,214.673697 294.964384,215.700998 C293.249284,216.728298 289.502006,219.296549 289.502006,219.296549 L284.520048,216.728298 Z" id="Path" fill="#9D9CB5" fill-rule="nonzero"></path>
                <path d="M329.295215,68.9026408 L329.295215,65.652723 L278.313018,65.652723 C275.973372,65.652723 277.405024,68.9026408 277.405024,68.9026408 L249.703992,68.9026408 L249.703992,141.360927 L371.298357,141.360927 L371.298357,68.873838 L329.295215,68.9026408 Z" id="Path" fill="url(#linearGradient-8)" fill-rule="nonzero"></path>
                <rect id="Rectangle" fill="#F6F7F9" fill-rule="nonzero" x="250.472665" y="69.2482746" width="120.095454" height="71.6182042"></rect>
                <path d="M329.08383,80.9278169 L281.430946,80.9278169 C281.430946,80.9278169 280.916896,75.407277 282.588758,74.384777 C284.260621,73.362277 277.832598,69.7619249 277.832598,69.7619249 C277.761428,69.5940091 277.698891,69.4225688 277.645234,69.2482746 L329.08383,69.2482746 L329.08383,70.918838 C329.08383,70.918838 335.636762,76.6938028 329.08383,80.9278169 Z" id="Path" fill="#000000" fill-rule="nonzero" opacity="0.1"></path>
                <path d="M278.730984,66.041561 L329.08383,66.041561 L329.08383,70.4051878 C329.08383,70.4051878 335.636762,76.1657512 329.08383,80.4141667 L281.430946,80.4141667 C281.430946,80.4141667 280.916896,74.8936268 282.588758,73.8711268 C284.260621,72.8486268 277.832598,69.2482746 277.832598,69.2482746 C277.832598,69.2482746 276.420162,66.041561 278.730984,66.041561 Z" id="Path" fill="#9D9CB5" fill-rule="nonzero"></path>
                <g id="Group" opacity="0.35" transform="translate(264.904489, 91.248826)" fill="#57B99B" fill-rule="nonzero">
                    <rect id="Rectangle" opacity="0.2" x="0.321881566" y="0.46084507" width="90.5976504" height="1.49774648"></rect>
                </g>
                <g id="Group" opacity="0.35" transform="translate(264.904489, 97.009390)" fill="#57B99B" fill-rule="nonzero">
                    <rect id="Rectangle" opacity="0.2" x="0.321881566" y="0.345633803" width="54.119341" height="1.49774648"></rect>
                </g>
                <g id="Group" opacity="0.35" transform="translate(264.904489, 102.769953)" fill="#57B99B" fill-rule="nonzero">
                    <rect id="Rectangle" opacity="0.2" x="0.321881566" y="0.235223005" width="90.5976504" height="1.49774648"></rect>
                </g>
                <g id="Group" opacity="0.35" transform="translate(264.904489, 108.530516)" fill="#57B99B" fill-rule="nonzero">
                    <rect id="Rectangle" opacity="0.2" x="0.321881566" y="0.120011737" width="90.5976504" height="1.49774648"></rect>
                </g>
                <g id="Group" opacity="0.35" transform="translate(264.904489, 114.291080)" fill="#57B99B" fill-rule="nonzero">
                    <rect id="Rectangle" opacity="0.2" x="0.321881566" y="0.00480046948" width="90.5976504" height="1.49774648"></rect>
                </g>
                <path d="M393.09022,399.755798 C392.230267,396.09784 391.701805,392.891127 391.701805,392.891127 C391.701805,392.891127 391.898777,388.911538 390.111614,385.925646 L390.111614,384.931948 L390.111614,384.931948 L390.111614,377.58243 C390.618287,376.251488 391.238719,374.966617 391.966036,373.742054 C393.291996,371.428228 391.966036,362.9602 391.966036,362.9602 C391.966036,362.9602 387.056141,351.021432 388.252388,343.451092 C389.448634,335.880751 378.163563,309.823803 378.163563,309.823803 C378.232936,307.309689 378.589149,304.811693 379.225291,302.378275 C379.342422,301.866921 379.39089,301.34226 379.369417,300.818122 C379.369417,300.755716 379.369417,300.69331 379.369417,300.626103 L379.369417,300.688509 C379.20127,295.696021 375.252216,286.335106 375.252216,286.335106 L375.780678,268.491761 C375.780678,268.491761 378.302884,257.969131 374.190487,243.850951 C372.749226,238.920869 371.831624,234.979683 371.250315,231.936185 C371.183056,231.590552 371.120602,231.259319 371.062951,230.942488 C379.53276,229.651162 385.999217,228.575857 385.999217,228.575857 C385.999217,228.575857 381.084518,208.029847 377.769618,204.439096 C374.454718,200.848345 371.797994,189.557641 371.797994,189.557641 C371.797994,189.557641 370.068481,175.055423 372.859723,170.83581 C375.650965,166.616197 376.040105,159.28108 376.040105,159.28108 C376.040105,159.28108 382.410478,154.663028 383.207975,152.608427 C384.005473,150.553826 385.331433,145.935775 385.331433,143.487535 C385.331433,141.039296 384.533935,138.864683 384.80297,137.582958 C385.072006,136.301232 382.943744,131.423955 384.005473,129.110129 C384.281316,128.399676 384.424603,127.644749 384.428243,126.882711 C384.430912,126.860388 384.430912,126.837827 384.428243,126.815505 C384.428243,126.815505 384.428243,126.815505 384.428243,126.791502 C384.435316,124.769912 384.247079,122.752359 383.866151,120.766913 C383.866151,120.766913 380.983629,118.227465 377.567841,117.406585 L377.42852,116.854531 L377.068204,115.41439 C376.865343,115.278312 376.655251,115.153316 376.438854,115.039953 L376.438854,114.516702 L376.381203,112.433298 L377.380478,107.743239 C379.335788,99.5824413 368.454269,98.3775235 368.454269,98.3775235 C367.801986,97.1204184 366.703931,96.151595 365.374776,95.6604577 C363.184059,94.8875822 365.009656,107.920857 366.032951,108.751338 C366.806428,109.3802 369.184508,113.465399 370.327908,115.471995 L370.327908,115.471995 L370.515272,115.803228 C370.341583,115.964722 370.180942,116.139684 370.034852,116.326479 L370.448013,119.153955 L370.510468,119.585998 C369.790493,120.483219 369.206163,121.481144 368.776151,122.547887 C368.776151,122.547887 370.769895,124.7273 370.371146,127.165939 C369.972397,129.604577 370.98128,132.643275 371.029322,132.811291 C370.909217,132.676878 369.511194,131.15993 368.113171,131.529566 C366.715148,131.899202 362.828548,133.070516 362.828548,133.070516 C362.828548,133.070516 359.907593,133.584167 360.176628,134.22743 C360.445664,134.870692 358.182884,137.693369 358.182884,137.693369 L350.337622,130.262242 C350.260755,130.04142 350.183887,129.820599 350.111824,129.590176 C349.784762,128.528536 349.556395,127.439015 349.429628,126.335458 C350.284007,126.131722 351.122206,125.865376 351.937421,125.53858 C352.762463,125.257538 353.507402,124.781609 354.108921,124.151244 C354.89681,123.19115 355.069761,121.938228 355.372426,120.790915 C355.992168,118.505892 357.327736,116.470493 358.283773,114.305481 C359.898634,110.648229 360.441726,106.608166 359.849943,102.654742 C359.726193,101.438701 359.312703,100.269977 358.644088,99.2464085 C357.36617,97.4846362 355.040936,96.7693662 353.359465,95.3628286 C351.677994,93.9562911 350.582636,91.8152817 348.612913,90.7591784 C346.835358,89.7990845 344.663859,89.9190962 342.660506,90.2455282 C338.734323,90.8914096 334.96281,92.262099 331.538777,94.2875235 C330.395377,94.9643897 329.136676,95.7276643 327.820325,95.5068427 C326.696141,95.305223 325.869819,94.4027347 325.144384,93.5434507 C325.153368,93.5060066 325.164598,93.4691364 325.178013,93.4330399 L325.091538,93.33223 C324.260685,95.1750323 323.844156,97.1774066 323.87127,99.1984038 C323.87127,99.5104343 323.87127,99.8224648 323.909704,100.158498 C323.909704,100.268908 323.909704,100.379319 323.909704,100.48973 C323.916808,100.579198 323.916808,100.669088 323.909704,100.758556 L323.909704,100.758556 C323.909777,100.898178 323.890373,101.037128 323.852053,101.171397 C323.685217,101.573177 323.434643,101.934837 323.117011,102.2323 C322.877416,102.501419 322.6635,102.792311 322.478052,103.101185 C322.511681,102.995575 322.54531,102.889965 322.583744,102.784354 C322.083164,103.512642 321.801452,104.36878 321.771834,105.251796 C321.728987,105.896802 321.941168,106.532852 322.362751,107.023169 C322.753806,107.406842 323.18186,107.750949 323.640669,108.050469 C322.532659,114.218531 325.389882,120.422892 330.79893,123.59439 C330.89021,123.815211 330.976686,124.040833 331.067966,124.266455 C332.06724,126.906714 332.8215,129.979014 332.509226,132.816092 C332.480401,133.027312 332.451576,133.233732 332.413142,133.440153 C332.312254,133.545763 332.21617,133.656174 332.129694,133.766585 L332.129694,133.766585 C332.129694,133.766585 319.158348,133.891397 316.126896,131.131127 C313.095444,128.370857 308.440172,137.851784 308.440172,137.851784 C308.440172,137.851784 303.794508,138.754272 302.867297,137.851784 C301.940086,136.949296 296.496925,137.726972 296.496925,137.726972 C296.496925,137.726972 293.177221,134.515458 288.401843,134.774683 C286.587994,133.397261 284.586943,132.285173 282.459045,131.47196 L282.459045,131.47196 L282.310115,131.419155 L282.310115,131.419155 C281.375733,131.081897 280.378182,130.955661 279.38916,131.049519 C279.38916,131.049519 273.018787,125.769002 271.164365,122.965528 C269.309943,120.162054 260.455798,109.668228 260.417364,109.620223 L260.383734,109.140176 L260.282846,107.613627 C260.020561,107.654918 259.755651,107.677378 259.490153,107.680833 L259.312397,107.152782 C258.804166,105.663518 258.174296,104.218513 257.42915,102.832359 C257.42915,102.832359 257.42915,100.912171 257.991242,100.432124 C258.553333,99.9520775 257.76064,92.8905869 257.76064,92.8905869 C257.76064,92.8905869 252.019618,79.4780751 246.879121,89.4918545 C246.879121,89.4918545 237.16022,95.9676878 245.317755,103.509225 C245.317755,103.509225 248.570201,105.08858 249.031404,106.336702 C249.334069,107.147981 250.439035,109.409002 251.183687,110.91635 C251.308596,111.165974 251.419093,111.396397 251.515177,111.588415 L251.423897,111.665223 L251.544002,112.922946 L251.592044,113.402993 C250.054699,114.276678 249.012187,115.135962 249.26681,115.803228 C249.720893,116.914855 250.032436,118.079411 250.194021,119.269167 C250.194021,119.269167 261.474288,133.387347 262.934766,139.431138 C262.934766,139.431138 293.201242,157.399296 303.145941,158.685822 L301.421232,167.6675 C301.421232,167.6675 300.887966,173.058427 301.022483,174.983415 C301.157001,176.908404 299.826237,185.640458 299.826237,185.640458 C299.826237,185.640458 298.101528,198.472113 296.641051,200.267488 C295.180573,202.062864 295.449608,209.767617 295.449608,209.767617 C295.098179,213.455003 294.431157,217.105514 293.455864,220.679085 C292.014604,225.556362 293.06192,231.585751 293.06192,231.585751 C293.06192,231.585751 288.017507,243.140481 300.095272,235.310915 C300.095272,235.310915 306.023658,234.941279 312.85043,234.710857 C312.85043,234.931678 312.85043,235.1573 312.85043,235.387723 C312.85043,236.266209 312.821605,237.216702 312.811996,238.22 C312.720716,244.835047 312.682283,253.951138 312.980143,260.849413 C313.508606,273.042606 317.227058,297.174566 317.227058,297.174566 L317.227058,309.295751 C316.987148,310.435316 316.869581,311.597203 316.876351,312.76169 C316.794577,317.03487 317.929155,321.243367 320.148013,324.897277 L320.969532,332.89966 C320.969532,332.89966 323.15064,338.228181 323.193878,341.410892 C323.183505,341.670746 323.151365,341.929275 323.097794,342.183768 C323.016495,342.591384 322.981045,343.006803 322.992101,343.422289 C322.867192,347.094648 325.081929,355.874707 325.081929,355.874707 C325.081929,355.874707 325.216447,364.731573 326.52319,365.245223 C327.656982,365.682066 325.009866,370.348122 324.217173,371.687453 C324.217173,371.601045 324.183543,371.519437 324.169131,371.433028 C324.068243,371.605845 324.005788,371.701854 324.005788,371.701854 C323.733015,372.416202 323.593,373.174294 323.592627,373.938873 C323.43916,375.17395 324.011488,376.386865 325.062713,377.054378 C327.584919,378.595329 328.939704,379.877054 326.801834,380.414707 C326.014262,380.534708 325.233357,380.694933 324.462187,380.894754 C324.423754,380.793944 324.38532,380.693134 324.351691,380.597124 C323.73725,380.850638 323.376041,381.491187 323.477326,382.147676 C323.419675,382.795739 323.635864,383.741432 324.270019,385.15277 C326.393477,389.900434 327.863563,391.70061 327.863563,391.70061 L328.882053,391.585399 C328.726818,391.97124 328.528597,392.338389 328.291137,392.679906 C327.903339,393.236759 327.387722,393.692718 326.787421,394.009636 C326.234791,394.342742 325.617249,394.553885 324.976237,394.628897 C323.5194,394.67751 322.151866,395.342422 321.214546,396.457876 C319.893391,398.166843 319.062264,400.499871 321.694967,402.544871 L331.188071,405.818791 C331.188071,405.818791 347.522359,407.935798 346.64319,404.27784 C345.764021,400.619883 345.254776,397.413169 345.254776,397.413169 C345.254776,397.413169 345.437335,393.84162 343.928816,390.922934 C343.760027,390.589454 343.567358,390.268588 343.352311,389.96284 L343.928816,389.895634 C343.928816,389.895634 345.120258,381.811643 346.715253,380.294695 C347.080372,379.93946 347.162044,379.665833 347.075568,379.459413 C347.243715,379.01777 346.82575,378.758545 346.292483,378.614531 L346.177182,378.931362 C345.656248,378.81778 345.124968,378.758258 344.591796,378.753744 C344.591796,378.753744 344.058529,374.51973 345.783238,372.993181 C346.067196,372.639769 346.189251,372.18329 346.119532,371.735458 C346.134087,371.155777 346.07435,370.576618 345.941777,370.012089 C345.941777,370.040892 345.903343,370.079296 345.879322,370.108099 C345.009761,366.267723 342.069589,360.156725 342.069589,360.156725 C342.069589,360.156725 341.935072,356.31635 342.9968,354.770599 C344.058529,353.224847 342.867087,333.845352 342.867087,333.845352 C342.867087,333.845352 343.265836,324.479636 342.069589,320.116009 C340.873343,315.752383 343.51085,310.61588 343.51085,310.61588 C343.51085,310.61588 343.51085,310.51507 343.482025,310.337453 L343.515654,310.270246 C343.515654,310.270246 343.458004,309.69419 343.36192,308.796502 C343.348645,308.824459 343.337406,308.853337 343.32829,308.882911 C343.064059,306.405869 342.554814,301.912629 342.18489,299.834026 C341.651624,296.881737 342.314604,282.763556 342.314604,282.763556 L344.716705,276.734167 L348.96362,287.127183 L353.47957,300.990939 C353.47957,300.990939 355.713524,303.919225 355.766371,306.885915 C355.766371,307.02993 355.766371,307.173944 355.737545,307.317958 C355.701466,307.625459 355.683819,307.934842 355.684699,308.244448 C355.605192,309.995131 356.086513,311.725529 357.058701,313.184131 C357.058701,313.184131 358.254947,319.727171 360.114174,321.397735 C361.9734,323.068298 361.968596,326.275012 361.968596,326.275012 C361.968596,326.275012 364.226571,335.77034 365.2883,337.440904 C366.181882,338.847441 366.24914,342.72142 366.220315,343.897535 L366.220315,343.897535 C366.220315,344.118357 366.220315,344.243169 366.220315,344.243169 C366.220315,344.243169 366.532588,347.637101 366.52298,350.483779 C366.52298,350.834214 366.52298,351.175047 366.489351,351.496678 L366.489351,351.424671 C366.48615,352.202242 366.394277,352.976915 366.215511,353.733697 C366.199852,353.776007 366.187013,353.819306 366.177077,353.86331 C366.177077,353.704894 366.177077,353.541678 366.215511,353.383263 C365.752939,355.321711 365.53028,357.309573 365.552531,359.302242 C365.490076,362.715376 366.032951,366.762171 368.079542,369.133603 C371.663477,373.242805 373.921452,372.729155 373.921452,372.729155 C373.921452,372.729155 372.191939,377.860857 370.07809,378.888157 C369.99834,378.928752 369.922719,378.976982 369.852292,379.032171 C369.852292,378.931362 369.813859,378.835352 369.799446,378.734542 C369.357459,379.11858 369.179704,379.809847 369.179704,380.65473 C369.025969,382.910951 370.448013,386.578509 371.807603,388.263474 C372.309233,388.754874 372.924899,389.114421 373.59957,389.309977 C373.491003,389.384368 373.378763,389.453262 373.263276,389.516397 C373.027313,389.645307 372.783411,389.759146 372.533037,389.85723 C372.190243,390.008919 371.82527,390.104549 371.452092,390.140458 C369.994057,390.173628 368.620526,390.831012 367.680793,391.945434 C366.359637,393.649601 365.52851,395.982629 368.161213,398.027629 L377.654317,401.301549 C377.654317,401.301549 393.95978,403.413756 393.09022,399.755798 Z" id="Path" fill="url(#linearGradient-9)" fill-rule="nonzero"></path>
                <path d="M389.578348,373.732453 C388.873548,374.960404 388.272539,376.244987 387.781576,377.572829 L387.781576,387.721021 C385.211328,391.955035 371.85084,390.543697 370.054069,388.234671 C368.257297,385.925646 366.330812,379.891455 368.382206,378.864155 C370.433601,377.836854 372.100659,372.705153 372.100659,372.705153 C372.100659,372.705153 369.914747,373.218803 366.446113,369.109601 C362.977479,365.000399 364.005578,355.889108 364.654145,353.709695 C365.302713,351.530282 364.654145,344.209566 364.654145,344.209566 C364.654145,344.209566 364.783859,339.077864 363.755759,337.4073 C362.72766,335.736737 360.570573,326.241408 360.570573,326.241408 C360.570573,326.241408 360.570573,323.034695 358.768997,321.364131 C356.967421,319.693568 355.814413,313.150528 355.814413,313.150528 C354.763117,311.514748 354.309959,309.56616 354.531691,307.634789 C354.916027,304.423275 352.345778,300.957336 352.345778,300.957336 L347.978758,287.09838 L343.871165,276.700563 L341.560344,282.734754 C341.560344,282.734754 340.916581,296.852934 341.43063,299.805223 C341.94468,302.757512 342.713352,310.587077 342.713352,310.587077 C342.713352,310.587077 340.147908,315.718779 341.300917,320.082406 C342.453926,324.446033 342.074394,333.816549 342.074394,333.816549 C342.074394,333.816549 343.227402,353.196045 342.199303,354.736995 C341.171203,356.277946 341.300917,360.127923 341.300917,360.127923 C341.300917,360.127923 346.58554,371.418627 344.899265,372.959577 C343.212989,374.500528 343.741452,378.720141 343.741452,378.720141 C343.741452,378.720141 347.339799,378.720141 345.79765,380.261092 C344.255501,381.802042 343.097689,389.862031 343.097689,389.862031 L327.570506,391.662207 C327.570506,391.662207 326.129245,389.862031 324.092264,385.114366 C322.055282,380.366702 324.4766,380.880352 326.542407,380.366702 C328.608214,379.853052 327.301471,378.571326 324.860936,377.006373 C322.420401,375.44142 323.832837,371.999484 323.832837,371.999484 C323.832837,371.999484 327.556094,365.710869 326.273372,365.197218 C324.990649,364.683568 324.860936,355.826702 324.860936,355.826702 C324.860936,355.826702 322.290688,345.304073 322.939255,342.481397 C323.587822,339.658721 320.859035,332.89966 320.859035,332.89966 L319.960649,324.810869 C315.334202,316.856491 317.135778,309.540575 317.135778,309.540575 L317.135778,297.107359 C317.135778,297.107359 313.537431,272.9802 313.023381,260.787007 C312.696695,252.976643 312.787975,242.319601 312.893668,235.670951 C312.956122,231.940986 313.023381,229.468744 313.023381,229.468744 L368.51192,223.708181 C368.51192,223.708181 368.454269,226.266831 369.520802,231.945786 C370.082894,234.989284 370.962063,238.930469 372.36489,243.860552 C376.347574,257.978732 373.907039,268.501362 373.907039,268.501362 L373.392989,286.335106 C373.392989,286.335106 378.274059,298.273873 377.236351,302.378275 C376.620348,304.814723 376.275558,307.311706 376.208252,309.823803 C376.208252,309.823803 387.137813,335.87115 385.98,343.460692 C384.822187,351.050235 389.578348,362.9698 389.578348,362.9698 C389.578348,362.9698 390.86107,371.418627 389.578348,373.732453 Z" id="Path" fill="#575988" fill-rule="nonzero"></path>
                <path d="M357.851394,306.861913 L374.74297,304.615293 C374.74297,304.615293 365.172999,314.369847 357.851394,306.861913 Z" id="Path" fill="#000000" fill-rule="nonzero" opacity="0.05"></path>
                <path d="M372.302436,288.125681 C372.302436,288.125681 372.87894,294.092664 369.218138,296.339284 C369.218138,296.339284 375.77107,295.311984 372.302436,288.125681 Z" id="Path" fill="#000000" fill-rule="nonzero" opacity="0.1"></path>
                <path d="M371.264728,269.130223 C371.264728,269.130223 357.145177,280.742559 352.009484,279.782465 C346.873792,278.822371 371.264728,269.130223 371.264728,269.130223 Z" id="Path" fill="#000000" fill-rule="nonzero" opacity="0.1"></path>
                <path d="M336.91468,312.320047 C336.91468,312.320047 326.1917,314.753885 325.865014,319.040704 C325.538329,323.327523 336.91468,312.320047 336.91468,312.320047 Z" id="Path" fill="#000000" fill-rule="nonzero" opacity="0.1"></path>
                <path d="M339.273543,365.835681 C339.273543,365.835681 324.116285,368.663157 328.42085,370.588146 C332.725415,372.513134 339.787593,374.049284 339.787593,374.049284 C339.787593,374.049284 344.668663,374.308509 339.273543,365.835681 Z" id="Path" fill="#000000" fill-rule="nonzero" opacity="0.05"></path>
                <g id="Group" opacity="0.05" transform="translate(312.466094, 229.022300)" fill="#000000" fill-rule="nonzero">
                    <path d="M12.8944795,144.618944 C12.1211439,144.137436 11.6099285,143.329672 11.5060649,142.425129 L11.3523305,142.693955 C11.3523305,142.693955 9.93989494,146.159894 12.3804298,147.700845 L13.1731232,148.219296 C13.619914,148.137688 14.1051385,148.075282 14.5759503,147.95527 C16.6417574,147.44162 15.3350143,146.159894 12.8944795,144.618944 Z" id="Path"></path>
                    <path d="M32.4187584,143.591643 C32.8319198,143.207606 32.8175072,142.223509 32.5628844,140.956185 C31.8806877,141.949883 31.7173448,143.495634 31.7029322,144.671749 C31.8616035,144.264762 32.1056889,143.896463 32.4187584,143.591643 L32.4187584,143.591643 Z" id="Path"></path>
                    <path d="M30.083916,79.7405986 C29.522527,81.2576691 29.1780371,82.8462627 29.0606208,84.4594601 C29.3499845,83.3453775 29.7424162,82.2606005 30.2328462,81.2191432 C30.2328462,81.2191432 30.1751958,80.6382864 30.083916,79.7405986 Z" id="Path"></path>
                    <path d="M64.7846705,73.0007394 C64.8898482,72.5411956 64.9366575,72.0702406 64.9239924,71.5990023 C64.7366285,72.5590962 64.6021108,73.4471831 64.5060267,74.2248592 C64.5876982,73.8264202 64.678978,73.4183803 64.7846705,73.0007394 Z" id="Path"></path>
                    <path d="M29.7187966,125.369061 C29.9301815,125.05223 30.0454823,123.996127 30.1031328,122.517582 C29.6227125,123.453674 29.4257402,124.965822 29.3632856,126.117934 C29.451682,125.855119 29.5710225,125.603732 29.7187966,125.369061 Z" id="Path"></path>
                    <path d="M12.3804298,126.521174 C12.3804298,126.521174 12.5101433,135.37804 13.7928653,135.89169 L13.7928653,135.89169 C14.4414327,134.427547 14.8738109,133.011408 14.2732856,132.804988 C12.9905635,132.296138 12.86085,123.439272 12.86085,123.439272 C12.86085,123.439272 10.2906017,112.911843 10.9391691,110.089167 C11.5877364,107.266491 8.88297039,100.464225 8.88297039,100.464225 L7.98458453,92.3802347 C3.35813754,84.4210563 5.15971347,77.1051408 5.15971347,77.1051408 L5.15971347,64.6623239 C5.15971347,64.6623239 1.56136581,40.5303638 1.04731614,28.3371714 C0.720630372,20.531608 0.81191022,9.87456573 0.917602674,3.22591549 C0.917602674,2.02099765 0.960840497,0.955293427 0.980057307,0.0576056338 L0.533266476,0.100809859 C0.533266476,0.100809859 0.466007641,2.57305164 0.403553009,6.30301643 C0.297860554,12.9516667 0.206580707,23.5847066 0.533266476,31.4190728 C1.04731614,43.6122653 4.6456638,67.7394249 4.6456638,67.7394249 L4.6456638,80.1918427 C4.6456638,80.1918427 2.84408787,87.5077582 7.47053486,95.4621362 L8.36892073,103.550927 C8.36892073,103.550927 11.0640783,110.353192 10.4251194,113.151866 C9.78616046,115.95054 12.3804298,126.521174 12.3804298,126.521174 Z" id="Path"></path>
                    <path d="M77.6311079,141.282617 C76.9237582,142.509939 76.3211034,143.794604 75.829532,145.122993 L75.829532,146.923169 C76.1225883,146.265505 76.540554,145.387019 77.1170583,144.354918 C77.4869819,143.687653 77.6407163,142.511538 77.67915,141.172207 C77.6599331,141.215411 77.6455205,141.253815 77.6311079,141.282617 Z" id="Path"></path>
                    <path d="M58.8947182,143.303615 C59.3860052,142.317351 59.8097483,141.298912 60.1630277,140.255317 C60.1630277,140.255317 57.9771156,140.768967 54.5084814,136.664566 C51.9862751,133.673873 51.842149,128.023721 52.2024642,124.341761 C51.5538968,126.525974 50.5306017,135.637265 53.9944317,139.741667 C56.2716237,142.42993 57.9771156,143.135599 58.8947182,143.303615 Z" id="Path"></path>
                    <path d="M52.19766,114.841631 C52.4238373,117.371189 52.5088432,119.911371 52.4522827,122.450376 C52.5181207,122.048933 52.606335,121.651476 52.7165138,121.259859 C53.3650812,119.080446 52.7165138,111.764531 52.7165138,111.764531 C52.7165138,111.764531 52.8462273,106.628028 51.818128,104.962265 C50.7900287,103.296502 48.5848997,93.7963732 48.5848997,93.7963732 C48.5848997,93.7963732 48.5848997,90.5848592 46.788128,88.9190962 C44.9913563,87.2533333 43.8335435,80.705493 43.8335435,80.705493 C42.7826339,79.0677644 42.3295552,77.1178182 42.5508214,75.1849531 C42.9351576,71.9782394 40.3649093,68.5123005 40.3649093,68.5123005 L35.9978892,54.6485446 L31.8902961,44.2555282 L29.5746705,50.2849178 C29.5746705,50.2849178 29.5410411,51.043392 29.4978032,52.2339085 L31.3762464,47.3326291 L35.4838395,57.730446 L39.8508596,71.5894014 C39.8508596,71.5894014 42.4211079,75.0553404 42.0367717,78.2668545 C41.8150404,80.1982254 42.2681977,82.1468141 43.3194938,83.7825939 C43.3194938,83.7825939 44.4773066,90.3304343 46.2740783,91.9961972 C48.07085,93.6619601 48.1044795,96.8734742 48.1044795,96.8734742 C48.1044795,96.8734742 50.2903916,106.373603 51.3184909,108.039366 C52.3465903,109.705129 52.19766,114.841631 52.19766,114.841631 Z" id="Path"></path>
                </g>
                <path d="M375.463601,107.757641 L374.50276,112.442899 L374.560411,114.526303 L374.598844,116.067254 L369.218138,116.595305 L368.617612,115.486397 L368.617612,115.486397 C367.507841,113.4798 365.206628,109.394601 364.457173,108.765739 C363.467507,107.930458 361.699561,94.9019836 363.823018,95.6748592 C365.116825,96.1750887 366.179561,97.1361087 366.806428,98.372723 C366.806428,98.372723 377.346848,99.5968427 375.463601,107.757641 Z" id="Path" fill="#FFCDD3" fill-rule="nonzero"></path>
                <path d="M374.579628,116.043251 L369.218138,116.595305 L368.617612,115.486397 L368.617612,115.486397 C369.386285,114.694319 371.581805,112.894143 374.53639,114.526303 L374.579628,116.043251 Z" id="Path" fill="#000000" fill-rule="nonzero" opacity="0.1"></path>
                <path d="M375.944021,118.577899 L368.867431,120.238862 L368.7185,119.182758 L368.319752,116.355282 C368.319752,116.355282 371.110993,112.630117 375.160936,115.41919 L375.511643,116.859331 L375.944021,118.577899 Z" id="Path" fill="#DCE6F2" fill-rule="nonzero"></path>
                <path d="M261.450267,108.237688 L253.917278,112.289284 C253.917278,112.289284 253.629026,111.694026 253.235081,110.849143 C252.514451,109.346596 251.447918,107.080775 251.154862,106.269495 C250.708071,105.021373 247.556514,103.446819 247.556514,103.446819 C239.663209,95.9052817 249.069838,89.4246479 249.069838,89.4246479 C254.046991,79.415669 259.600649,92.8233803 259.600649,92.8233803 C259.600649,92.8233803 260.369322,99.8896714 259.826447,100.364918 C259.283572,100.840164 259.283572,102.765153 259.283572,102.765153 C260.003997,104.154243 260.61129,105.599055 261.099561,107.085575 C261.325358,107.805646 261.450267,108.237688 261.450267,108.237688 Z" id="Path" fill="#FFCDD3" fill-rule="nonzero"></path>
                <path d="M261.450267,108.237688 L253.917278,112.289284 C253.917278,112.289284 253.629026,111.694026 253.235081,110.849143 C254.29681,109.961056 258.072913,106.903157 259.312397,107.042371 C259.905223,107.115792 260.503876,107.130264 261.099561,107.085575 C261.325358,107.805646 261.450267,108.237688 261.450267,108.237688 Z" id="Path" fill="#000000" fill-rule="nonzero" opacity="0.1"></path>
                <path d="M262.223744,110.522711 L253.744327,114.69912 L253.57618,112.874941 L253.436858,111.598016 C253.436858,111.598016 258.346753,107.392805 259.797622,107.556021 C260.531902,107.664147 261.278079,107.664147 262.012359,107.556021 L262.108443,109.08257 L262.223744,110.522711 Z" id="Path" fill="#DCE6F2" fill-rule="nonzero"></path>
                <path d="M354.89681,138.859883 C354.89681,138.859883 317.933276,143.02669 324.841719,140.78007 C329.645922,139.215117 331.567603,136.157218 331.961547,132.768087 C332.288233,129.931009 331.557994,126.863509 330.587545,124.223251 C329.714608,121.892996 328.607166,119.657316 327.282254,117.550599 C327.282254,117.550599 355.540573,102.016279 349.862006,116.110458 C348.991018,118.246723 348.451537,120.503339 348.262206,122.802312 C348.089286,125.085435 348.335131,127.380918 348.987641,129.575775 C350.057859,133.158048 352.10377,136.372451 354.89681,138.859883 L354.89681,138.859883 Z" id="Path" fill="#FFCDD3" fill-rule="nonzero"></path>
                <path d="M349.886027,116.139261 C349.015039,118.275526 348.475558,120.532142 348.286227,122.831115 C345.624699,125.063333 342.703744,124.919319 338.956466,124.919319 C336.073945,124.919319 332.888758,125.615387 330.587545,124.228052 C329.714608,121.897797 328.607166,119.662116 327.282254,117.555399 C327.282254,117.555399 355.540573,102.02108 349.886027,116.139261 Z" id="Path" fill="#000000" fill-rule="nonzero" opacity="0.1"></path>
                <ellipse id="Oval" fill="#FFCDD3" fill-rule="nonzero" cx="338.456829" cy="110.623521" rx="15.2869723" ry="15.2750939"></ellipse>
                <path d="M354.89681,138.859883 C354.89681,138.859883 317.933276,143.02669 324.841719,140.78007 C329.645922,139.215117 331.567603,136.157218 331.961547,132.768087 C333.801557,130.780692 337.500793,129.340552 339.874069,128.577277 C342.050444,127.845117 344.400683,127.806536 346.599952,128.466866 C347.462772,128.72389 348.283358,129.105561 349.035683,129.599777 C350.096483,133.167913 352.125105,136.372971 354.89681,138.859883 Z" id="Path" fill="#000000" fill-rule="nonzero" opacity="0.1"></path>
                <path d="M375.944021,118.577899 L368.867431,120.238862 L368.7185,119.182758 C370.712245,116.638509 373.224842,116.331279 375.511643,116.864131 L375.944021,118.577899 Z" id="Path" fill="#000000" fill-rule="nonzero" opacity="0.1"></path>
                <path d="M262.223744,110.522711 L253.744327,114.69912 L253.57618,112.874941 C256.607631,111.089167 261.685673,109.250587 262.12766,109.092171 L262.223744,110.522711 Z" id="Path" fill="#000000" fill-rule="nonzero" opacity="0.1"></path>
                <path d="M369.520802,231.931385 C355.204279,234.187606 334.829656,237.130293 331.596428,236.146197 C328.915683,235.330117 320.34979,235.416526 312.893668,235.66615 C312.956122,231.936185 313.023381,229.463944 313.023381,229.463944 L368.51192,223.70338 C368.51192,223.70338 368.454269,226.25243 369.520802,231.931385 Z" id="Path" fill="#000000" fill-rule="nonzero" opacity="0.1"></path>
                <path d="M383.798892,228.571056 C383.798892,228.571056 336.660057,236.659847 331.596428,235.118897 C326.532798,233.577946 300.566084,235.248509 300.566084,235.248509 C288.877459,243.073275 293.758529,231.523345 293.758529,231.523345 C293.758529,231.523345 292.73043,225.493955 294.142865,220.616678 C295.085028,217.039041 295.727804,213.389308 296.064546,209.705211 C296.064546,209.705211 295.809924,202.02446 297.222359,200.209883 C298.634795,198.395305 300.301853,185.578052 300.301853,185.578052 C300.301853,185.578052 301.589379,176.850798 301.459666,174.92581 C301.329952,173.000822 301.844002,167.609894 301.844002,167.609894 L303.520669,158.642617 C293.912264,157.360892 264.606628,139.392735 264.606628,139.392735 C263.194193,133.358545 252.274241,119.230763 252.274241,119.230763 C252.115462,118.043533 251.813818,116.8798 251.375855,115.764824 C250.602378,113.710223 262.166094,109.605822 262.166094,109.605822 C262.166094,109.605822 270.77042,120.128451 272.567192,122.951127 C274.363964,125.773803 280.53256,131.039918 280.53256,131.039918 C281.490144,130.941545 282.457485,131.068123 283.357431,131.409554 C283.410277,131.409554 283.453515,131.438357 283.506361,131.452758 C283.559207,131.46716 283.506361,131.452758 283.506361,131.452758 C286.388883,132.456056 289.271404,134.750681 289.271404,134.750681 C293.897851,134.496256 297.107058,137.702969 297.107058,137.702969 C297.107058,137.702969 302.391681,136.934894 303.27085,137.832582 C304.150019,138.73027 308.665969,137.832582 308.665969,137.832582 C308.665969,137.832582 313.162703,128.332453 316.117287,131.111925 C319.071872,133.891397 331.606036,133.742582 331.606036,133.742582 C333.277899,131.524765 337.342254,129.93581 339.883677,129.11493 C342.060052,128.382769 344.410291,128.344188 346.609561,129.004519 C347.557571,129.274362 348.451581,129.706402 349.251872,130.281444 L356.856925,137.722171 C356.856925,137.722171 359.042837,134.899495 358.778606,134.256232 C358.514374,133.612969 361.348854,133.10412 361.348854,133.10412 C361.348854,133.10412 365.072111,131.947207 366.484546,131.563169 C367.896982,131.179131 369.194117,132.705681 369.309417,132.840094 C369.261375,132.676878 368.295731,129.570974 368.670458,127.199542 C369.045186,124.82811 367.128309,122.57669 367.128309,122.57669 C371.625043,111.53561 381.771519,120.781315 381.771519,120.781315 C381.771519,120.781315 382.929331,126.815505 381.901232,129.124531 C380.873133,131.433556 382.929331,136.325235 382.669904,137.592559 C382.410478,138.859883 383.183954,141.058498 383.183954,143.497136 C383.183954,145.935775 381.901232,150.558627 381.127755,152.618028 C380.354279,154.67743 374.166466,159.266678 374.166466,159.266678 C374.166466,159.266678 373.777326,166.582594 371.082168,170.816608 C368.387011,175.050622 370.054069,189.538439 370.054069,189.538439 C370.054069,189.538439 372.624317,200.833944 375.819112,204.419894 C379.013906,208.005845 383.798892,228.571056 383.798892,228.571056 Z" id="Path" fill="#656691" fill-rule="nonzero"></path>
                <path d="M315.07958,144.121197 C315.07958,144.121197 313.667144,139.887183 312.384422,139.498345 C311.105253,139.028495 309.859671,138.471947 308.656361,137.832582 L309.482684,136.253228 C309.482684,136.253228 314.310907,137.573357 315.07958,138.984695 C315.848252,140.396033 315.07958,144.121197 315.07958,144.121197 Z" id="Path" fill="#000000" fill-rule="nonzero" opacity="0.1"></path>
                <path d="M289.261796,134.750681 C289.007173,136.037207 277.573171,137.189319 277.573171,137.189319 L283.338214,131.399953 L283.338214,131.399953 L283.48234,131.447958 C283.48234,131.447958 283.48234,131.447958 283.48234,131.447958 C286.403295,132.456056 289.261796,134.750681 289.261796,134.750681 Z" id="Path" fill="#000000" fill-rule="nonzero" opacity="0.1"></path>
                <ellipse id="Oval" fill="#575988" fill-rule="nonzero" cx="256.184862" cy="117.132958" rx="1.02809933" ry="1.02730047"></ellipse>
                <ellipse id="Oval" fill="#575988" fill-rule="nonzero" cx="257.501213" cy="119.187559" rx="1.02809933" ry="1.02730047"></ellipse>
                <ellipse id="Oval" fill="#575988" fill-rule="nonzero" cx="258.788739" cy="121.083744" rx="1.02809933" ry="1.02730047"></ellipse>
                <ellipse id="Oval" fill="#575988" fill-rule="nonzero" cx="260.133916" cy="123.133545" rx="1.02809933" ry="1.02730047"></ellipse>
                <ellipse id="Oval" fill="#575988" fill-rule="nonzero" cx="381.209427" cy="123.023134" rx="1" ry="1"></ellipse>
                <ellipse id="Oval" fill="#575988" fill-rule="nonzero" cx="381.33914" cy="124.914519" rx="1" ry="1"></ellipse>
                <ellipse id="Oval" fill="#575988" fill-rule="nonzero" cx="381.454441" cy="126.810704" rx="1" ry="1"></ellipse>
                <path d="M315.141691,178.900599 C315.026734,178.751784 343.967249,215.288157 366.455721,194.175692 C366.455721,194.166092 330.943056,198.990563 315.141691,178.900599 Z" id="Path" fill="#000000" fill-rule="nonzero" opacity="0.1"></path>
                <path d="M298.509885,197.896056 C298.509885,197.896056 315.83384,198.376103 317.649828,203.34939 L317.649828,208.529096 C316.648366,209.089106 315.427671,209.089106 314.426208,208.529096 C312.677479,207.569002 302.204317,202.288486 298.509885,204.827934 L298.509885,197.896056 Z" id="Path" fill="#000000" fill-rule="nonzero" opacity="0.1"></path>
                <path d="M298.831767,197.896056 C298.831767,197.896056 315.401461,198.3473 317.135778,203.094965 L317.135778,208.034648 C316.17743,208.569809 315.009829,208.569809 314.05148,208.034648 C312.384422,207.13696 302.362856,202.067664 298.831767,204.506303 L298.831767,197.896056 Z" id="Path" fill="#656691" fill-rule="nonzero"></path>
                <path d="M307.96936,160.30358 C307.96936,160.30358 309.953496,165.401678 314.695244,171.824707 C317.626784,175.754885 321.178637,179.182378 325.211643,181.972899 C325.211643,181.972899 308.257612,162.684613 307.96936,160.30358 Z" id="Path" fill="#000000" fill-rule="nonzero" opacity="0.1"></path>
                <path d="M302.300401,140.184812 C302.300401,140.184812 305.182923,152.666033 312.639045,156.890446 L302.300401,140.184812 Z" id="Path" fill="#000000" fill-rule="nonzero" opacity="0.1"></path>
                <path d="M297.866122,141.447336 C297.794059,141.216913 295.300678,151.3075 307.474527,156.890446 C307.469723,156.890446 302.300401,155.138275 297.866122,141.447336 Z" id="Path" fill="#000000" fill-rule="nonzero" opacity="0.1"></path>
                <path d="M373.54192,133.084918 C373.349752,133.084918 379.547173,137.026103 381.228644,138.845507 C381.228644,138.859883 377.183505,132.825692 373.54192,133.084918 Z" id="Path" fill="#000000" fill-rule="nonzero" opacity="0.1"></path>
                <path d="M334.325215,124.468075 C334.541404,125.255352 334.805635,126.119437 335.516657,126.532277 C335.966155,126.748168 336.459208,126.858198 336.957918,126.853908 C341.617994,127.141937 346.465435,127.333955 350.779608,125.552981 C351.582735,125.267292 352.303566,124.789309 352.879045,124.160845 C353.642913,123.224754 353.791843,121.952629 354.099312,120.800516 C354.704642,118.520293 355.992168,116.480094 356.924183,114.315082 C358.485789,110.644655 359.009243,106.616356 358.437507,102.669143 C358.317438,101.4566 357.917849,100.288342 357.270086,99.2560094 C356.030602,97.4942371 353.782235,96.7789671 352.144002,95.37723 C350.505769,93.975493 349.458453,91.8296831 347.551184,90.7735798 C345.83128,89.8134859 343.707822,89.9334977 341.786141,90.2599296 C337.974649,90.9093858 334.322193,92.2796221 331.024728,94.2971244 C329.919761,94.9787911 328.704298,95.7612676 327.42638,95.5212441 C326.311805,95.3100235 325.504699,94.3739319 324.784069,93.495446 C323.871375,95.5887108 323.4775,97.8710835 323.635864,100.148897 C323.684842,100.482645 323.673452,100.822469 323.602235,101.152195 C323.444216,101.551343 323.201663,101.911615 322.891213,102.208298 C321.743009,103.542829 321.022378,105.655035 322.160974,107.008768 C322.641394,107.594425 323.414871,107.916056 323.895291,108.511315 C324.760048,109.58662 324.466991,111.12757 324.447775,112.500505 C324.396391,112.977271 324.515522,113.456825 324.784069,113.854237 C325.216447,114.377488 326.004336,114.420692 326.67212,114.305481 C327.339904,114.19027 328.022101,113.964648 328.680277,114.113462 C329.39787,114.352262 330.013951,114.825802 330.429007,115.457594 C332.581289,118.169859 333.422025,121.198955 334.325215,124.468075 Z" id="Path" fill="#2D293D" fill-rule="nonzero"></path>
                <g id="Group" opacity="0.1" transform="translate(321.113658, 93.169014)" fill="#000000" fill-rule="nonzero">
                    <path d="M32.2794365,29.815716 C31.7039578,30.4441796 30.9831262,30.922163 30.18,31.2078521 C25.8562178,33.0032277 21.0183859,32.7968075 16.3583095,32.5039789 C15.8597276,32.5122058 15.3661405,32.403701 14.9170487,32.1871479 C14.2108309,31.769507 13.9562082,30.910223 13.7256065,30.122946 C12.8224164,26.8298239 11.981681,23.82473 9.82939828,21.0884624 C9.41434212,20.4566704 8.79826171,19.9831306 8.08066858,19.744331 C7.42249284,19.5955164 6.74029608,19.8211385 6.07251194,19.9363498 C5.40472779,20.051561 4.63125119,20.0083568 4.18446036,19.4851056 C3.91591342,19.0876932 3.79678268,18.6081394 3.84816619,18.1313732 C3.84816619,16.758439 4.15563515,15.2126878 3.2956829,14.1421831 C2.81526266,13.5421244 2.05619866,13.2252934 1.5565616,12.6396362 C0.845539637,11.7899531 0.864756447,10.6426408 1.26350525,9.57213615 C0.446790831,10.8682629 0.0912798472,12.5340258 1.04731614,13.6621362 C1.52773639,14.2525939 2.30121299,14.5694249 2.78163324,15.1694836 C3.64158548,16.2399883 3.35333333,17.7857394 3.33411652,19.1586737 C3.28273301,19.6354398 3.40186375,20.1149936 3.6704107,20.5124061 C4.10278892,21.0356573 4.89067813,21.0788615 5.55846227,20.9636502 C6.22624642,20.848439 6.90844317,20.6228169 7.56661891,20.7716315 C8.28421204,21.0104311 8.90029246,21.4839708 9.31534862,22.1157629 C11.4676313,24.8520305 12.3083668,27.8763263 13.2115568,31.1502465 C13.4277459,31.932723 13.6919771,32.7968075 14.402999,33.2144484 C14.8520909,33.4310015 15.3456779,33.5395062 15.8442598,33.5312793 C20.5043362,33.824108 25.3517765,34.0113263 29.6659503,32.2351526 C30.4690765,31.9494635 31.1899081,31.4714801 31.7653868,30.8430164 C32.0566909,30.4717847 32.2810387,30.0526777 32.4283668,29.6044953 C32.3803247,29.6765023 32.3322827,29.7485094 32.2794365,29.815716 Z" id="Path"></path>
                    <path d="M2.53661891,7.56073944 C2.74939131,7.33975549 2.91309809,7.07639237 3.01703916,6.78786385 C3.08825585,6.45813806 3.09964637,6.11831404 3.05066858,5.78456573 C2.92406667,3.91369226 3.1673,2.03621553 3.76649475,0.259225352 L3.6848233,0.158415493 C2.77176429,2.25157102 2.37787338,4.53403373 2.53661891,6.8118662 C2.5606125,7.06091495 2.5606125,7.31169069 2.53661891,7.56073944 Z" id="Path"></path>
                </g>
                <path d="M331.596428,133.72338 C331.596428,133.72338 350.693133,136.253228 352.408233,133.387347" id="Path" fill="#000000" fill-rule="nonzero" opacity="0.1"></path>
                <path d="M368.737717,125.831408 C368.737717,125.831408 379.345396,125.831408 381.680239,129.815798" id="Path" fill="#000000" fill-rule="nonzero" opacity="0.1"></path>
            </g>
        </g>
    </g>
</svg>