<?xml version="1.0" encoding="UTF-8"?>
<svg width="292px" height="199px" viewBox="0 0 292 199" version="1.1" xmlns="http://www.w3.org/2000/svg" xmlns:xlink="http://www.w3.org/1999/xlink">
    <!-- Generator: Sketch 61.2 (89653) - https://sketch.com -->
    <title>Group 2</title>
    <desc>Created with Sketch.</desc>
    <defs>
        <linearGradient x1="0.0151367844%" y1="50.0114859%" x2="100.034472%" y2="50.0114859%" id="linearGradient-1">
            <stop stop-color="#808080" stop-opacity="0.25" offset="0%"></stop>
            <stop stop-color="#808080" stop-opacity="0.12" offset="54%"></stop>
            <stop stop-color="#808080" stop-opacity="0.1" offset="100%"></stop>
        </linearGradient>
        <linearGradient x1="50.0241984%" y1="99.9891091%" x2="50.0241984%" y2="0%" id="linearGradient-2">
            <stop stop-color="#808080" stop-opacity="0.25" offset="0%"></stop>
            <stop stop-color="#808080" stop-opacity="0.12" offset="54%"></stop>
            <stop stop-color="#808080" stop-opacity="0.1" offset="100%"></stop>
        </linearGradient>
        <linearGradient x1="50.0241539%" y1="99.9924693%" x2="50.0241539%" y2="0.00188267189%" id="linearGradient-3">
            <stop stop-color="#808080" stop-opacity="0.25" offset="0%"></stop>
            <stop stop-color="#808080" stop-opacity="0.12" offset="54%"></stop>
            <stop stop-color="#808080" stop-opacity="0.1" offset="100%"></stop>
        </linearGradient>
        <linearGradient x1="50%" y1="100.004204%" x2="50%" y2="0%" id="linearGradient-4">
            <stop stop-color="#808080" stop-opacity="0.25" offset="0%"></stop>
            <stop stop-color="#808080" stop-opacity="0.12" offset="54%"></stop>
            <stop stop-color="#808080" stop-opacity="0.1" offset="100%"></stop>
        </linearGradient>
    </defs>
    <g id="Page-1" stroke="none" stroke-width="1" fill="none" fill-rule="evenodd">
        <g id="Group-2" transform="translate(-4.000000, -26.000000)">
            <polygon id="Rectangle" points="1 1 299 1 299 249 1 249"></polygon>
            <g id="undraw_designer_kcp7" transform="translate(4.000000, 26.000000)">
                <g id="Group" opacity="0.7" transform="translate(18.925926, 122.161388)" fill="url(#linearGradient-1)" fill-rule="nonzero">
                    <path d="M36.5660905,23.7449321 C37.2731376,20.9039844 36.1566465,17.9213047 33.7572428,16.2411614 C33.1383951,15.8239517 32.4474486,15.5057919 31.8766667,15.0255505 C30.9243621,14.2241478 30.3746091,13.0445551 29.9900823,11.8649623 C29.0467901,9.03754148 28.7493827,5.8619457 27.0971193,3.30766214 C25.5950617,0.981493213 22.6630453,0.306153846 20.0644856,0.0690346908 C19.1181893,-0.0150075415 18.1238272,-0.0600301659 17.258642,0.333167421 C15.8106584,0.987496229 15.1197119,2.69535445 15.0536214,4.28315234 C14.9875309,5.87095023 15.4020988,7.43473605 15.5042387,9.01953243 C15.6063786,10.6043288 15.3239918,12.3482051 14.1553909,13.4227451 C12.9867901,14.4972851 11.3104938,14.6233484 9.75736626,14.839457 C7.72399751,15.1214364 5.72616967,15.6174417 3.79720165,16.3192006 C2.17798354,16.9195023 0.372510288,17.9730317 0.297407407,19.6898944 C0.234320988,21.0946003 1.36987654,22.2171644 2.22304527,23.336727 C3.81823045,25.4377828 4.62633745,28.1871644 4.07358025,30.759457 C3.52082305,33.3317496 1.67028807,35.624902 1.34884774,38.2782353 C1.22724198,38.9521939 1.32077325,39.6472947 1.61621399,40.2652338 C1.87493485,40.684687 2.21630665,41.0472074 2.61958848,41.3307692 C3.61995885,42.1021569 4.72246914,42.7234691 5.68378601,43.5608899 C7.65748971,45.3077677 8.72695473,47.8440422 9.5500823,50.3473002 C9.6281893,50.5874208 9.70028807,50.8335445 9.77539095,51.0736652 L7.83473251,51.0736652 C3.8867621,51.0949445 0.690172204,54.2847464 0.663909465,58.2292609 L0.663909465,58.2292609 C0.682000583,62.1819645 3.88460409,65.3817888 7.84074074,65.3998643 L27.217284,65.3998643 C31.1734206,65.3817888 34.3760241,62.1819645 34.3941152,58.2292609 L34.3941152,58.2292609 C34.3760241,54.2765574 31.1734206,51.076733 27.217284,51.0586576 L21.9060082,51.0586576 C23.1617284,49.377813 24.4745267,47.7990196 26.4121811,47.1566968 C28.3498354,46.5143741 30.6960494,46.8895626 32.2161317,45.5388839 C32.9309842,44.8381005 33.3945328,43.9213029 33.5349383,42.9305732 C33.8563861,41.1651951 33.5559732,39.3430698 32.6847737,37.7739819 C32.0839506,36.6844344 31.182716,35.6969382 30.9874486,34.4723228 C30.8222222,33.4187934 31.2037449,32.3502564 31.7204527,31.4137858 C33.1864609,28.751448 35.7790123,26.6834087 36.5660905,23.7449321 Z" id="Path"></path>
                </g>
                <path d="M38.9213169,123.788205 C38.0200823,123.707164 37.073786,123.665143 36.2506584,124.040332 C34.8717695,124.664646 34.2138683,126.291463 34.1477778,127.801222 C34.0816872,129.31098 34.4812346,130.80273 34.5773663,132.303484 C34.6734979,133.804238 34.4061317,135.473077 33.2916049,136.505596 C32.1770782,137.538115 30.5879012,137.64917 29.1038683,137.853273 C27.1675841,138.124333 25.2654165,138.599211 23.4290947,139.269985 C21.8879835,139.831267 20.1696296,140.842775 20.0975309,142.481599 C20.0374486,143.820271 21.11893,144.882805 21.9330453,145.954344 C23.4531276,147.947345 24.2101646,150.573665 23.6934568,153.022896 C23.176749,155.472127 21.4163374,157.657225 21.0979012,160.184495 C20.982577,160.825973 21.0719001,161.48744 21.353251,162.075445 C21.6004542,162.475101 21.9265148,162.820283 22.3115638,163.089955 C23.2638683,163.825324 24.3273251,164.416621 25.2285597,165.215023 C27.1091358,166.877858 28.1245267,169.294072 28.9116049,171.67727 C29.6806028,174.020064 30.2829263,176.414228 30.7140741,178.84187 C32.3332922,177.800347 34.4271605,177.815354 36.1545267,176.968929 C39.8345679,175.168024 41.0722634,169.9454 44.9565844,168.645747 C46.7951029,168.045445 49.0361728,168.390618 50.4841564,167.105973 C51.1646582,166.439122 51.6060301,165.566639 51.7398765,164.623725 C52.0453995,162.942432 51.7587914,161.207307 50.9287654,159.713258 C50.3489712,158.674736 49.4958025,157.735264 49.3125514,156.558673 C49.1533333,155.553167 49.5198354,154.538658 50.0095062,153.64721 C51.4064198,151.110935 53.8758025,149.144947 54.6298354,146.34454 C55.3033232,143.639148 54.2406399,140.798639 51.9561728,139.197949 C51.3349884,138.844332 50.7332958,138.457579 50.1537037,138.039367 C49.2524691,137.276983 48.7327572,136.151418 48.3512346,135.037858 C47.45,132.336501 47.1706173,129.334992 45.5964609,126.888763 C44.1845267,124.655641 41.3967078,124.010317 38.9213169,123.788205 Z" id="Path" fill="#4DB6AC" fill-rule="nonzero"></path>
                <path d="M38.8942798,123.881252 C38.8942798,123.881252 42.3099588,169.62724 33.4267901,177.479186" id="Path" stroke="#535461" stroke-width="0.5" opacity="0.6"></path>
                <rect id="Rectangle" fill="#57B99B" fill-rule="nonzero" x="20.4430041" y="172.358612" width="32.12" height="13.6568627" rx="4.56000018"></rect>
                <path d="M20.1035391,141.632172 C20.1035391,141.632172 28.8395062,140.614661 39.5071193,147.097919" id="Path" stroke="#535461" stroke-width="0.5" opacity="0.6"></path>
                <path d="M39.3358848,152.557662 C39.3358848,152.557662 44.190535,144.53463 54.6148148,143.00086" id="Path" stroke="#535461" stroke-width="0.5" opacity="0.6"></path>
                <path d="M20.9446914,160.238522 C20.9446914,160.238522 33.0542798,158.188492 38.6179012,161.604208" id="Path" stroke="#535461" stroke-width="0.5" opacity="0.6"></path>
                <path d="M37.9389712,166.28356 C37.9389712,166.28356 44.2776543,163.411116 51.4094239,165.743288" id="Path" stroke="#535461" stroke-width="0.5" opacity="0.6"></path>
                <g id="Group" opacity="0.7" transform="translate(244.234568, 158.479638)" fill="url(#linearGradient-2)" fill-rule="nonzero">
                    <path d="M24.7809465,5.15659125 L24.7809465,0.234117647 L0.147201646,0.234117647 L0.147201646,22.9915535 C0.147201646,25.6438532 2.29918277,27.7939668 4.95378601,27.7939668 L19.9743621,27.7939668 C22.6289654,27.7939668 24.7809465,25.6438532 24.7809465,22.9915535 L24.7809465,17.9490196 C27.0680786,17.9490197 29.1814758,16.7299082 30.3250419,14.7509126 C31.4686079,12.771917 31.4686079,10.3336938 30.3250419,8.35469823 C29.1814758,6.37570262 27.0680786,5.15659112 24.7809465,5.15659125 L24.7809465,5.15659125 Z M24.7809465,15.4907843 L24.7809465,7.61782805 C26.2144762,7.57827437 27.556384,8.3197919 28.2848212,9.55401502 C29.0132583,10.7882382 29.0132583,12.3203742 28.2848212,13.5545973 C27.556384,14.7888205 26.2144762,15.530338 24.7809465,15.4907843 L24.7809465,15.4907843 Z" id="Shape"></path>
                </g>
                <path d="M268.225432,164.404615 C264.996771,164.404615 262.379424,167.019691 262.379424,170.245551 C262.379424,173.47141 264.996771,176.086486 268.225432,176.086486 C271.454093,176.086486 274.07144,173.47141 274.07144,170.245551 C274.07144,168.696438 273.455523,167.210774 272.359184,166.115386 C271.262845,165.019998 269.77589,164.404615 268.225432,164.404615 L268.225432,164.404615 Z M268.225432,173.838356 C266.23448,173.838356 264.620494,172.225771 264.620494,170.236546 C264.620494,168.247321 266.23448,166.634736 268.225432,166.634736 C270.216385,166.634736 271.830372,168.247321 271.830372,170.236546 C271.831168,171.192325 271.451715,172.109231 270.775571,172.785351 C270.099428,173.46147 269.182042,173.841357 268.225432,173.841357 L268.225432,173.838356 Z" id="Shape" fill="#57B99B" fill-rule="nonzero"></path>
                <path d="M268.225432,164.404615 C264.996771,164.404615 262.379424,167.019691 262.379424,170.245551 C262.379424,173.47141 264.996771,176.086486 268.225432,176.086486 C271.454093,176.086486 274.07144,173.47141 274.07144,170.245551 C274.07144,168.696438 273.455523,167.210774 272.359184,166.115386 C271.262845,165.019998 269.77589,164.404615 268.225432,164.404615 L268.225432,164.404615 Z M268.225432,173.838356 C266.23448,173.838356 264.620494,172.225771 264.620494,170.236546 C264.620494,168.247321 266.23448,166.634736 268.225432,166.634736 C270.216385,166.634736 271.830372,168.247321 271.830372,170.236546 C271.831168,171.192325 271.451715,172.109231 270.775571,172.785351 C270.099428,173.46147 269.182042,173.841357 268.225432,173.841357 L268.225432,173.838356 Z" id="Shape" fill="#000000" fill-rule="nonzero" opacity="0.1"></path>
                <path d="M245.736626,159.914359 L268.219424,159.914359 L268.219424,182.146531 C268.219424,183.762776 266.90806,185.073002 265.290412,185.073002 L248.671646,185.073002 C247.053997,185.073002 245.742634,183.762776 245.742634,182.146531 L245.742634,159.914359 L245.736626,159.914359 Z" id="Path" fill="#57B99B" fill-rule="nonzero"></path>
                <rect id="Rectangle" fill="#E0E0E0" fill-rule="nonzero" x="0" y="185.073002" width="291.83177" height="9.88396682"></rect>
                <g id="Group" opacity="0.7" transform="translate(93.127572, 0.000000)" fill="url(#linearGradient-3)" fill-rule="nonzero">
                    <path d="M98.8263786,118.937768 C95.6990947,107.595068 77.9658025,99.310905 64.6245267,97.4739819 C64.6245267,97.3899397 64.6245267,97.3058974 64.6245267,97.2218552 L64.6245267,87.5149774 L64.6665844,87.5149774 L64.6665844,87.1337858 C74.259528,83.568053 81.6806093,75.7959595 84.7941564,66.0541931 C85.6188384,64.5641381 86.3366228,63.0174763 86.9420988,61.4258673 C88.3660494,60.9066063 89.4415226,58.5624284 89.4415226,55.7410106 C89.4467786,54.7760353 89.311168,53.8154514 89.0389712,52.8895777 C89.2139201,51.4534268 89.3031999,50.0081486 89.3063374,48.5614027 C89.3170999,38.3340216 84.9821331,28.58281 77.38,21.7339216 C77.4921695,21.1527614 77.5305244,20.5597859 77.4941564,19.9690347 C77.1937449,15.3076923 72.2099177,12.1411011 67.5415226,11.9309955 C70.059437,9.07708283 70.7062262,5.02910153 69.2027984,1.53377074 C66.2257202,5.86794872 60.1123457,6.33618401 54.8521399,6.36319759 C57.123251,5.48375566 58.1566667,2.34117647 56.8228395,0.297149321 C51.3253086,7.65984917 40.6006173,9.02553544 34.0636626,15.4817798 C32.6387195,16.8946831 31.4445714,18.5222983 30.5248148,20.3052036 C21.9148549,27.1582115 16.902477,37.5599257 16.9101646,48.5584012 C16.912871,49.9920082 17.0001417,51.4242098 17.1715226,52.8475566 C16.8911711,53.7852866 16.751464,54.7593527 16.7569547,55.738009 C16.7569547,58.5714329 17.8414403,60.9246154 19.2774074,61.4408748 C19.885146,63.0378541 20.6059546,64.5895577 21.4343621,66.0842081 C24.5359035,75.7705664 31.8985052,83.5092932 41.4237449,87.0947662 L41.4237449,97.2398643 C41.4237449,97.3179035 41.4237449,97.3959427 41.4237449,97.4739819 C28.0313992,99.2748869 10.1569136,107.628084 7.05666667,119.06083 C4.38,128.935792 1.52308642,139.771237 0.0991358025,146.14644 C12.2868313,154.703741 37.8578601,159.725264 53.8727984,159.725264 C69.1006584,159.725264 93.986749,155.189985 105.816955,147.401071 C104.567243,140.389548 101.620206,129.064857 98.8263786,118.937768 Z" id="Path"></path>
                </g>
                <path d="M147.00037,156.894842 C161.690494,156.894842 185.696379,152.521644 197.109012,145.005867 C195.874321,138.258477 193.029424,127.335988 190.334733,117.563077 C186.904033,105.115822 165.241358,96.4864857 152.320658,96.4864857 L139.868601,96.4864857 C126.905844,96.4864857 105.216132,105.163846 101.82749,117.665128 C99.2439506,127.191916 96.489177,137.652172 95.1162963,143.793258 C106.862387,152.050407 131.541193,156.894842 147.00037,156.894842 Z" id="Path" fill="#57B99B" fill-rule="nonzero"></path>
                <ellipse id="Oval" fill="#72351C" fill-rule="nonzero" cx="146.243333" cy="49.6749623" rx="34.9198354" ry="34.8895324"></ellipse>
                <path d="M134.971893,78.7325641 L157.346543,78.7325641 L157.346543,96.6155505 C157.346543,102.788778 152.337807,107.793167 146.159218,107.793167 L146.159218,107.793167 C139.980629,107.793167 134.971893,102.788778 134.971893,96.6155505 L134.971893,78.7325641 L134.971893,78.7325641 Z" id="Path" fill="#000000" fill-rule="nonzero" opacity="0.1"></path>
                <path d="M138.1893,77.9041464 L154.144156,77.9041464 C155.916104,77.9041464 157.352551,79.3393487 157.352551,81.1097587 L157.352551,95.7871342 C157.352551,101.960362 152.343815,106.964751 146.165226,106.964751 L146.165226,106.964751 C139.986637,106.964751 134.977901,101.960362 134.977901,95.7871342 L134.977901,81.1097587 C134.977901,80.2590575 135.31634,79.4432426 135.91868,78.8419876 C136.521021,78.2407326 137.337861,77.9033513 138.1893,77.9041464 Z" id="Path" fill="#FDA57D" fill-rule="nonzero"></path>
                <path d="M135.013951,87.1728054 C142.224869,89.8652642 150.162601,89.8876256 157.388601,87.2358371 L157.388601,84.489457 L135.013951,84.489457 L135.013951,87.1728054 Z" id="Path" fill="#000000" fill-rule="nonzero" opacity="0.1"></path>
                <ellipse id="Oval" fill="#FDA57D" fill-rule="nonzero" cx="146.243333" cy="56.629457" rx="32.06893" ry="32.0411011"></ellipse>
                <path d="M123.385021,27.48181 C123.385021,27.48181 136.903539,54.8915837 175.025761,38.9685822 L166.163621,25.0655958 L150.422058,19.4227602 L123.385021,27.48181 Z" id="Path" fill="#000000" fill-rule="nonzero" opacity="0.1"></path>
                <path d="M123.385021,27.0796078 C123.385021,27.0796078 136.903539,54.4893816 175.025761,38.5663801 L166.163621,24.6603922 L150.422058,19.0175566 L123.385021,27.0796078 Z" id="Path" fill="#72351C" fill-rule="nonzero"></path>
                <path d="M123.279877,25.2276772 C124.191371,22.4090546 125.766577,19.8501502 127.873169,17.7659276 C134.181811,11.5347964 144.521975,10.2201357 149.827243,3.11556561 C151.100988,5.08755656 150.127654,8.11907994 147.925638,8.96550528 C152.999588,8.93248869 158.896667,8.48826546 161.768601,4.3071644 C163.217779,7.67878663 162.593237,11.5828753 160.164403,14.3352036 C164.670576,14.5393062 169.47716,17.5948416 169.777572,22.0880995 C169.97284,25.0896078 168.092263,27.9200302 165.628889,29.6368929 C163.165514,31.3537557 160.185432,32.1431523 157.250412,32.7884766 C148.676667,34.6794268 117.677202,42.5853997 123.279877,25.2276772 Z" id="Path" fill="#72351C" fill-rule="nonzero"></path>
                <path d="M178.312263,56.9085973 L177.459095,56.9085973 L160.918436,71.6159879 C144.996626,64.1572398 133.280576,71.6159879 133.280576,71.6159879 L115.931811,57.5088989 L114.183416,57.728009 C114.662489,75.2367486 129.124438,89.1164623 146.653478,88.8908321 C164.182517,88.6652019 178.281791,74.4178539 178.309259,56.9025943 L178.312263,56.9085973 Z M146.192263,77.2648265 C139.952716,77.2648265 134.89679,76.0011916 134.89679,74.4434087 C134.89679,72.8856259 139.95572,71.621991 146.192263,71.621991 C152.428807,71.621991 157.487737,72.8856259 157.487737,74.4434087 C157.487737,76.0011916 152.431811,77.2648265 146.192263,77.2648265 Z" id="Shape" fill="#72351C" fill-rule="nonzero"></path>
                <ellipse id="Oval" fill="#FDA57D" fill-rule="nonzero" cx="114.159383" cy="56.5994419" rx="2.98308642" ry="5.58880845"></ellipse>
                <ellipse id="Oval" fill="#FDA57D" fill-rule="nonzero" cx="178.309259" cy="56.5994419" rx="2.98308642" ry="5.58880845"></ellipse>
                <g id="Group" opacity="0.7" transform="translate(83.814815, 113.457014)" fill="url(#linearGradient-4)" fill-rule="nonzero">
                    <rect id="Rectangle" x="0.0480658436" y="0.210105581" width="124.106008" height="71.4028808" rx="4.35000017"></rect>
                </g>
                <rect id="Rectangle" fill="#535461" fill-rule="nonzero" x="86.1099588" y="114.984781" width="119.611852" height="70.0852187" rx="8.05200032"></rect>
                <ellipse id="Oval" fill="#FFFFFF" fill-rule="nonzero" cx="145.915885" cy="150.030392" rx="4.04654321" ry="4.04303167"></ellipse>
                <rect id="Rectangle" fill="#E0E0E0" fill-rule="nonzero" x="12.3649383" y="194.956968" width="267.098889" height="4.04303167"></rect>
                <rect id="Rectangle" fill="#000000" fill-rule="nonzero" opacity="0.1" x="12.3649383" y="194.956968" width="267.098889" height="1.34767722"></rect>
                <path d="M264.178889,159.914359 L264.178889,180.690799 C264.178889,183.109365 262.216551,185.07 259.795885,185.07 L262.042963,185.07 C264.463629,185.07 266.425967,183.109365 266.425967,180.690799 L266.425967,159.914359 L264.178889,159.914359 Z" id="Path" fill="#000000" fill-rule="nonzero" opacity="0.1"></path>
                <path d="M250.176708,143.171946 C249.798189,143.237979 249.368601,143.34003 249.182346,143.676199 C248.881934,144.210468 249.422675,144.813771 249.909342,145.176953 C250.810576,145.855294 251.759877,146.521629 252.372716,147.467104 C252.985556,148.412579 253.177819,149.733243 252.507901,150.6427 C251.633704,151.828296 249.548848,152.080422 249.347572,153.539155 C249.218395,154.475626 250.026502,155.274027 250.84963,155.742262 C252.874403,156.900845 255.484979,157.21 256.953992,159.022911 C257.554815,157.777285 258.918683,157.056923 260.258519,156.747768 C261.598354,156.438612 263.016296,156.462624 264.389177,156.25552 C264.830782,156.189487 265.329465,156.054419 265.527737,155.655219 C265.912263,154.877828 264.818765,153.944359 265.19428,153.163967 C265.494691,152.563665 266.323827,152.614691 266.939671,152.377572 C267.943045,151.990377 268.354609,150.699729 268.072222,149.676214 C267.789835,148.6527 266.984733,147.830287 266.137572,147.166953 C263.860453,145.366048 261.1207,144.327526 258.347901,143.565143 C257.059136,143.213967 255.545062,142.664691 254.20823,142.607662 C252.931481,142.54463 251.456461,142.946833 250.176708,143.171946 Z" id="Path" fill="#EEEEEE" fill-rule="nonzero"></path>
            </g>
        </g>
    </g>
</svg>