<?xml version="1.0" encoding="UTF-8"?>
<svg width="299px" height="249px" viewBox="0 0 299 249" version="1.1" xmlns="http://www.w3.org/2000/svg" xmlns:xlink="http://www.w3.org/1999/xlink">
    <!-- Generator: Sketch 61.2 (89653) - https://sketch.com -->
    <title>Group 2</title>
    <desc>Created with Sketch.</desc>
    <defs>
        <linearGradient x1="49.9932333%" y1="99.9996569%" x2="49.9932333%" y2="-0.0100913522%" id="linearGradient-1">
            <stop stop-color="#808080" stop-opacity="0.25" offset="0%"></stop>
            <stop stop-color="#808080" stop-opacity="0.12" offset="54%"></stop>
            <stop stop-color="#808080" stop-opacity="0.1" offset="100%"></stop>
        </linearGradient>
    </defs>
    <g id="Page-1" stroke="none" stroke-width="1" fill="none" fill-rule="evenodd">
        <g id="Group-2">
            <rect id="Rectangle" x="1" y="1" width="298" height="248"></rect>
            <g id="undraw_on_the_office_fbfs">
                <path d="M298.277242,82.035 L270.704463,82.035 L270.704463,115.47 L296.261916,115.47 C296.327894,115.815 296.390873,116.16 296.465848,116.502 L270.704463,116.502 L270.704463,143.46 L270.83342,143.418 C271.561177,143.162 272.283935,142.89 273.001695,142.602 L273.463541,142.413 C274.199295,142.111 274.922053,141.788 275.631815,141.444 C275.88673,141.327 276.138646,141.204 276.387563,141.078 C280.352376,139.125211 284.007514,136.598005 287.234935,133.578 C287.327904,133.497 287.414875,133.413 287.498847,133.332 C287.939699,132.906 288.371555,132.477 288.791414,132.036 L289.25326,131.544 C289.748094,131.007 290.224935,130.452 290.689779,129.891 L290.893711,129.645 C292.762414,127.353025 294.332462,124.832849 295.566148,122.145 C295.605135,122.064 295.638124,121.98 295.674112,121.899 C296.048987,121.053 296.387874,120.195 296.681775,119.322 C296.807733,118.953 296.927693,118.584 297.032658,118.215 C297.068646,118.104 297.101635,117.996 297.131625,117.888 C298.661113,112.533 298.838054,106.968 298.838054,101.433 C298.838054,100.788 298.838054,100.14 298.838054,99.498 C298.838054,97.263 298.805065,94.998 298.763079,92.763 C298.763079,92.181 298.736088,91.602 298.721093,91.017 C298.685105,89.531 298.631123,88.047 298.559147,86.565 C298.541153,86.151 298.523159,85.74 298.496169,85.332 C298.496169,85.095 298.472177,84.858 298.457182,84.621 C298.397202,83.742 298.34322,82.89 298.277242,82.035 Z" id="Path" fill="#57B99B" fill-rule="nonzero" opacity="0.1"></path>
                <path d="M270.704463,44.814 L285.828405,44.814 C283.34896,41.367808 280.659771,38.0775843 277.776098,34.962 C275.526851,32.508 273.16664,30.114 270.695466,27.81 L270.704463,44.814 Z" id="Path" fill="#57B99B" fill-rule="nonzero" opacity="0.1"></path>
                <path d="M270.704463,45.846 L270.704463,81.003 L298.190271,81.003 C298.190271,80.901 298.172277,80.796 298.16328,80.703 C298.139288,80.427 298.115296,80.151 298.088305,79.872 C298.061314,79.593 298.025326,79.224 297.989338,78.897 C297.95335,78.57 297.917362,78.192 297.875376,77.844 C297.83339,77.496 297.797402,77.139 297.752417,76.788 C297.707432,76.437 297.665446,76.086 297.617462,75.738 C297.569478,75.39 297.524493,75.036 297.470512,74.688 C297.428526,74.388 297.389539,74.112 297.344554,73.821 C297.281575,73.413 297.215597,73.002 297.14662,72.597 C297.138798,72.536461 297.127787,72.4763773 297.113631,72.417 C296.617399,69.4361266 295.942406,66.4878044 295.092307,63.588 C294.193508,60.5157859 293.053337,57.519453 291.682447,54.627 C290.204112,51.5674511 288.488435,48.6284595 286.551163,45.837 L270.704463,45.846 Z" id="Path" fill="#57B99B" fill-rule="nonzero" opacity="0.1"></path>
                <path d="M205.224363,82.035 L205.224363,115.47 L264.118666,115.47 L264.118666,82.035 L205.224363,82.035 Z M205.224363,116.502 L205.224363,139.143 C212.08007,136.95 219.919448,137.835 227.027071,139.635 C232.530231,141.033 237.892437,142.935 243.3866,144.303 C245.840529,144.92999 248.331681,145.400932 250.845105,145.713 L251.462899,145.779 C251.762798,145.809 252.062698,145.839 252.362598,145.863 L253.262297,145.926 L253.355266,145.926 L253.757131,145.926 C253.803068,145.928983 253.849149,145.928983 253.895085,145.926 L254.380923,145.944 L254.395918,145.944 C254.626841,145.944 254.860762,145.944 255.094684,145.962 L255.394584,145.962 C255.625507,145.962 255.859428,145.962 256.09335,145.962 L256.606179,145.962 L257.02004,145.962 C257.196981,145.962 257.370923,145.962 257.544865,145.944 C257.82677,145.944 258.108676,145.92 258.393581,145.899 L258.918405,145.866 L259.566189,145.815 C260.025035,145.779 260.465888,145.731 260.930732,145.677 C261.110672,145.656 261.293611,145.635 261.473551,145.608 L261.740461,145.575 C262.19331,145.515 262.64016,145.443 263.093009,145.368 C263.425898,145.317 263.758786,145.254 264.094674,145.194 L264.094674,116.502 L205.224363,116.502 Z M249.027713,44.802 L249.027713,45.834 L205.224363,45.834 L205.224363,81.003 L264.118666,81.003 L264.118666,45.846 L261.164654,45.846 L261.164654,44.814 L264.118666,44.814 L264.118666,22.092 C252.662497,12.861 239.271976,5.631 224.357964,2.292 C218.07671,0.901183627 211.657324,0.231854601 205.224363,0.297 L205.224363,44.814 L249.027713,44.802 Z M114.372748,44.604 L114.579679,44.802 L198.635567,44.802 L198.635567,0.606 C183.670572,1.851 169.077452,6.879 157.312387,15.21 C151.659278,19.209 146.581976,23.949 140.239097,27.018 C136.910674,28.6701346 133.274536,29.6101249 129.562668,29.778 L114.372748,44.604 Z M113.793942,26.472 L113.793942,36.477 L121.915226,28.548 C118.895236,27.504 116.514032,26.79 113.781946,26.484 L113.793942,26.472 Z M113.524032,152.34 L113.793942,152.34 L113.793942,174.27 C116.858917,174.042 119.911896,173.728 122.952879,173.328 C136.551212,171.575191 149.8759,168.122212 162.614614,163.05 L162.614614,163.05 C163.982156,162.502 165.339702,161.936 166.687252,161.352 C167.584952,160.962 168.477653,160.562 169.365356,160.152 C170.696911,159.54 172.018469,158.911 173.33003,158.265 C179.134062,155.411445 184.732698,152.157597 190.085426,148.527 C190.418315,148.302 190.754203,148.074 191.084092,147.843 C191.74787,147.383 192.40665,146.919 193.060431,146.451 C193.387322,146.214 193.714213,145.977 194.038104,145.737 L194.703882,145.227 C195.375657,144.726 196.044433,144.222 196.722207,143.727 L196.722207,143.727 C197.348997,143.277 197.981785,142.827 198.623571,142.407 L198.623571,116.487 L131.101153,116.487 C131.149137,116.334 131.194122,116.187 131.245105,116.025 C131.191123,116.181 131.143139,116.325 131.098154,116.487 L113.781946,116.487 L113.781946,152.334 L113.524032,152.34 Z M113.793942,45.84 L113.793942,81.003 L198.635567,81.003 L198.635567,45.846 L113.793942,45.84 Z M113.793942,82.029 L113.793942,115.47 L198.635567,115.47 L198.635567,82.035 L113.793942,82.029 Z M96.8316148,27.501 L107.196148,37.62 L107.196148,26.427 C103.72331,26.643 100.268465,27.001 96.8316148,27.501 Z M24.6607523,82.035 L24.6607523,115.47 L107.196148,115.47 L107.196148,82.035 L24.6607523,82.035 Z M44.6100802,164.61 C57.1200899,169.374033 70.2000003,172.478437 83.5160682,173.844 L83.5730491,173.844 C86.0902073,174.11 88.6143631,174.316 91.1455165,174.462 L91.2384855,174.462 L91.2384855,174.462 C96.5437111,174.762 101.86993,174.831 107.187151,174.633 L107.187151,116.502 L24.6607523,116.502 L24.960652,154.998 L44.6100802,164.61 Z M1.79939819,115.47 L18.0779539,115.47 L18.0779539,82.035 L11.6391073,82.035 C10.970331,83.211 10.3225476,84.393 9.70775326,85.593 C9.37786359,86.231 9.05697091,86.876 8.74507523,87.528 C4.50749248,96.327 1.81439318,105.999 1.79939819,115.47 Z M1.79939819,116.502 C1.93135406,123.294 3.46084253,129.96 6.81672016,136.119 C9.60578736,141.234 13.4804915,145.719 18.0659579,149.619 L18.0659579,116.502 L1.79939819,116.502 Z M12.2299097,81.003 L18.0659579,81.003 L18.0659579,72.303 C15.962485,75.0910507 14.0180405,77.9956723 12.2419057,81.003 L12.2299097,81.003 Z M48.79668,44.814 L105.249799,44.814 L105.453731,44.616 L105.153831,44.316 L105.153831,44.316 L89.2801404,28.827 C84.5686321,29.8107612 79.9159,31.0577138 75.3438014,32.562 C74.9119458,32.703 74.4800903,32.862 74.0512337,32.997 C65.2231925,35.9923615 56.753496,39.9554647 48.79668,44.814 L48.79668,44.814 Z M24.6607523,64.425 L24.6607523,81.003 L97.0445436,81.003 L97.0445436,81.003 L97.0595386,81.003 L107.205145,81.003 L107.205145,46.803 L106.047533,45.861 L47.1352357,45.861 C38.8758868,51.0550967 31.3218837,57.294729 24.6607523,64.425 L24.6607523,64.425 Z" id="Shape" fill="#57B99B" fill-rule="nonzero" opacity="0.1"></path>
                <path d="M270.704463,63.579 L270.704463,81.003 L298.190271,81.003 C298.190271,80.901 298.172277,80.796 298.16328,80.703 C298.139288,80.427 298.115296,80.151 298.088305,79.872 C298.061314,79.593 298.025326,79.224 297.989338,78.897 C297.95335,78.57 297.917362,78.192 297.875376,77.844 C297.83339,77.496 297.797402,77.139 297.752417,76.788 C297.707432,76.437 297.665446,76.086 297.617462,75.738 C297.569478,75.39 297.524493,75.036 297.470512,74.688 C297.428526,74.388 297.389539,74.112 297.344554,73.821 C297.281575,73.413 297.215597,73.002 297.14662,72.597 C297.138798,72.536461 297.127787,72.4763773 297.113631,72.417 C296.617399,69.4361266 295.942406,66.4878044 295.092307,63.588 L270.704463,63.579 Z" id="Path" fill="#57B99B" fill-rule="nonzero" opacity="0.1"></path>
                <path d="M298.277242,82.035 L270.704463,82.035 L270.704463,115.47 L296.261916,115.47 C296.327894,115.815 296.390873,116.16 296.465848,116.502 L270.704463,116.502 L270.704463,143.46 L270.83342,143.418 C271.561177,143.162 272.283935,142.89 273.001695,142.602 L273.463541,142.413 C274.199295,142.111 274.922053,141.788 275.631815,141.444 C275.88673,141.327 276.138646,141.204 276.387563,141.078 C280.352376,139.125211 284.007514,136.598005 287.234935,133.578 C287.327904,133.497 287.414875,133.413 287.498847,133.332 C287.939699,132.906 288.371555,132.477 288.791414,132.036 L289.25326,131.544 C289.748094,131.007 290.224935,130.452 290.689779,129.891 L290.893711,129.645 C292.762414,127.353025 294.332462,124.832849 295.566148,122.145 C295.605135,122.064 295.638124,121.98 295.674112,121.899 C296.048987,121.053 296.387874,120.195 296.681775,119.322 C296.807733,118.953 296.927693,118.584 297.032658,118.215 C297.068646,118.104 297.101635,117.996 297.131625,117.888 C298.661113,112.533 298.838054,106.968 298.838054,101.433 C298.838054,100.788 298.838054,100.14 298.838054,99.498 C298.838054,97.263 298.805065,94.998 298.763079,92.763 C298.763079,92.181 298.736088,91.602 298.721093,91.017 C298.685105,89.531 298.631123,88.047 298.559147,86.565 C298.541153,86.151 298.523159,85.74 298.496169,85.332 C298.496169,85.095 298.472177,84.858 298.457182,84.621 C298.397202,83.742 298.34322,82.89 298.277242,82.035 Z" id="Path" fill="#57B99B" fill-rule="nonzero" opacity="0.1"></path>
                <polygon id="Path" fill="#57B99B" fill-rule="nonzero" opacity="0.1" points="243.3866 50.88 243.3866 81.003 264.118666 81.003 264.118666 50.88 261.164654 50.88 261.164654 40.68 249.027713 40.68 249.027713 50.88"></polygon>
                <rect id="Rectangle" fill="#57B99B" fill-rule="nonzero" opacity="0.1" x="243.3866" y="82.035" width="20.7320662" height="33.432"></rect>
                <path d="M264.118666,116.502 L243.389599,116.502 L243.389599,144.303 C245.842774,144.928823 248.332854,145.399752 250.845105,145.713 L251.462899,145.779 C251.762798,145.812 252.062698,145.839 252.362598,145.863 L253.262297,145.926 C253.292287,145.926 253.325276,145.926 253.355266,145.926 C253.487222,145.926 253.622177,145.926 253.757131,145.944 L253.895085,145.944 C254.057031,145.944 254.218977,145.944 254.383922,145.962 L254.383922,145.962 C254.614845,145.962 254.848766,145.962 255.082688,145.98 L255.382588,145.98 C255.61651,145.98 255.847432,145.98 256.081354,145.98 L256.594183,145.98 L257.008044,145.98 L257.535868,145.962 C257.814774,145.962 258.099679,145.938 258.381585,145.917 L258.90341,145.884 L259.554193,145.833 C260.01004,145.794 260.453892,145.749 260.915737,145.695 L261.458556,145.626 L261.725466,145.593 C262.178315,145.53 262.625165,145.464 263.078014,145.386 C263.413902,145.335 263.743791,145.272 264.079679,145.212 L264.118666,116.502 Z" id="Path" fill="#57B99B" fill-rule="nonzero" opacity="0.1"></path>
                <rect id="Rectangle" fill="#57B99B" fill-rule="nonzero" opacity="0.1" x="113.781946" y="47.322" width="17.0972818" height="33.678"></rect>
                <polygon id="Path" fill="#57B99B" fill-rule="nonzero" opacity="0.1" points="113.781946 82.035 113.781946 115.47 198.635567 115.47 198.635567 101.049 153.437683 101.049 153.437683 109.557 130.876229 109.557 130.876229 82.035"></polygon>
                <path d="M113.512036,152.352 L113.781946,152.352 L113.781946,174.285 C116.846921,174.053 119.8999,173.739 122.940883,173.343 C136.543367,171.583336 149.871792,168.125394 162.614614,163.05 C166.261394,161.586 169.8332,159.992 173.33003,158.268 C179.134148,155.413477 184.732786,152.158625 190.085426,148.527 C191.422979,147.619 192.739539,146.69 194.035105,145.74 C194.934804,145.077 195.834504,144.402 196.734203,143.745 C197.360993,143.295 197.993781,142.845 198.635567,142.422 L198.635567,116.502 L131.104152,116.502 C131.152136,116.349 131.197121,116.202 131.245105,116.043 C131.194122,116.196 131.143139,116.343 131.098154,116.502 L113.781946,116.502 L113.781946,152.337 L113.512036,152.352 Z" id="Path" fill="#57B99B" fill-rule="nonzero" opacity="0.1"></path>
                <path d="M69.1958576,44.814 L80.3341324,44.814 L80.3341324,41.727 L75.3438014,41.727 L75.3438014,32.562 C74.9119458,32.703 74.4800903,32.862 74.0512337,32.997 L74.0512337,41.727 L69.1958576,41.727 L69.1958576,44.814 Z" id="Path" fill="#57B99B" fill-rule="nonzero" opacity="0.1"></path>
                <polygon id="Path" fill="#57B99B" fill-rule="nonzero" opacity="0.1" points="42.3548345 81.003 97.0445436 81.003 97.0265496 81.003 97.0535406 81.003 107.196148 81.003 107.196148 47.322 104.323109 47.322 104.323109 72.222 91.1875025 72.222 91.1875025 57.486 80.3341324 57.486 80.3341324 45.846 69.1958576 45.846 69.1958576 57.486 58.3454865 57.486 58.3454865 72.219 42.3548345 72.219"></polygon>
                <path d="M42.3548345,82.035 L42.3548345,115.47 L107.196148,115.47 L107.196148,82.035 L42.3548345,82.035 Z M44.6190772,164.61 C57.1290869,169.374033 70.2089973,172.478437 83.5250652,173.844 L83.5820461,173.844 C86.0992043,174.11 88.6233601,174.316 91.1545135,174.462 L91.2474824,174.462 L91.2474824,174.462 C96.5527081,174.762 101.878927,174.831 107.196148,174.633 L107.196148,116.502 L42.3548345,116.502 L42.3548345,128.355 L24.6607523,128.355 L24.7537212,154.818 L44.6190772,164.61 Z" id="Shape" fill="#57B99B" fill-rule="nonzero" opacity="0.1"></path>
                <path d="M16.935336,116.502 L1.81139418,116.502 C1.94335005,123.294 3.47583751,129.96 6.82871615,136.119 C9.61778335,141.237 13.4954865,145.719 18.0779539,149.619 L18.0779539,128.355 L16.935336,128.355 L16.935336,116.502 Z" id="Path" fill="#57B99B" fill-rule="nonzero" opacity="0.1"></path>
                <path d="M1.79939819,115.47 L16.935336,115.47 L16.935336,87.528 L8.74507523,87.528 C4.50749248,96.327 1.81439318,105.999 1.79939819,115.47 Z" id="Path" fill="#57B99B" fill-rule="nonzero" opacity="0.1"></path>
                <rect id="Rectangle" fill="#57B99B" fill-rule="nonzero" opacity="0.1" x="113.781946" y="56.685" width="9.15893681" height="10.56"></rect>
                <rect id="Rectangle" fill="#57B99B" fill-rule="nonzero" opacity="0.1" x="113.781946" y="78.573" width="9.15893681" height="2.43"></rect>
                <rect id="Rectangle" fill="#57B99B" fill-rule="nonzero" opacity="0.1" x="113.781946" y="82.035" width="9.15893681" height="7.095"></rect>
                <rect id="Rectangle" fill="#57B99B" fill-rule="nonzero" opacity="0.1" x="113.781946" y="100.458" width="9.15893681" height="10.56"></rect>
                <rect id="Rectangle" fill="#57B99B" fill-rule="nonzero" opacity="0.1" x="113.781946" y="122.346" width="9.15893681" height="10.56"></rect>
                <polygon id="Path" fill="#57B99B" fill-rule="nonzero" opacity="0.1" points="113.781946 152.337 113.512036 152.337 113.781946 152.337 113.781946 154.788 122.940883 154.788 122.940883 144.228 113.781946 144.228"></polygon>
                <path d="M113.781946,166.116 L113.781946,174.273 C116.846921,174.041 119.8999,173.727 122.940883,173.331 L122.940883,166.131 L113.781946,166.116 Z" id="Path" fill="#57B99B" fill-rule="nonzero" opacity="0.1"></path>
                <rect id="Rectangle" fill="#57B99B" fill-rule="nonzero" opacity="0.1" x="159.384694" y="114.693" width="39.2508726" height="1"></rect>
                <rect id="Rectangle" fill="#57B99B" fill-rule="nonzero" opacity="0.1" x="159.384694" y="116.502" width="39.2508726" height="2.973"></rect>
                <rect id="Rectangle" fill="#57B99B" fill-rule="nonzero" opacity="0.1" x="159.384694" y="129.219" width="39.2508726" height="4.782"></rect>
                <path d="M159.384694,143.745 L159.384694,148.527 L190.088425,148.527 C191.421979,147.621 192.738539,146.691 194.038104,145.737 C194.937803,145.077 195.837503,144.402 196.737202,143.748 L159.384694,143.745 Z" id="Path" fill="#57B99B" fill-rule="nonzero" opacity="0.1"></path>
                <path d="M159.384694,158.268 L159.384694,163.05 L162.614614,163.05 C166.259395,161.59 169.830201,159.996 173.327031,158.268 L159.384694,158.268 Z" id="Path" fill="#57B99B" fill-rule="nonzero" opacity="0.1"></path>
                <rect id="Rectangle" fill="#57B99B" fill-rule="nonzero" opacity="0.1" transform="translate(87.384774, 88.714500) rotate(-180.000000) translate(-87.384774, -88.714500) " x="83.5220662" y="85.278" width="7.72541625" height="6.873"></rect>
                <rect id="Rectangle" fill="#57B99B" fill-rule="nonzero" opacity="0.1" transform="translate(254.686820, 56.686500) rotate(-180.000000) translate(-254.686820, -56.686500) " x="250.824112" y="53.25" width="7.72541625" height="6.873"></rect>
                <rect id="Rectangle" fill="#57B99B" fill-rule="nonzero" opacity="0.1" transform="translate(254.686820, 72.652500) rotate(-180.000000) translate(-254.686820, -72.652500) " x="250.824112" y="69.216" width="7.72541625" height="6.873"></rect>
                <rect id="Rectangle" fill="#57B99B" fill-rule="nonzero" opacity="0.1" transform="translate(254.686820, 88.615500) rotate(-180.000000) translate(-254.686820, -88.615500) " x="250.824112" y="85.179" width="7.72541625" height="6.873"></rect>
                <rect id="Rectangle" fill="#57B99B" fill-rule="nonzero" opacity="0.1" transform="translate(254.686820, 104.581500) rotate(-180.000000) translate(-254.686820, -104.581500) " x="250.824112" y="101.145" width="7.72541625" height="6.873"></rect>
                <rect id="Rectangle" fill="#57B99B" fill-rule="nonzero" opacity="0.1" transform="translate(254.686820, 120.550500) rotate(-180.000000) translate(-254.686820, -120.550500) " x="250.824112" y="117.114" width="7.72541625" height="6.873"></rect>
                <rect id="Rectangle" fill="#57B99B" fill-rule="nonzero" opacity="0.1" transform="translate(254.686820, 136.513500) rotate(-180.000000) translate(-254.686820, -136.513500) " x="250.824112" y="133.077" width="7.72541625" height="6.873"></rect>
                <rect id="Rectangle" fill="#57B99B" fill-rule="nonzero" opacity="0.1" transform="translate(57.886640, 88.714500) rotate(-180.000000) translate(-57.886640, -88.714500) " x="54.0239318" y="85.278" width="7.72541625" height="6.873"></rect>
                <rect id="Rectangle" fill="#57B99B" fill-rule="nonzero" opacity="0.1" transform="translate(87.384774, 105.664500) rotate(-180.000000) translate(-87.384774, -105.664500) " x="83.5220662" y="102.228" width="7.72541625" height="6.873"></rect>
                <rect id="Rectangle" fill="#57B99B" fill-rule="nonzero" opacity="0.1" transform="translate(57.886640, 105.664500) rotate(-180.000000) translate(-57.886640, -105.664500) " x="54.0239318" y="102.228" width="7.72541625" height="6.873"></rect>
                <rect id="Rectangle" fill="#57B99B" fill-rule="nonzero" opacity="0.1" transform="translate(87.384774, 122.617500) rotate(-180.000000) translate(-87.384774, -122.617500) " x="83.5220662" y="119.181" width="7.72541625" height="6.873"></rect>
                <rect id="Rectangle" fill="#57B99B" fill-rule="nonzero" opacity="0.1" transform="translate(57.886640, 122.617500) rotate(-180.000000) translate(-57.886640, -122.617500) " x="54.0239318" y="119.181" width="7.72541625" height="6.873"></rect>
                <rect id="Rectangle" fill="#57B99B" fill-rule="nonzero" opacity="0.1" transform="translate(87.384774, 139.570500) rotate(-180.000000) translate(-87.384774, -139.570500) " x="83.5220662" y="136.134" width="7.72541625" height="6.873"></rect>
                <rect id="Rectangle" fill="#57B99B" fill-rule="nonzero" opacity="0.1" transform="translate(57.886640, 139.570500) rotate(-180.000000) translate(-57.886640, -139.570500) " x="54.0239318" y="136.134" width="7.72541625" height="6.873"></rect>
                <rect id="Rectangle" fill="#57B99B" fill-rule="nonzero" opacity="0.1" transform="translate(87.384774, 156.526500) rotate(-180.000000) translate(-87.384774, -156.526500) " x="83.5220662" y="153.09" width="7.72541625" height="6.873"></rect>
                <rect id="Rectangle" fill="#57B99B" fill-rule="nonzero" opacity="0.1" transform="translate(57.886640, 156.526500) rotate(-180.000000) translate(-57.886640, -156.526500) " x="54.0239318" y="153.09" width="7.72541625" height="6.873"></rect>
                <polygon id="Path" fill="#57B99B" fill-rule="nonzero" opacity="0.1" points="91.2444835 174.474 91.2444835 170.043 83.5220662 170.043 83.5220662 173.844"></polygon>
                <path d="M270.704463,72.405 L270.704463,76.338 L297.14662,76.338 L297.14662,72.405 L270.704463,72.405 Z M294.513501,72.654 L296.669779,72.654 L296.669779,76.092 L294.501505,76.092 L294.513501,72.654 Z M291.880381,72.654 L294.048656,72.654 L294.048656,76.092 L291.871384,76.092 L291.880381,72.654 Z M289.25326,72.654 L291.421535,72.654 L291.421535,76.092 L289.25326,76.092 L289.25326,72.654 Z M286.62014,72.654 L288.788415,72.654 L288.788415,76.092 L286.62014,76.092 L286.62014,72.654 Z M283.99002,72.654 L286.17329,72.654 L286.17329,76.092 L284.005015,76.092 L283.99002,72.654 Z M281.356901,72.654 L283.525176,72.654 L283.525176,76.092 L281.356901,76.092 L281.356901,72.654 Z M278.723781,72.654 L280.892056,72.654 L280.892056,76.092 L278.723781,76.092 L278.723781,72.654 Z M276.093661,72.654 L278.261936,72.654 L278.261936,76.092 L276.093661,76.092 L276.093661,72.654 Z M273.463541,72.654 L275.631815,72.654 L275.631815,76.092 L273.463541,76.092 L273.463541,72.654 Z M270.83342,72.654 L273.001695,72.654 L273.001695,76.092 L270.83342,76.092 L270.83342,72.654 Z" id="Shape" fill="#57B99B" fill-rule="nonzero" opacity="0.1"></path>
                <path d="M270.704463,83.853 L270.704463,87.786 L297.14662,87.786 L297.14662,83.853 L270.704463,83.853 Z M294.513501,84.102 L296.669779,84.102 L296.669779,87.537 L294.501505,87.537 L294.513501,84.102 Z M291.880381,84.102 L294.048656,84.102 L294.048656,87.537 L291.871384,87.537 L291.880381,84.102 Z M289.25326,84.102 L291.421535,84.102 L291.421535,87.537 L289.25326,87.537 L289.25326,84.102 Z M286.62014,84.102 L288.788415,84.102 L288.788415,87.537 L286.62014,87.537 L286.62014,84.102 Z M283.99002,84.102 L286.17329,84.102 L286.17329,87.537 L284.005015,87.537 L283.99002,84.102 Z M281.356901,84.102 L283.525176,84.102 L283.525176,87.537 L281.356901,87.537 L281.356901,84.102 Z M278.723781,84.102 L280.892056,84.102 L280.892056,87.537 L278.723781,87.537 L278.723781,84.102 Z M276.093661,84.102 L278.261936,84.102 L278.261936,87.537 L276.093661,87.537 L276.093661,84.102 Z M273.463541,84.102 L275.631815,84.102 L275.631815,87.537 L273.463541,87.537 L273.463541,84.102 Z M270.83342,84.102 L273.001695,84.102 L273.001695,87.537 L270.83342,87.537 L270.83342,84.102 Z" id="Shape" fill="#57B99B" fill-rule="nonzero" opacity="0.1"></path>
                <path d="M270.704463,95.298 L270.704463,99.228 L297.14662,99.228 L297.14662,95.298 L270.704463,95.298 Z M294.513501,95.544 L296.669779,95.544 L296.669779,98.982 L294.501505,98.982 L294.513501,95.544 Z M291.880381,95.544 L294.048656,95.544 L294.048656,98.982 L291.871384,98.982 L291.880381,95.544 Z M289.25326,95.544 L291.421535,95.544 L291.421535,98.982 L289.25326,98.982 L289.25326,95.544 Z M286.62014,95.544 L288.788415,95.544 L288.788415,98.982 L286.62014,98.982 L286.62014,95.544 Z M283.99002,95.544 L286.17329,95.544 L286.17329,98.982 L284.005015,98.982 L283.99002,95.544 Z M281.356901,95.544 L283.525176,95.544 L283.525176,98.982 L281.356901,98.982 L281.356901,95.544 Z M278.723781,95.544 L280.892056,95.544 L280.892056,98.982 L278.723781,98.982 L278.723781,95.544 Z M276.093661,95.544 L278.261936,95.544 L278.261936,98.982 L276.093661,98.982 L276.093661,95.544 Z M273.463541,95.544 L275.631815,95.544 L275.631815,98.982 L273.463541,98.982 L273.463541,95.544 Z M270.83342,95.544 L273.001695,95.544 L273.001695,98.982 L270.83342,98.982 L270.83342,95.544 Z" id="Shape" fill="#57B99B" fill-rule="nonzero" opacity="0.1"></path>
                <path d="M270.704463,106.743 L270.704463,110.673 L297.14662,110.673 L297.14662,106.743 L270.704463,106.743 Z M294.513501,106.989 L296.669779,106.989 L296.669779,110.427 L294.501505,110.427 L294.513501,106.989 Z M291.880381,106.989 L294.048656,106.989 L294.048656,110.427 L291.871384,110.427 L291.880381,106.989 Z M289.25326,106.989 L291.421535,106.989 L291.421535,110.427 L289.25326,110.427 L289.25326,106.989 Z M286.62014,106.989 L288.788415,106.989 L288.788415,110.427 L286.62014,110.427 L286.62014,106.989 Z M283.99002,106.989 L286.17329,106.989 L286.17329,110.427 L284.005015,110.427 L283.99002,106.989 Z M281.356901,106.989 L283.525176,106.989 L283.525176,110.427 L281.356901,110.427 L281.356901,106.989 Z M278.723781,106.989 L280.892056,106.989 L280.892056,110.427 L278.723781,110.427 L278.723781,106.989 Z M276.093661,106.989 L278.261936,106.989 L278.261936,110.427 L276.093661,110.427 L276.093661,106.989 Z M273.463541,106.989 L275.631815,106.989 L275.631815,110.427 L273.463541,110.427 L273.463541,106.989 Z M270.83342,106.989 L273.001695,106.989 L273.001695,110.427 L270.83342,110.427 L270.83342,106.989 Z" id="Shape" fill="#57B99B" fill-rule="nonzero" opacity="0.1"></path>
                <path d="M270.704463,118.188 L270.704463,122.127 L295.566148,122.127 C295.602136,122.046 295.638124,121.962 295.671113,121.881 L294.513501,121.881 L294.513501,118.437 L296.669779,118.437 L296.669779,119.292 C296.795737,118.926 296.915697,118.56 297.020662,118.188 L270.704463,118.188 Z M291.880381,118.437 L294.048656,118.437 L294.048656,121.872 L291.871384,121.872 L291.880381,118.437 Z M289.25326,118.437 L291.421535,118.437 L291.421535,121.872 L289.25326,121.872 L289.25326,118.437 Z M286.62014,118.437 L288.788415,118.437 L288.788415,121.872 L286.62014,121.872 L286.62014,118.437 Z M283.99002,118.437 L286.17329,118.437 L286.17329,121.872 L284.005015,121.872 L283.99002,118.437 Z M281.356901,118.437 L283.525176,118.437 L283.525176,121.872 L281.356901,121.872 L281.356901,118.437 Z M278.723781,118.437 L280.892056,118.437 L280.892056,121.872 L278.723781,121.872 L278.723781,118.437 Z M276.093661,118.437 L278.261936,118.437 L278.261936,121.872 L276.093661,121.872 L276.093661,118.437 Z M273.463541,118.437 L275.631815,118.437 L275.631815,121.872 L273.463541,121.872 L273.463541,118.437 Z M270.83342,118.437 L273.001695,118.437 L273.001695,121.872 L270.83342,121.872 L270.83342,118.437 Z" id="Shape" fill="#57B99B" fill-rule="nonzero" opacity="0.1"></path>
                <path d="M270.704463,129.627 L270.704463,133.557 L287.231936,133.557 C287.327904,133.476 287.411876,133.389 287.498847,133.311 L286.62014,133.311 L286.62014,129.882 L288.788415,129.882 L288.788415,132.027 L289.25326,131.532 L289.25326,129.882 L290.689779,129.882 C290.758756,129.798 290.824734,129.714 290.893711,129.636 L270.704463,129.627 Z M283.99002,129.873 L286.17329,129.873 L286.17329,133.311 L284.005015,133.311 L283.99002,129.873 Z M281.356901,129.873 L283.525176,129.873 L283.525176,133.311 L281.356901,133.311 L281.356901,129.873 Z M278.723781,129.873 L280.892056,129.873 L280.892056,133.311 L278.723781,133.311 L278.723781,129.873 Z M276.093661,129.873 L278.261936,129.873 L278.261936,133.311 L276.093661,133.311 L276.093661,129.873 Z M273.463541,129.873 L275.631815,129.873 L275.631815,133.311 L273.463541,133.311 L273.463541,129.873 Z M270.83342,129.873 L273.001695,129.873 L273.001695,133.311 L270.83342,133.311 L270.83342,129.873 Z" id="Shape" fill="#57B99B" fill-rule="nonzero" opacity="0.1"></path>
                <path d="M270.704463,141.081 L270.704463,143.46 C270.748487,143.448162 270.791588,143.433122 270.83342,143.415 L270.83342,141.315 L273.001695,141.315 L273.001695,142.593 L273.463541,142.404 L273.463541,141.327 L275.631815,141.327 L275.631815,141.447 C275.88673,141.33 276.138646,141.207 276.387563,141.084 L270.704463,141.081 Z" id="Path" fill="#57B99B" fill-rule="nonzero" opacity="0.1"></path>
                <path d="M113.512036,152.352 L113.781946,152.352 L113.781946,152.352 L113.512036,152.352 Z M131.098154,116.502 L131.098154,116.502 C131.146138,116.349 131.191123,116.202 131.242106,116.04 C131.191123,116.196 131.143139,116.349 131.098154,116.502 Z M249.027713,44.814 L249.027713,45.846 L261.164654,45.846 L261.164654,44.814 L249.027713,44.814 Z M113.512036,152.352 L113.781946,152.352 L113.781946,152.352 L113.512036,152.352 Z M131.098154,116.502 L131.098154,116.502 C131.146138,116.349 131.191123,116.202 131.242106,116.04 C131.191123,116.196 131.143139,116.349 131.098154,116.502 Z M113.512036,152.352 L113.781946,152.352 L113.781946,152.352 L113.512036,152.352 Z M131.098154,116.502 L131.098154,116.502 C131.146138,116.349 131.191123,116.202 131.242106,116.04 C131.191123,116.196 131.143139,116.349 131.098154,116.502 Z" id="Shape" fill="#57B99B" fill-rule="nonzero" opacity="0.1"></path>
                <ellipse id="Oval" fill="#57B99B" fill-rule="nonzero" opacity="0.1" cx="270.794433" cy="246.477" rx="10.3705316" ry="1.149"></ellipse>
                <polygon id="Path" fill="#D48A9B" fill-rule="nonzero" points="200.428967 160.875 195.2467 160.59 194.895817 145.701 194.814845 142.155 200.282016 141.147 200.318004 145.719"></polygon>
                <polygon id="Path" fill="#D48A9B" fill-rule="nonzero" points="196.395316 158.283 169.764223 174.846 169.188415 179.886 172.067452 180.03 172.067452 176.43 189.485627 166.638 168.468656 192.702 168.468656 196.734 171.923501 196.734 171.635597 192.27 195.96346 164.622 198.986449 164.91 224.612879 193.998 225.188686 198.897 228.643531 199.041 228.067723 193.998 207.770512 168.654 221.301986 178.014 221.58989 182.046 224.324975 182.19 224.037071 177.294 198.26669 157.419"></polygon>
                <path d="M162.938506,129.954 C165.453362,126.823859 167.561462,123.387474 169.212407,119.727 C171.044794,115.671 173.054122,110.988 173.207071,109.602 C173.506971,107.01 180.83652,101.826 188.897823,101.538 C194.155065,101.349 202.345326,97.245 207.413631,94.41 C212.181104,91.698408 217.482725,90.0602938 222.948435,89.61 C228.877452,89.163 234.452588,90.327 231.645527,97.209 L193.948134,142.875 C193.948134,142.875 161.798887,148.542 159.81655,139.431 C159.705639,138.971664 159.552021,138.523713 159.357703,138.093 C158.982828,137.232 158.883862,134.985 162.938506,129.954 Z" id="Path" fill="#57B99B" fill-rule="nonzero"></path>
                <path d="M165.769559,130.86 C168.301019,127.695847 170.429621,124.229288 172.106439,120.54 C173.815868,116.748 175.630261,112.497 175.774213,111.21 C176.05012,108.735 183.073771,103.782 190.787192,103.506 C195.81651,103.326 203.652889,99.408 208.499268,96.699 C213.064718,94.1125297 218.138773,92.5523349 223.368295,92.127 C229.039398,91.701 234.374614,92.814 231.699509,99.387 L201.79651,143.187 C201.79651,143.187 164.908847,148.422 162.956499,139.761 C162.840589,139.30119 162.687125,138.851679 162.497653,138.417 C162.155767,137.559 162.107783,135.456 165.769559,130.86 Z" id="Path" fill="#DDA2A6" fill-rule="nonzero" opacity="0.2"></path>
                <path d="M200.318004,145.719 C198.584584,145.719 196.758195,145.719 194.895817,145.701 L194.814845,142.155 L200.282016,141.15 L200.318004,145.719 Z" id="Path" fill="#000000" fill-rule="nonzero" opacity="0.1"></path>
                <g id="Group" opacity="0.1" transform="translate(168.243731, 163.500000)" fill="#000000" fill-rule="nonzero">
                    <polygon id="Path" points="53.0582548 13.65 39.5267803 4.29 41.0772618 6.225 53.0582548 14.514 53.3461585 18.546 56.0812437 18.69 56.0302608 17.823 53.3461585 17.682"></polygon>
                    <polygon id="Path" points="3.82372116 12.066 3.82372116 12.93 19.967322 3.855 21.2418957 2.274"></polygon>
                    <polygon id="Path" points="0.224924774 32.37 0.224924774 33.234 3.67976931 33.234 3.62278837 32.37"></polygon>
                    <polygon id="Path" points="3.82372116 15.666 1.04065196 15.528 0.944684052 16.386 3.82372116 16.53"></polygon>
                    <polygon id="Path" points="56.9449549 34.533 56.3691474 29.634 30.7427182 0.546 27.7197292 0.258 3.3918656 27.906 3.44284855 28.713 27.7197292 1.122 30.7427182 1.41 56.3691474 30.498 56.9449549 35.397 60.3997994 35.541 60.3008325 34.671"></polygon>
                </g>
                <path d="M197.259027,117.345 C197.259027,117.345 204.000772,122.277 201.049759,122.334 C198.098746,122.391 197.259027,117.345 197.259027,117.345 Z" id="Path" fill="#000000" fill-rule="nonzero" opacity="0.1"></path>
                <path d="M168.972487,144.327 C168.972487,144.327 180.128756,143.463 184.30336,135.399 C184.30336,135.399 192.79652,118.548 199.709208,116.676 C206.621896,114.804 219.430612,110.628 224.75683,104.148 C230.083049,97.668 232.317302,92.7 232.317302,92.7 C232.317302,92.7 233.690843,97.944 229.36329,104.127 C225.035737,110.31 223.461264,119.832 220.438275,129.927 C217.415286,140.022 216.263671,144.027 210.793501,144.627 C206.66988,145.062 184.867172,144.843 174.442658,144.627 C171.032798,144.534 168.972487,144.327 168.972487,144.327 Z" id="Path" fill="#57B99B" fill-rule="nonzero"></path>
                <path d="M168.972487,144.327 C168.972487,144.327 180.128756,143.463 184.30336,135.399 C184.30336,135.399 192.79652,118.548 199.709208,116.676 C206.621896,114.804 219.430612,110.628 224.75683,104.148 C230.083049,97.668 232.317302,92.7 232.317302,92.7 C232.317302,92.7 233.690843,97.944 229.36329,104.127 C225.035737,110.31 223.461264,119.832 220.438275,129.927 C217.415286,140.022 216.263671,144.027 210.793501,144.627 C206.66988,145.062 184.867172,144.843 174.442658,144.627 C171.032798,144.534 168.972487,144.327 168.972487,144.327 Z" id="Path" fill="#DDA2A6" fill-rule="nonzero" opacity="0.2"></path>
                <path d="M171.779549,144.327 C171.779549,144.327 182.443982,143.49 186.432648,135.681 C186.432648,135.681 194.553932,119.367 201.157723,117.555 C207.761515,115.743 220.009418,111.696 225.101715,105.423 C230.194012,99.15 232.326299,94.338 232.326299,94.338 C232.326299,94.338 233.630863,99.438 229.504243,105.423 C225.377623,111.408 223.863129,120.621 220.972096,130.383 C218.081063,140.145 216.98343,144.048 211.75318,144.606 C207.812497,145.026 186.972467,144.813 177.0068,144.606 C173.74989,144.543 171.779549,144.327 171.779549,144.327 Z" id="Path" fill="#57B99B" fill-rule="nonzero"></path>
                <path d="M163.142437,140.127 C163.142437,140.127 168.972487,142.359 172.28338,141.135 C175.594273,139.911 183.799529,136.311 183.799529,136.311 C183.799529,136.311 169.98015,137.187 163.142437,140.127 Z" id="Path" fill="#000000" fill-rule="nonzero" opacity="0.1"></path>
                <path d="M202.1234,244.932 C202.1234,244.932 185.365005,244.032 181.280371,241.632 C177.195737,239.232 171.413671,239.232 171.383681,239.232 L104.655998,224.682 L76.9152758,218.082 L71.9669308,217.431 L88.3114644,198.723 L88.8092979,198.507 L112.90324,188.082 C112.90324,188.082 123.699629,188.682 125.831916,195.72 C125.977817,196.215825 126.078199,196.723931 126.131815,197.238 C126.355543,199.432923 125.747652,201.63191 124.428385,203.4 C123.57667,204.564 122.53002,206.217 122.20013,207.672 C122.014193,208.494 122.056179,209.253 122.50003,209.832 C123.39961,210.725433 124.393043,211.519037 125.463039,212.199 C131.338074,216.099 146.189107,222.525 172.13343,212.682 C172.13343,212.682 183.229719,201.732 191.626911,206.382 C200.024102,211.032 202.1234,244.932 202.1234,244.932 Z" id="Path" fill="#E1DEE5" fill-rule="nonzero"></path>
                <path d="M122.212126,207.672 C122.026189,208.494 122.068175,209.253 122.512026,209.832 C123.411606,210.725433 124.405039,211.519037 125.475035,212.199 L74.9659278,215.982 L88.8092979,198.507 L112.90324,188.082 C112.90324,188.082 123.699629,188.682 125.831916,195.72 C125.977817,196.215825 126.078199,196.723931 126.131815,197.238 C126.355543,199.432923 125.747652,201.63191 124.428385,203.4 C123.588666,204.564 122.542016,206.217 122.212126,207.672 Z" id="Path" fill="#000000" fill-rule="nonzero" opacity="0.1"></path>
                <polygon id="Path" fill="#A36468" fill-rule="nonzero" points="72.8666299 138.882 114.252788 139.782 114.252788 189.339 74.9659278 215.982 65.5190873 207.282 67.4684353 178.482 65.5190873 151.632"></polygon>
                <path d="M49.3245035,130.782 L97.644343,115.887 C98.5127001,115.621338 99.422888,115.519607 100.328445,115.587 L215.75984,124.014 C225.632845,124.691797 235.135321,128.044599 243.248646,133.713 C250.719147,138.984 258.117673,147.075 261.542528,159.327 C264.019896,168.36772 263.848136,177.930143 261.047693,186.876 L250.851103,219.876 C250.851103,219.876 258.498546,148.176 182.174072,144.576 L49.3245035,130.782 Z" id="Path" fill="#D9D6DF" fill-rule="nonzero"></path>
                <path d="M74.9659278,137.832 L74.9659278,217.431 C74.9659278,217.431 61.7253561,215.568 59.3711434,212.982 C57.4397894,210.861 46.2505316,204.882 41.3951555,198.723 C40.3305115,197.373 39.5687663,196.023 39.2778636,194.682 C37.6524072,187.278 31.0306219,169.782 31.0306219,169.782 L32.8300201,152.682 L40.3275125,141.582 L54.8726479,134.982 L66.1188867,134.982 L74.9659278,137.832 Z" id="Path" fill="#B8797D" fill-rule="nonzero"></path>
                <path d="M53.9729488,138.882 C53.9729488,138.882 32.4521464,152.382 37.1605717,174.105 C37.5444433,175.875 37.877332,177.654 38.0962588,179.454 C38.9569709,186.48 44.1212437,206.67 74.9659278,215.982 L74.9659278,218.082 L61.8813039,214.431 L52.9982748,209.532 L46.2175426,203.448 L37.9283149,193.332 L34.0806018,185.082 L32.6710732,174.216 L31.858345,161.811 L33.840682,151.17 L38.5161184,144.246 L44.2142126,139.815 L53.9729488,138.882 Z" id="Path" fill="#D9D6DF" fill-rule="nonzero"></path>
                <path d="M74.9659278,137.832 L74.9659278,150.495 C65.5790672,151.515 36.5157874,157.395 41.6770612,190.995 L41.3921565,198.711 C40.3275125,197.361 39.5657673,196.011 39.2748646,194.67 C37.6494082,187.266 31.0276229,169.77 31.0276229,169.77 L32.8270211,152.67 L40.3245135,141.57 L54.8696489,134.97 L66.1158877,134.97 L74.9659278,137.832 Z" id="Path" fill="#000000" fill-rule="nonzero" opacity="0.1"></path>
                <path d="M124.440381,203.4 C123.588666,204.564 122.542016,206.217 122.212126,207.672 C120.904564,206.172 120.622658,204.447 122.512026,203.082 C124.878235,201.36 125.666971,198.372 125.843912,195.72 C125.989813,196.215825 126.090195,196.723931 126.143811,197.238 C126.367539,199.432923 125.759648,201.63191 124.440381,203.4 L124.440381,203.4 Z" id="Path" fill="#FFFFFF" fill-rule="nonzero" opacity="0.1"></path>
                <path d="M245.608857,211.482 L239.910762,230.832 L227.015075,243.432 L210.820491,246.732 L185.628917,242.232 L185.628917,152.682 C185.628917,152.682 189.977462,149.832 190.427312,149.832 C190.877161,149.832 203.023099,151.782 203.023099,151.782 L230.523902,171.513 L231.663521,172.332 L243.959408,190.632 L245.608857,211.482 Z" id="Path" fill="#B8797D" fill-rule="nonzero"></path>
                <polygon id="Path" fill="#A36468" fill-rule="nonzero" points="185.628917 148.932 185.628917 242.232 188.058104 242.667 188.058104 148.932"></polygon>
                <path d="M231.063721,177.732 C213.069739,162.942 193.066429,160.767 185.628917,160.497 L185.628917,152.697 C185.628917,152.697 189.977462,149.847 190.427312,149.847 C190.877161,149.847 203.023099,151.797 203.023099,151.797 L230.523902,171.528 L231.063721,177.732 Z" id="Path" fill="#000000" fill-rule="nonzero" opacity="0.1"></path>
                <path d="M181.829188,142.932 L69.1178837,130.632 L56.4501204,129.96 C48.4509283,129.49735 40.6843536,132.745109 35.3941625,138.765 C28.7963691,146.355 23.8090371,159.744 31.0936008,182.733 C31.0936008,182.733 38.6900602,212.532 75.4787563,218.934 L182.375005,243.165 C184.744213,243.702 187.08343,244.365 189.392658,245.118 C199.097412,248.307 231.978415,256.569 247.468235,228.483 C252.776459,218.853 254.365928,207.624 252.320612,196.815 C248.592859,177.045 234.518566,143.496 181.829188,142.932 Z M237.049719,227.199 C222.594554,250.755 192.808516,243.744 183.853511,240.978 C181.661244,240.3 179.441986,239.709 177.195737,239.229 L78.4507623,218.097 C44.4301404,212.508 37.4034905,186.489 37.4034905,186.489 C31.6604112,169.389 34.1705717,158.355 38.8130191,151.371 C43.6743932,144.06 52.1375627,139.971 60.9066299,140.415 L72.5787262,141.015 L173.393009,154.488 C175.432327,154.761 177.48664,154.941 179.543952,155.01 C224.375958,156.531 238.324293,181.191 241.869107,198.186 C243.950411,208.119 242.366941,218.541 237.049719,227.199 Z" id="Shape" fill="#E1DEE5" fill-rule="nonzero"></path>
                <path d="M1.26857573,193.065 C4.96034102,195.537 10.5654664,194.361 10.5654664,194.361 C10.5654664,194.361 19.0196389,190.356 21.5178034,190.356 C24.0159679,190.356 30.0919358,187.881 30.0919358,187.881 L29.885005,186.213 L29.2672116,181.188 C33.1149248,184.188 37.3914945,183.153 39.4967904,182.934 C41.7580341,182.7 53.840993,175.515 55.0046038,175.041 C55.3194985,174.915 55.6883751,174.504 56.0632497,173.973 L56.0632497,173.973 C56.8415838,172.782357 57.5254491,171.532531 58.1085657,170.235 L58.1085657,170.235 C58.8643129,169.569 59.4161284,169.035 59.3771414,168.918 C59.3381545,168.801 59.6770411,167.925 60.1178937,166.938 C61.83332,166.638 63.3118255,166.002 63.782668,165.618 C64.5670811,164.990251 65.0112801,164.030461 64.9822668,163.026 C64.9822668,163.026 76.771324,151.131 75.2208425,146.184 C73.6703611,141.237 79.0325677,141.117 79.0325677,141.117 C79.0325677,141.117 87.2468205,137.583 88.3894383,135.465 C89.0942026,134.16 95.2571414,131.295 99.8935908,129.285 L100.4634,129.039 C102.262798,132.984 111.403741,129.939 113.203139,128.28 C115.107503,126.513 120.700632,125.688 120.700632,125.688 C120.700632,125.688 120.940552,102.588 122.724955,99.654 C123.573671,98.259 123.777603,93.699 123.75661,89.295 C123.75661,89.139 123.75661,88.995 123.75661,88.827 C126.257773,88.338 132.207783,87.207 134.96986,86.934 C136.721274,86.76 138.547663,85.668 139.948195,84.606 L140.113139,84.813 C140.594428,85.0106485 141.114463,85.0958108 141.633631,85.062 C142.093334,85.113523 142.557958,85.0268338 142.968185,84.813 C144.041825,84.213 147.970512,83.046 149.398034,82.458 C150.825557,81.87 149.161113,77.628 148.090471,76.803 C147.019829,75.978 146.291073,74.919 146.890873,74.448 C147.490672,73.977 145.46335,72.798 144.272748,72.561 C143.082146,72.324 139.510341,70.677 139.510341,70.677 C139.510341,70.677 138.199779,67.977 136.058495,67.977 C133.917212,67.977 131.056169,65.856 131.056169,65.856 C130.939208,64.914 128.674965,64.797 128.674965,64.797 C128.674965,64.797 120.103831,58.197 118.67331,59.025 C117.242788,59.853 113.317101,57.729 113.317101,57.729 C113.317101,57.729 108.497713,58.269 107.364092,57.381 L107.364092,57.381 C107.353781,57.0894049 107.248466,56.8091742 107.064193,56.583 C106.809278,55.785 105.564694,54.693 104.365095,53.784 C104.456782,53.2206314 104.502916,52.6507856 104.503049,52.08 C104.503049,51.834 104.503049,51.588 104.476058,51.345 C104.476058,51.303 104.476058,51.264 104.476058,51.222 L104.647001,49.563 C104.658793,49.0174503 104.800684,48.4826097 105.060863,48.003 C105.261795,47.703 105.558696,47.448 105.783621,47.151 C105.836078,47.0810428 105.884154,47.0079028 105.927573,46.932 L105.963561,46.869 C105.996518,46.8115569 106.026546,46.7524813 106.053531,46.692 L106.080522,46.632 C106.146787,46.4690261 106.197984,46.3003207 106.23347,46.128 L106.23347,46.089 C106.248465,46.011 106.260461,45.933 106.269458,45.852 C106.268109,45.8410414 106.268109,45.8299586 106.269458,45.819 C106.318636,45.1336288 106.226773,44.4454505 105.999549,43.797 C105.642668,42.684 105.084855,41.61 105.024875,40.449 C104.994885,39.873 105.090853,39.285 104.964895,38.721 C104.664995,37.434 103.354433,36.621 102.07986,36.081 C100.319448,35.343 99.4317452,34.536 98.0192177,33.438 C96.8196189,32.508 94.8342828,32.976 93.3227884,33.072 C89.8679438,33.294 86.4580843,34.335 83.2071715,35.409 C81.9445938,35.829 80.6580241,36.309 79.6743531,37.164 C79.0121194,37.7274704 78.5571603,38.4961967 78.3817854,39.348 L78.3817854,39.348 C78.3477216,39.5460706 78.3346535,39.7471849 78.3427984,39.948 C78.3427984,39.966 78.3427984,39.984 78.3427984,39.999 C78.3427984,40.077 78.3427984,40.152 78.3697894,40.227 C78.3681169,40.251972 78.3681169,40.277028 78.3697894,40.302 C78.3846729,40.3935909 78.4067336,40.4838692 78.4357673,40.572 L78.4357673,40.572 C78.5737212,41.007 78.8286359,41.4 78.9755868,41.832 C79.0088632,41.9301954 79.035908,42.0303948 79.0565597,42.132 C79.0565597,42.132 79.0565597,42.153 79.0565597,42.162 C79.0775527,42.258 79.0925476,42.351 79.1045436,42.462 L79.1045436,42.462 C79.2364995,43.533 78.8406319,44.652 78.6666901,45.744 C78.6426981,45.897 78.6247041,46.044 78.6127081,46.212 L78.6127081,46.212 L78.6127081,46.212 C78.5607046,46.84382 78.6164812,47.4798858 78.777653,48.093 C78.7763528,48.0999396 78.7763528,48.1070604 78.777653,48.114 C78.7956469,48.189 78.8226379,48.264 78.8466299,48.336 C78.8548299,48.3685342 78.8648422,48.4005842 78.8766199,48.432 C78.8976128,48.495 78.9246038,48.558 78.9485958,48.618 L78.9995787,48.744 C79.0235707,48.798 79.0505617,48.852 79.0775527,48.906 C79.1045436,48.96 79.1225376,48.996 79.1465296,49.038 C79.1710819,49.087332 79.1981072,49.1353931 79.2275025,49.182 C79.2544935,49.23 79.2844835,49.275 79.3144734,49.32 C79.3444634,49.365 79.3714544,49.407 79.4044433,49.449 C79.4374323,49.491 79.4734203,49.542 79.5094082,49.587 L79.6023771,49.701 L79.728335,49.833 L79.8273019,49.932 L79.9742528,50.058 C80.0102407,50.085 80.0402307,50.115 80.0762187,50.139 C80.1122066,50.163 80.1991775,50.226 80.2621565,50.265 L80.3491274,50.325 C80.4450953,50.382 80.5470612,50.433 80.6490271,50.481 C81.3327984,50.781 82.1965095,50.904 82.6073721,51.507 C82.7053525,51.6477722 82.7737134,51.806994 82.8083049,51.975 C82.8083049,52.014 82.8083049,52.056 82.8083049,52.095 L82.8083049,52.2 C82.8083049,52.548 82.8322969,52.893 82.8682849,53.232 C82.8656406,53.4185564 82.8766664,53.6050558 82.9012738,53.79 C82.9212627,53.9294319 82.9595817,54.0656105 83.0152357,54.195 C83.4952329,56.565672 84.7637444,58.7038288 86.6140321,60.261 C86.6500201,60.444 86.692006,60.657 86.736991,60.897 C85.6892005,61.6834878 84.51887,62.291655 83.2731494,62.697 C80.4151053,63.534 76.3754564,67.395 76.3754564,67.395 C76.3754564,67.395 74.3661284,81.882 73.8832899,83.649 C73.4004514,85.416 73.0435707,92.25 73.0435707,92.25 C73.0435707,92.25 72.5667302,95.076 71.8439719,96.489 C71.3371414,97.485 71.4301103,101.766 72.8396389,104.367 C72.6098482,104.878431 72.3155539,105.358331 71.9639318,105.795 C69.1058877,109.095 60.5317553,108.975 57.6737111,108.975 C55.0435908,108.975 54.2308626,110.571 54.1198997,110.823 C48.8866499,112.323 31.942317,117.147 29.932989,118.023 C27.5517854,119.064 26.2412237,129.351 26.2412237,129.351 C26.2412237,129.351 21.2658877,146.427 21.5028084,148.665 C21.7397292,150.903 19.8353661,157.137 19.8353661,157.137 C19.8353661,157.137 19.8353661,164.184 19.0286359,164.661 C19.0216627,164.667478 19.0135204,164.672568 19.0046439,164.676 C18.1709228,165.03 18.2878837,168.447 18.2878837,168.447 C18.2878837,168.447 18.902678,168.624 19.8593581,168.867 C19.6044433,170.592 18.6597593,173.007 17.931003,174.723 C17.5591274,174.252 17.1962487,174.057 16.980321,174.603 C16.3805216,176.103 7.45550652,186.705 5.19126379,186.705 C4.11462387,186.705 2.33321966,187.587 1.16061184,188.778 C-0.122958877,190.089 -0.668776329,191.772 1.26857573,193.065 Z M42.2198796,131.694 C52.3414945,132.636 63.1768706,130.977 63.1768706,130.977 C63.1768706,130.977 62.3431494,133.932 61.6293882,135.111 C60.9156269,136.29 58.8883049,143.004 58.8883049,144.411 C58.8883049,145.818 55.6733801,157.956 54.7226981,158.544 C54.3238315,158.793 53.9669509,159.411 53.6850451,160.044 C53.4346957,160.629075 53.2242836,161.230453 53.0552558,161.844 C53.0692511,162.15 53.0962421,162.441 53.1362287,162.717 C52.4254664,163.368 51.6727182,164.052 51.0039418,164.658 L51.0039418,164.658 C51.0039418,164.658 46.7453661,167.028 45.3058475,168.324 C43.866329,169.62 37.2085557,171.21 37.2085557,171.21 C35.5578012,171.920093 33.9549543,172.736816 32.4101605,173.655 C30.3438516,174.9 28.2775426,176.484 27.7377232,178.047 C27.9716449,175.413 28.3525176,172.242 28.6074323,170.226 L28.9853059,170.211 C32.3231896,170.004 31.8253561,166.818 31.6484152,166.029 C31.6244233,165.915 31.6064293,165.852 31.6064293,165.852 C33.9876329,163.26 39.3438415,143.952 38.6300802,141.822 C37.916319,139.692 39.2298796,137.817 39.5087864,137.817 C39.7876931,137.817 40.1775627,135.462 39.5837613,134.166 C38.9899599,132.87 42.2198796,131.694 42.2198796,131.694 Z M124.062508,79.728 L123.429719,79.884 L123.429719,79.749 C123.429719,79.749 123.660642,79.749 124.062508,79.728 L124.062508,79.728 Z M89.4660782,61.953 C89.3701103,62.073 89.2741424,62.187 89.1661785,62.298 L89.0432197,62.424 C89.0432197,62.205 89.0432197,61.983 89.0432197,61.77 C89.1871715,61.827 89.3251254,61.896 89.4660782,61.953 Z M77.5390672,84.807 L77.5810532,85.47 C77.5810532,85.47 77.5180742,85.875 77.3981143,86.568 L77.5390672,84.807 Z M132.255767,78.225 L130.177462,78.582 C130.477362,78.471 130.762267,78.351 131.044173,78.216 C131.253031,78.1181132 131.477282,78.0572104 131.706951,78.036 C131.969894,78.0639616 132.229209,78.1192603 132.480692,78.201 C132.405202,78.203061 132.329993,78.211086 132.255767,78.225 Z" id="Shape" fill="url(#linearGradient-1)" fill-rule="nonzero"></path>
                <path d="M61.9922668,163.269 C61.9922668,163.269 59.5930692,168.222 59.7160281,168.573 C59.838987,168.924 54.5727482,173.127 54.5727482,173.127 L48.847663,169.038 L49.4474624,166.23 C49.4474624,166.23 55.8743129,160.437 56.3451555,159.768 C56.815998,159.099 61.9922668,163.269 61.9922668,163.269 Z" id="Path" fill="#EFB7B9" fill-rule="nonzero"></path>
                <path d="M29.3331896,180.027 C33.3068606,183.885 37.9792979,182.727 40.2015547,182.484 C42.4238114,182.241 54.2788465,175.119 55.4184654,174.651 C55.7183651,174.525 56.0932397,174.117 56.4591174,173.589 L56.4591174,173.589 C57.2237154,172.406292 57.8945427,171.165498 58.4654463,169.878 C58.3874724,169.899 54.5007723,171.012 53.5201003,169.878 C53.5201003,169.878 51.8826479,167.871 51.5317653,167.871 C51.1808826,167.871 51.5047743,164.349 51.5047743,164.349 C51.5047743,164.349 47.3241725,166.701 45.9236409,167.988 C44.5231093,169.275 37.9762989,170.85 37.9762989,170.85 C36.3572242,171.554779 34.786344,172.365536 33.2738716,173.277 C30.1789067,175.167 27.0599498,177.834 29.3331896,180.027 Z" id="Path" fill="#67647E" fill-rule="nonzero"></path>
                <path d="M29.3331896,180.027 C33.3068606,183.885 37.9792979,182.727 40.2015547,182.484 C42.4238114,182.241 54.2788465,175.119 55.4184654,174.651 C55.7183651,174.525 56.0932397,174.117 56.4591174,173.589 C55.0765797,172.764 46.0436008,178.509 43.5154463,179.562 C40.9872919,180.615 34.5904313,180.027 30.9586459,178.509 C29.1592477,177.75 30.9826379,175.419 33.2678736,173.277 C30.1789067,175.167 27.0599498,177.834 29.3331896,180.027 Z" id="Path" fill="#000000" fill-rule="nonzero" opacity="0.1"></path>
                <path d="M29.8010331,167.871 C29.8010331,167.871 28.1365898,180.378 28.5594483,182.016 C28.9823069,183.654 18.1139418,176.406 18.1139418,176.406 C18.1139418,176.406 21.91667,168.567 20.8130391,166.767 C19.7094082,164.967 29.8010331,167.871 29.8010331,167.871 Z" id="Path" fill="#EFB7B9" fill-rule="nonzero"></path>
                <path d="M19.4005115,168.105 C19.4005115,168.105 26.1782447,170.091 29.914995,169.857 C33.1898997,169.653 32.7010632,166.491 32.5301204,165.708 C32.5061284,165.597 32.4881344,165.534 32.4881344,165.534 C34.8243531,162.96 40.0845938,143.79 39.3858275,141.687 C38.6870612,139.584 39.9556369,137.727 40.2555366,137.727 C40.5554363,137.727 40.912317,135.387 40.3275125,134.103 C39.7427081,132.819 42.900652,131.649 42.900652,131.649 C52.83333,132.582 63.4677733,130.935 63.4677733,130.935 C63.4677733,130.935 62.6490471,133.869 61.9472818,135.039 C61.2455165,136.209 59.2481846,142.869 59.2481846,144.273 C59.2481846,145.677 56.0932397,157.716 55.1575527,158.301 C54.767683,158.547 54.4168004,159.159 54.1408927,159.801 C53.894457,160.386315 53.6880508,160.987699 53.5230993,161.601 C53.8739819,169.434 62.754012,166.401 64.0405817,165.342 C64.2236844,165.189651 64.3905192,165.018739 64.5384152,164.832 C64.9896686,164.240189 65.2255877,163.512088 65.2071916,162.768 C65.2071916,162.768 76.777322,150.963 75.2568305,146.052 C73.736339,141.141 78.9965797,141.027 78.9965797,141.027 C78.9965797,141.027 87.0608826,137.52 88.1825075,135.414 C88.8752758,134.121 94.9212538,131.28 99.4737312,129.282 C102.325777,128.031 104.59002,127.116 104.59002,127.116 L102.694654,120.318 L101.195155,114.957 L98.3820963,113.901 L89.3851053,110.517 L73.2445035,108.252 L71.765998,108.444 L56.0842427,110.475 C56.0842427,110.475 33.1898997,117.027 30.850682,118.053 C28.5114644,119.079 27.2278937,129.294 27.2278937,129.294 C27.2278937,129.294 22.3215346,146.244 22.5614544,148.476 C22.8013741,150.708 20.924002,156.876 20.924002,156.876 C20.924002,156.876 20.924002,163.869 20.1292678,164.343 C20.1214407,164.345334 20.1131029,164.345334 20.1052758,164.343 C19.2835507,164.727 19.4005115,168.105 19.4005115,168.105 Z" id="Path" fill="#444053" fill-rule="nonzero"></path>
                <path d="M42.888656,131.634 C52.821334,132.567 63.4557773,130.92 63.4557773,130.92 C64.1575426,128.709 73.9792578,122.631 73.9792578,122.631 C65.9209529,120.645 42.888656,131.634 42.888656,131.634 Z" id="Path" fill="#000000" fill-rule="nonzero" opacity="0.1"></path>
                <path d="M53.5230993,161.559 C53.8739819,169.392 62.754012,166.359 64.0405817,165.3 C64.2236844,165.147651 64.3905192,164.976739 64.5384152,164.79 C61.4344534,165.933 55.9312939,166.818 54.1408927,159.771 C53.8949676,160.352412 53.688567,160.94977 53.5230993,161.559 L53.5230993,161.559 Z" id="Path" fill="#444053" fill-rule="nonzero"></path>
                <path d="M19.4005115,168.105 C19.4005115,168.105 26.1782447,170.091 29.914995,169.857 C33.1898997,169.653 32.7010632,166.491 32.5301204,165.708 C29.0992678,165.6 23.1912437,165.279 20.1232698,164.349 C20.1154427,164.351334 20.1071049,164.351334 20.0992778,164.349 C19.2835507,164.727 19.4005115,168.105 19.4005115,168.105 Z" id="Path" fill="#444053" fill-rule="nonzero"></path>
                <path d="M53.5230993,161.559 C53.8739819,169.392 62.754012,166.359 64.0405817,165.3 C64.2236844,165.147651 64.3905192,164.976739 64.5384152,164.79 C61.4344534,165.933 55.9312939,166.818 54.1408927,159.771 C53.8949676,160.352412 53.688567,160.94977 53.5230993,161.559 L53.5230993,161.559 Z" id="Path" fill="#000000" fill-rule="nonzero" opacity="0.1"></path>
                <path d="M19.4005115,168.105 C19.4005115,168.105 26.1782447,170.091 29.914995,169.857 C33.1898997,169.653 32.7010632,166.491 32.5301204,165.708 C29.0992678,165.6 23.1912437,165.279 20.1232698,164.349 C20.1154427,164.351334 20.1071049,164.351334 20.0992778,164.349 C19.2835507,164.727 19.4005115,168.105 19.4005115,168.105 Z" id="Path" fill="#000000" fill-rule="nonzero" opacity="0.1"></path>
                <path d="M2.6871013,192.537 C6.30988967,194.991 11.8040522,193.821 11.8040522,193.821 C11.8040522,193.821 20.0992778,189.849 22.5554564,189.849 C25.0116349,189.849 30.9586459,187.392 30.9586459,187.392 L30.7577131,185.739 L29.7920361,177.807 C29.7920361,177.807 20.6900802,177.573 20.3242026,176.754 C20.3242026,176.754 18.6897492,172.728 18.1049448,174.216 C17.5201404,175.704 8.75707121,186.216 6.53481444,186.216 C5.47616851,186.216 3.72775326,187.092 2.57913741,188.274 C1.32855567,189.585 0.791735206,191.253 2.6871013,192.537 Z" id="Path" fill="#67647E" fill-rule="nonzero"></path>
                <path d="M34.1225878,123.45 C34.1225878,123.45 41.7190471,128.25 39.6167503,129.294 C37.5144534,130.338 34.1225878,123.45 34.1225878,123.45 Z" id="Path" fill="#000000" fill-rule="nonzero" opacity="0.1"></path>
                <path d="M30.9586459,132.684 C30.9586459,132.684 37.5024574,138.9 35.0492778,139.065 C32.5960983,139.23 30.9586459,132.684 30.9586459,132.684 Z" id="Path" fill="#000000" fill-rule="nonzero" opacity="0.1"></path>
                <path d="M23.955988,152.427 C23.955988,152.427 27.2788766,158.676 26.0282949,159.759 C24.7777131,160.842 23.955988,152.427 23.955988,152.427 Z" id="Path" fill="#000000" fill-rule="nonzero" opacity="0.1"></path>
                <path d="M60.5347543,158.754 C59.3651454,159.921 71.6310431,154.896 68.8299799,154.662 C66.0289168,154.428 60.5347543,158.754 60.5347543,158.754 Z" id="Path" fill="#000000" fill-rule="nonzero" opacity="0.1"></path>
                <path d="M85.0725476,71.079 L85.4654162,71.022 C86.9169308,70.8 92.1861685,69.972 96.9125878,68.946 C98.0642026,68.694 99.1798295,68.433 100.211484,68.163 C103.831274,67.215 106.260461,66.192 104.70998,65.352 C102.658666,64.239 101.579027,62.217 101.009218,60.477 C100.955236,60.306 100.904253,60.141 100.856269,59.976 C100.604603,59.0951222 100.446777,58.1900883 100.385426,57.276 C100.385426,57.276 87.1898395,52.599 89.7509829,57.276 C91.0135607,59.571 90.1648445,61.443 88.9742427,62.754 C88.1556496,63.6206984 87.1926199,64.3383904 86.1281946,64.875 L85.0725476,71.079 Z" id="Path" fill="#EFB7B9" fill-rule="nonzero"></path>
                <path d="M99.2128185,67.455 C99.2128185,67.455 94.4893982,70.845 89.664012,68.04 C84.8386259,65.235 78.5287362,92.823 78.5287362,92.823 L71.9849248,108.954 C71.9849248,108.954 67.747342,112.461 73.0225777,113.982 C78.2978134,115.503 89.9998997,112.461 92.9719057,116.904 C95.9439117,121.347 101.57003,122.046 102.145838,122.046 C102.721645,122.046 104.946901,105.327 104.946901,105.327 L105.525707,81.129 L99.2128185,67.455 Z" id="Path" fill="#000000" fill-rule="nonzero" opacity="0.1"></path>
                <path d="M73.2445035,113.046 C78.5197392,114.564 90.2248245,111.525 93.1968305,115.968 C94.4490174,117.778277 96.1976456,119.187857 98.2321464,120.027 C99.5455479,120.616888 100.9466,120.98779 102.379759,121.125 C102.454734,121.125 102.565697,120.825 102.694654,120.288 C103.516379,116.904 105.180822,104.406 105.180822,104.406 L105.75663,80.208 L100.205486,68.163 L99.4467402,66.519 C98.7029462,67.0153961 97.8960404,67.4099032 97.0475426,67.692 C95.2211535,68.31 92.5790371,68.658 89.9039318,67.092 C88.4884052,66.27 86.9439218,68.064 85.4714142,71.01 C81.9206018,78.102 78.768656,91.875 78.768656,91.875 L72.2188465,108.027 C72.0631431,108.160689 71.9149654,108.302907 71.774995,108.453 C70.8453059,109.425 69.1028887,111.852 73.2445035,113.046 Z" id="Path" fill="#F3F5F9" fill-rule="nonzero"></path>
                <path d="M98.3880943,113.859 C98.1297616,115.900568 98.0775156,117.962964 98.2321464,120.015 C98.4212251,122.934592 98.7877806,125.839964 99.3297793,128.715 C99.3634679,128.895571 99.4116068,129.073143 99.4737312,129.246 C102.325777,127.995 104.59002,127.08 104.59002,127.08 L102.694654,120.282 C103.516379,116.898 105.180822,104.4 105.180822,104.4 L105.75663,80.202 L100.205486,68.163 C103.825276,67.215 106.254463,66.192 104.703982,65.352 C102.454734,64.131 101.372096,61.815 100.850271,59.976 C99.8994414,61.3019068 98.7861221,62.5032828 97.5363791,63.552 L97.4644032,63.612 L97.0445436,67.692 L96.9155868,68.946 L96.645677,71.547 C96.645677,71.547 97.9322467,102.291 98.8649348,104.046 C99.7976229,105.801 99.3327783,109.188 98.5170512,113.163 C98.4660682,113.388 98.4360782,113.619 98.3880943,113.859 Z" id="Path" fill="#000000" fill-rule="nonzero" opacity="0.1"></path>
                <path d="M98.9788967,112.695 C98.1631695,116.67 98.8619358,123.216 99.7976229,128.241 C100.73331,133.266 110.665988,129.996 112.537362,128.241 C114.408736,126.486 119.896901,125.67 119.896901,125.67 C119.896901,125.67 120.130822,102.759 121.885236,99.837 C122.715958,98.451 122.916891,93.927 122.895898,89.556 C122.880903,85.632 122.685968,81.831 122.613992,80.556 C122.595998,80.256 122.587001,80.091 122.587001,80.091 C122.587001,80.091 130.180461,67.233 130.063501,66.291 C129.94654,65.349 127.727282,65.241 127.727282,65.241 C127.727282,65.241 119.33009,58.695 117.911565,59.511 C116.493039,60.327 112.651324,58.227 112.651324,58.227 C112.651324,58.227 107.765958,58.782 106.755296,57.837 C106.630619,57.7306961 106.563833,57.5714698 106.575356,57.408 C106.689318,55.908 101.597021,52.716 101.438074,52.608 C105.732638,56.472 98.7899599,62.427 98.0012237,63.081 L97.9292477,63.141 L97.1105216,71.076 C97.1105216,71.076 98.3970913,101.82 99.3297793,103.575 C100.262467,105.33 99.7976229,108.72 98.9788967,112.695 Z" id="Path" fill="#67647E" fill-rule="nonzero"></path>
                <ellipse id="Oval" fill="#444053" fill-rule="nonzero" cx="99.4317452" cy="79.299" rx="1" ry="1"></ellipse>
                <path d="M98.2351454,63.552 L101.785958,66.987 L106.989218,58.287 C106.864541,58.1806961 106.797755,58.0214698 106.809278,57.858 C106.92324,56.358 101.827944,53.166 101.671996,53.058 C105.96656,56.943 99.0358776,62.898 98.2351454,63.552 Z" id="Path" fill="#000000" fill-rule="nonzero" opacity="0.1"></path>
                <ellipse id="Oval" fill="#000000" fill-rule="nonzero" opacity="0.1" cx="100.601354" cy="98.001" rx="1" ry="1"></ellipse>
                <ellipse id="Oval" fill="#444053" fill-rule="nonzero" cx="100.601354" cy="97.767" rx="1" ry="1"></ellipse>
                <path d="M98.0012237,63.084 L101.552036,66.519 L106.755296,57.819 C106.630619,57.7126961 106.563833,57.5534698 106.575356,57.39 C106.689318,55.89 101.597021,52.698 101.438074,52.59 C105.732638,56.475 98.7899599,62.427 98.0012237,63.084 Z" id="Path" fill="#67647E" fill-rule="nonzero"></path>
                <path d="M95.0247559,78.7121997 L102.138037,78.7121997 C102.419701,78.7122036 102.648035,78.9405361 102.648041,79.2221998 L102.648165,95.3922589 C102.648171,95.6739241 102.419838,95.9022607 102.138172,95.9022628 C102.138171,95.9022628 102.13817,95.9022628 102.138168,95.9022589 L95.0248873,95.9022589 C94.7432236,95.902255 94.5148894,95.6739226 94.5148834,95.3922589 L94.5147598,79.2221998 C94.5147537,78.9405345 94.7430868,78.712198 95.024752,78.7121959 C95.0247533,78.7121959 95.0247546,78.7121959 95.0247559,78.7121997 Z" id="Rectangle" fill="#D1D9EC" fill-rule="nonzero" transform="translate(98.581462, 87.307229) rotate(-178.690000) translate(-98.581462, -87.307229) "></path>
                <path d="M95.0663955,79.0922698 L102.179677,79.0922698 C102.46134,79.0922737 102.689675,79.3206061 102.689681,79.6022698 L102.689804,95.7723289 C102.68981,96.0539941 102.461477,96.2823307 102.179812,96.2823328 C102.179811,96.2823328 102.179809,96.2823328 102.179808,96.2823289 L95.0665269,96.2823289 C94.7848632,96.282325 94.556529,96.0539926 94.556523,95.7723289 L94.5563994,79.6022698 C94.5563933,79.3206045 94.7847264,79.092268 95.0663916,79.0922659 C95.0663929,79.0922659 95.0663942,79.0922659 95.0663955,79.0922698 Z" id="Rectangle" fill="#DFE6F5" fill-rule="nonzero" transform="translate(98.623102, 87.687299) rotate(-178.690000) translate(-98.623102, -87.687299) "></path>
                <ellipse id="Oval" fill="#FFFFFF" fill-rule="nonzero" cx="98.8349448" cy="84.129" rx="1.27757272" ry="1.278"></ellipse>
                <path d="M54.80667,111.642 C57.7276931,112.929 76.8942828,109.542 79.698345,108.72 C82.5024072,107.898 86.5960381,101.589 84.6077031,97.02 C82.6193681,92.451 85.3064694,88.02 85.3064694,88.02 C85.3064694,88.02 89.5050652,79.02 90.4497492,77.265 C91.3944333,75.51 93.3347844,70.407 93.6046941,69.552 C93.6268289,69.3578365 93.5670539,69.163231 93.4397492,69.015 C92.678004,67.866 89.738987,65.82 89.738987,65.82 C88.9142628,66.12 88.8122969,63.753 88.8392879,62.016 C88.8572818,61.044 88.9142628,60.27 88.9142628,60.27 C88.9142628,60.27 88.5273922,60.663 87.8946038,61.2 C87.663681,61.395 87.3997693,61.611 87.1058676,61.833 C86.0100122,62.7112119 84.7699898,63.3923357 83.4410933,63.846 C80.6370311,64.677 76.6633601,68.508 76.6633601,68.508 L77.8329689,86.46 C77.8329689,86.46 75.1338716,103.344 72.3388064,106.617 C69.5437412,109.89 61.1195587,109.773 58.3154965,109.773 C55.5114343,109.773 54.80667,111.642 54.80667,111.642 Z" id="Path" fill="#000000" fill-rule="nonzero" opacity="0.1"></path>
                <path d="M54.5727482,110.943 C57.4937713,112.227 76.6603611,108.843 79.4644233,108.018 C82.2684855,107.193 86.3621163,100.887 84.3737813,96.318 C82.3854463,91.749 85.0725476,87.318 85.0725476,87.318 C85.0725476,87.318 89.2711434,78.318 90.2158275,76.563 C91.1605115,74.808 93.1008626,69.705 93.3707723,68.85 C93.3925382,68.6558708 93.3328076,68.4614098 93.2058275,68.313 C92.4380843,67.167 89.5140622,65.127 89.5140622,65.127 C88.689338,65.427 88.5873721,63.063 88.6143631,61.326 C88.6323571,60.351 88.689338,59.577 88.689338,59.577 C88.689338,59.577 88.3024674,59.97 87.669679,60.51 C87.4387563,60.702 87.1748445,60.918 86.8809428,61.14 C85.7796523,62.0200328 84.5333993,62.7012344 83.1981745,63.153 C80.3941123,63.984 76.4204413,67.815 76.4204413,67.815 L77.5900502,85.767 C77.5900502,85.767 74.8909529,102.651 72.0958877,105.924 C69.3008225,109.197 60.8796389,109.08 58.0725777,109.08 C55.2655165,109.08 54.5727482,110.943 54.5727482,110.943 Z" id="Path" fill="#67647E" fill-rule="nonzero"></path>
                <path d="M86.3591174,60.027 C86.3591174,60.027 86.4700802,60.642 86.6590171,61.59 C87.2888064,64.8 88.7883049,71.808 89.8709428,71.538 C90.647683,71.343 91.9702407,69.969 92.9779037,68.781 C92.2191575,67.623 89.2861384,65.577 89.2861384,65.577 C88.4614142,65.877 88.3594483,63.513 88.3864393,61.776 L87.4417553,60.96 L86.3591174,60.027 Z" id="Path" fill="#000000" fill-rule="nonzero" opacity="0.1"></path>
                <path d="M86.5930391,59.568 C86.5930391,59.568 86.704002,60.183 86.8929388,61.131 C87.5227282,64.341 89.0222267,71.349 90.1048646,71.079 C90.8816048,70.884 92.2041625,69.51 93.2118255,68.322 C92.4380843,67.167 89.5140622,65.127 89.5140622,65.127 C88.689338,65.427 88.5873721,63.063 88.6143631,61.326 L87.669679,60.51 L86.5930391,59.568 Z" id="Path" fill="#67647E" fill-rule="nonzero"></path>
                <path d="M79.1135406,93.99 C79.1135406,93.99 84.9585858,92.823 86.5930391,90.252 C88.2274925,87.681 99.3597693,85.452 97.9892277,88.152 C96.6186861,90.852 86.5930391,99.639 86.5930391,99.639 L82.2414945,105.87 L76.4294383,104.394 L73.9792578,99.627 L79.1135406,93.99 Z" id="Path" fill="#EFB7B9" fill-rule="nonzero"></path>
                <path d="M92.9389168,100.662 C92.9389168,100.662 87.2798094,102.762 86.4280943,105.57 C85.5763791,108.378 92.9389168,100.662 92.9389168,100.662 Z" id="Path" fill="#000000" fill-rule="nonzero" opacity="0.1"></path>
                <path d="M96.4087563,103.929 C96.4087563,103.929 96.9245838,106.848 89.8319559,106.629 L96.4087563,103.929 Z" id="Path" fill="#000000" fill-rule="nonzero" opacity="0.1"></path>
                <path d="M127.025517,66.519 L129.598656,66.285 C129.598656,66.285 132.402718,68.385 134.505015,68.385 C136.607312,68.385 137.893882,71.085 137.893882,71.085 C137.893882,71.085 141.399709,72.723 142.569318,72.957 C143.738927,73.191 145.724263,74.358 145.139458,74.826 C144.554654,75.294 145.256419,76.347 146.309067,77.163 C147.361715,77.979 149.008164,82.191 147.592638,82.776 C146.177111,83.361 142.335396,84.528 141.294744,85.113 C140.254092,85.698 138.958526,85.113 138.958526,85.113 C138.958526,85.113 132.768596,77.046 129.610652,78.567 C126.452708,80.088 122.128154,80.079 122.128154,80.079 L118.739288,72.951 L127.025517,66.519 Z" id="Path" fill="#000000" fill-rule="nonzero" opacity="0.1"></path>
                <path d="M73.2445035,104.985 C73.796319,105.807 74.5100802,106.383 75.4247743,106.5 C77.7121096,106.76749 80.0300926,106.552884 82.2294985,105.87 C82.2294985,105.87 70.4584353,102.129 81.7916449,93.033 L78.762658,93.033 L77.742999,92.649 L78.2048445,90.228 L78.8706219,68.391 L76.4174423,67.806 C76.4174423,67.806 74.4411033,82.185 73.9702608,83.937 C73.4994183,85.689 73.1455366,92.472 73.1455366,92.472 C73.1455366,92.472 72.6776931,95.277 71.9759278,96.672 C71.4451053,97.734 71.5920562,102.489 73.2445035,104.985 Z" id="Path" fill="#67647E" fill-rule="nonzero"></path>
                <path d="M73.721344,104.985 C74.2701605,105.807 74.9869208,106.383 75.9016148,106.5 C78.1889502,106.76749 80.5069331,106.552884 82.706339,105.87 C82.706339,105.87 70.9352758,102.129 82.2684855,93.027 L79.2424975,93.027 L78.2318355,92.643 C76.5434002,95.598 73.9342728,100.845 73.721344,104.985 Z" id="Path" fill="#000000" fill-rule="nonzero" opacity="0.1"></path>
                <path d="M73.2445035,104.985 C73.796319,105.807 74.5100802,106.383 75.4247743,106.5 C77.7121096,106.76749 80.0300926,106.552884 82.2294985,105.87 C82.2294985,105.87 70.4584353,102.129 81.7916449,93.033 L78.762658,93.033 L77.742999,92.649 C76.0875527,95.598 73.4664293,100.845 73.2445035,104.985 Z" id="Path"></path>
                <path d="M73.2445035,104.985 C73.796319,105.807 74.5100802,106.383 75.4247743,106.5 C77.7121096,106.76749 80.0300926,106.552884 82.2294985,105.87 C82.2294985,105.87 70.4584353,102.129 81.7916449,93.033 L78.762658,93.033 L77.742999,92.649 C76.0875527,95.598 73.4664293,100.845 73.2445035,104.985 Z" id="Path" fill="#67647E" fill-rule="nonzero"></path>
                <path d="M88.9712437,62.763 C93.0629339,64.6200369 97.8797849,63.7050935 101.006219,60.477 C100.952237,60.306 100.901254,60.141 100.85327,59.976 C100.601604,59.0951222 100.443778,58.1900883 100.382427,57.276 C100.382427,57.276 87.1868405,52.599 89.747984,57.276 C91.0105617,59.58 90.1618455,61.452 88.9712437,62.763 Z" id="Path" fill="#000000" fill-rule="nonzero" opacity="0.1"></path>
                <path d="M82.736329,52.608 L82.736329,52.713 C82.736329,53.058 82.760321,53.4 82.7963089,53.736 C82.8322969,54.072 82.8802808,54.378 82.9402608,54.693 C83.8830834,59.4051236 87.8661002,62.9003469 92.6593172,63.2217795 C97.4525341,63.5432121 101.866281,60.6110749 103.429408,56.067 C103.501384,55.86 103.564363,55.653 103.621344,55.443 C103.87778,54.5198997 104.006932,53.5660787 104.005233,52.608 C104.005233,52.365 104.005233,52.119 103.978225,51.879 C103.571191,46.1710981 98.7232384,41.8079802 93.0061091,42.0041862 C87.2889797,42.2003921 82.7513487,46.8856136 82.736329,52.608 L82.736329,52.608 Z" id="Path" fill="#EFB7B9" fill-rule="nonzero"></path>
                <path d="M82.736329,52.713 C82.794507,53.0506828 82.8146262,53.3938292 82.7963089,53.736 C82.7927526,53.9214842 82.802776,54.10698 82.8262989,54.291 C82.8462694,54.4294684 82.8845939,54.5646578 82.9402608,54.693 C83.3691174,55.701 84.7726479,56.355 85.699338,55.704 C86.0561481,55.411539 86.3396096,55.0396283 86.5270612,54.618 C87.5107322,52.791 88.8752758,50.691 91.0255567,50.655 C91.9432497,50.637 92.8039619,51.024 93.691665,51.255 C94.5793681,51.486 95.6290171,51.507 96.2887964,50.904 C96.7986259,50.439 97.0385456,49.647 97.719318,49.485 C98.4000903,49.323 99.0298796,49.947 99.3417753,50.559 C99.653671,51.171 99.9025878,51.891 100.541374,52.209 C100.82328,52.347 101.141174,52.389 101.441073,52.539 C102.712648,53.235 102.127844,55.674 103.447402,56.07 C103.488665,56.0828251 103.530747,56.0928479 103.57336,56.1 C103.594353,55.884 103.618345,55.662 103.639338,55.446 C103.759298,54.258 103.878258,53.07 103.996219,51.882 C103.589185,46.1740981 98.7412324,41.8109802 93.024103,42.0071862 C87.3069737,42.2033921 82.7693427,46.8886136 82.754323,52.611 L82.736329,52.713 Z" id="Path" fill="#000000" fill-rule="nonzero" opacity="0.1"></path>
                <path d="M101.627011,36.729 C102.877593,37.26 104.179157,38.076 104.458064,39.351 C104.581023,39.912 104.488054,40.494 104.518044,41.064 C104.578024,42.216 105.117844,43.284 105.474724,44.388 C105.831605,45.492 105.951565,46.788 105.249799,47.718 C105.030873,48.018 104.73997,48.255 104.542036,48.561 C104.283888,49.0432697 104.144088,49.5800351 104.134173,50.127 L103.555366,55.881 C102.073862,55.602 102.733641,53.031 101.42008,52.317 C101.147172,52.167 100.820281,52.125 100.535376,51.984 C99.9025878,51.684 99.65667,50.949 99.3357773,50.337 C99.0148847,49.725 98.4060883,49.098 97.71332,49.263 C97.0205517,49.428 96.7926279,50.22 96.2857974,50.682 C95.6230191,51.282 94.5703711,51.258 93.685667,51.033 C92.8009629,50.808 91.9372518,50.433 91.0225577,50.433 C88.8692778,50.469 87.5017352,52.569 86.5240622,54.396 C86.3358619,54.8188507 86.0513729,55.1917895 85.69334,55.485 C84.6496891,56.217 82.9942427,55.293 82.8232999,54.069 C82.721334,53.382 82.9372618,52.617 82.5413942,52.035 C82.1455266,51.453 81.2878134,51.33 80.6190371,51.018 C78.9096088,50.232 78.3817854,48.099 78.6636911,46.311 C78.8706219,45.021 79.3834504,43.695 78.9635908,42.453 C78.8166399,42.024 78.5677232,41.634 78.4327683,41.205 C78.0578937,40.005 78.6696891,38.673 79.6323671,37.818 C80.5950451,36.963 81.8576229,36.492 83.0992076,36.078 C86.2871414,35.007 89.6340221,33.978 93.0258877,33.756 C94.5103912,33.66 96.4567402,33.195 97.635346,34.122 C99.0358776,35.196 99.8995888,35.997 101.627011,36.729 Z" id="Path" fill="#585268" fill-rule="nonzero"></path>
                <ellipse id="Oval" fill="#000000" fill-rule="nonzero" opacity="0.1" cx="98.8469408" cy="70.062" rx="1" ry="1"></ellipse>
                <ellipse id="Oval" fill="#444053" fill-rule="nonzero" cx="98.8469408" cy="69.828" rx="1" ry="1"></ellipse>
                <ellipse id="Oval" fill="#000000" fill-rule="nonzero" opacity="0.1" cx="102.58669" cy="106.77" rx="1" ry="1"></ellipse>
                <ellipse id="Oval" fill="#444053" fill-rule="nonzero" cx="102.58669" cy="106.536" rx="1" ry="1"></ellipse>
                <ellipse id="Oval" fill="#000000" fill-rule="nonzero" opacity="0.1" cx="100.601354" cy="116.472" rx="1" ry="1"></ellipse>
                <ellipse id="Oval" fill="#444053" fill-rule="nonzero" cx="100.601354" cy="116.238" rx="1" ry="1"></ellipse>
                <path d="M80.5170712,79.299 C80.5170712,79.299 79.2305015,88.029 80.5170712,89.55 C81.8036409,91.071 80.5170712,79.299 80.5170712,79.299 Z" id="Path" fill="#000000" fill-rule="nonzero" opacity="0.1"></path>
                <path d="M118.730291,95.511 C118.730291,95.511 121.18347,100.8 118.730291,105.87 C116.277111,110.94 114.75662,113.001 115.575346,116.238 C116.394072,119.475 118.730291,95.511 118.730291,95.511 Z" id="Path" fill="#000000" fill-rule="nonzero" opacity="0.1"></path>
                <path d="M2.6871013,192.537 C6.30988967,194.991 11.8040522,193.821 11.8040522,193.821 C11.8040522,193.821 20.0992778,189.849 22.5554564,189.849 C25.0116349,189.849 30.9586459,187.392 30.9586459,187.392 L30.7577131,185.739 C28.3375226,186.204 22.8313641,187.317 22.1955767,187.86 C21.3768506,188.562 11.3272116,191.952 11.3272116,191.952 C11.3272116,191.952 4.4835005,191.097 2.57913741,188.283 C1.32855567,189.585 0.791735206,191.253 2.6871013,192.537 Z" id="Path" fill="#000000" fill-rule="nonzero" opacity="0.1"></path>
                <g id="Group" opacity="0.1" transform="translate(78.273821, 39.600000)" fill="#000000" fill-rule="nonzero">
                    <path d="M26.2442227,0.528 C26.2442227,0.402 26.2442227,0.276 26.2442227,0.147 C26.2442227,0.294 26.2442227,0.447 26.2442227,0.585 C26.2502207,0.567 26.2442227,0.549 26.2442227,0.528 Z" id="Path"></path>
                    <path d="M2.34821464,10.473 C3.01699097,10.773 3.84771314,10.893 4.27057172,11.487 C4.69343029,12.081 4.45051153,12.834 4.55247743,13.521 C4.72941825,14.745 6.3788666,15.672 7.42251755,14.937 C7.78055043,14.6437895 8.06503948,14.2708507 8.25323972,13.848 C9.23391174,12.021 10.6014544,9.921 12.7517352,9.885 C13.6694283,9.87 14.5301404,10.257 15.4178435,10.485 C16.3055466,10.713 17.3551956,10.737 18.0179739,10.134 C18.5248044,9.672 18.7647242,8.877 19.4454965,8.715 C20.1262688,8.553 20.7530592,9.177 21.0679539,9.789 C21.3828485,10.401 21.6287663,11.121 22.2675527,11.439 C22.5494584,11.577 22.8673521,11.619 23.1522568,11.769 C24.4658175,12.486 23.8060381,15.069 25.2875426,15.333 C25.4874758,13.413 25.6804112,11.495 25.866349,9.579 C25.8786419,9.03808408 26.0183845,8.50770687 26.2742126,8.031 C26.4721464,7.731 26.7630491,7.479 26.9819759,7.185 C27.2469551,6.82191896 27.4123773,6.39581428 27.4618154,5.949 C27.5860141,6.7077595 27.4142485,7.48525872 26.9819759,8.121 C26.7630491,8.421 26.4721464,8.658 26.2742126,8.964 C26.0144365,9.44484976 25.8725873,9.98056113 25.8603511,10.527 C25.6604179,12.445 25.4674824,14.363 25.2815446,16.281 C23.8000401,16.002 24.4598195,13.431 23.1462588,12.717 C22.8733501,12.567 22.5464594,12.525 22.2615547,12.384 C21.6287663,12.084 21.3828485,11.349 21.0619559,10.737 C20.7410632,10.125 20.1322668,9.498 19.4394985,9.663 C18.7467302,9.828 18.5188064,10.62 18.0119759,11.082 C17.3491976,11.682 16.2965496,11.658 15.4118455,11.433 C14.5271414,11.208 13.6634303,10.833 12.7457372,10.833 C10.5954564,10.869 9.22791374,12.969 8.24724173,14.796 C8.05904149,15.2188507 7.77455244,15.5917895 7.41651956,15.885 C6.37286861,16.617 4.71742227,15.693 4.54647944,14.469 C4.44451354,13.782 4.66044132,13.017 4.26457372,12.435 C3.86870612,11.853 3.01099298,11.73 2.34221665,11.418 C0.779739218,10.698 0.203931795,8.853 0.335887663,7.176 C0.455847543,8.547 1.07364092,9.885 2.34821464,10.473 Z" id="Path"></path>
                    <path d="M0.161945838,0.657 C0.296900702,1.086 0.545817452,1.479 0.692768305,1.905 C0.847550957,2.40240668 0.892572448,2.92749189 0.824724173,3.444 C0.80138015,3.24000987 0.757163074,3.03895594 0.692768305,2.844 C0.545817452,2.415 0.296900702,2.025 0.161945838,1.596 C0.0435118378,1.20004976 0.0198826976,0.78177687 0.0929689067,0.375 C0.110391446,0.470276397 0.133423855,0.564440333 0.161945838,0.657 Z" id="Path"></path>
                </g>
                <path d="M144.362718,136.542 L120.274774,133.527 C119.928455,133.484054 119.636173,133.248937 119.519929,132.919786 C119.403685,132.590636 119.483461,132.224033 119.725958,131.973 L129.829579,121.473 C130.028298,121.266012 130.312349,121.163897 130.597322,121.197 L149.014162,123.261 C149.297968,123.292884 149.550915,123.454709 149.698885,123.699058 C149.846855,123.943407 149.873092,124.242612 149.76991,124.509 L145.337392,135.966 C145.181963,136.357994 144.78094,136.594985 144.362718,136.542 Z" id="Path" fill="#746D83" fill-rule="nonzero"></path>
                <path d="M144.362718,136.542 L120.274774,133.527 C119.928455,133.484054 119.636173,133.248937 119.519929,132.919786 C119.403685,132.590636 119.483461,132.224033 119.725958,131.973 L129.829579,121.473 C130.028298,121.266012 130.312349,121.163897 130.597322,121.197 L149.014162,123.261 C149.297968,123.292884 149.550915,123.454709 149.698885,123.699058 C149.846855,123.943407 149.873092,124.242612 149.76991,124.509 L145.337392,135.966 C145.181963,136.357994 144.78094,136.594985 144.362718,136.542 Z" id="Path" fill="#000000" fill-rule="nonzero" opacity="0.1"></path>
                <path d="M144.089809,136.272 L120.004865,133.245 C119.65859,133.200768 119.366824,132.965035 119.250741,132.635705 C119.134657,132.306375 119.21409,131.939713 119.456048,131.688 L129.559669,121.188 C129.758849,120.981496 130.042174,120.878535 130.327412,120.909 L148.741254,122.973 C149.025808,123.00493 149.279469,123.167066 149.427996,123.411952 C149.576523,123.656839 149.603119,123.956785 149.5,124.224 L145.064483,135.681 C144.913424,136.0782 144.511716,136.321778 144.089809,136.272 Z" id="Path" fill="#746D83" fill-rule="nonzero"></path>
                <path d="M129.73661,125.301 L136.970191,125.883 L147.28674,125.211 L147.109799,125.211 L137.551996,124.287 C135.362728,123.483 136.880221,118.749 136.880221,118.749 L129.559669,119.121 L128.974865,119.151 C126.38673,125.211 129.73661,125.301 129.73661,125.301 Z" id="Path" fill="#D1D9EC" fill-rule="nonzero"></path>
                <path d="M129.73661,125.301 L136.970191,125.883 L147.28674,125.211 L147.109799,125.211 L136.679288,125.583 L129.691625,124.824 C127.706289,124.302 128.842909,120.858 129.559669,119.124 L128.974865,119.154 C126.38673,125.211 129.73661,125.301 129.73661,125.301 Z" id="Path" fill="#000000" fill-rule="nonzero" opacity="0.1"></path>
                <path d="M117.065848,82.272 L119.279107,114.027 L119.579007,118.194 C119.641131,119.149134 120.439636,119.888591 121.396399,119.877134 L122.068175,119.877134 L155.387031,119.676 C155.649773,119.673013 155.899236,119.560001 156.074792,119.36443 C156.250348,119.168859 156.335924,118.908635 156.310722,118.647 L156.010822,114.477 L153.665607,86.553 C153.590875,85.8094818 153.091049,85.1771708 152.385035,84.933 L120.628656,80.169 C119.549017,79.794 118.448385,79.926 117.761615,80.499 C117.247623,80.9362327 116.986457,81.6017543 117.065848,82.272 L117.065848,82.272 Z" id="Path" fill="#4C4C56" fill-rule="nonzero"></path>
                <path d="M119.279107,114.027 L119.579007,118.194 C119.641131,119.149134 120.439636,119.888591 121.396399,119.877 L122.068175,119.877 L155.387031,119.676 C155.649773,119.673013 155.899236,119.560001 156.074792,119.36443 C156.250348,119.168859 156.335924,118.908635 156.310722,118.647 L156.010822,114.477 L119.279107,114.027 Z" id="Path" fill="#DFE6F5" fill-rule="nonzero"></path>
                <ellipse id="Oval" fill="#FFFFFF" fill-rule="nonzero" cx="141.615637" cy="117.483" rx="1" ry="1"></ellipse>
                <path d="M140.32007,129.366 C140.32007,129.366 131.209117,125.925 128.752939,128.427 C128.752939,128.427 128.351073,129.189 130.003521,129.366 L136.679288,129.903 C136.679288,129.903 139.426369,130.17 140.32007,129.366 Z" id="Path" fill="#D1D9EC" fill-rule="nonzero"></path>
                <path d="M140.077151,128.472 C138.277753,127.74 132.900552,125.847 129.451705,127.941 C129.451705,127.941 133.266429,127.518 135.362728,128.73 C137.459027,129.942 140.32007,129.366 140.32007,129.366 L140.362056,129.291 C140.44319,129.146396 140.458451,128.973934 140.40397,128.817322 C140.34949,128.66071 140.230498,128.534981 140.077151,128.472 L140.077151,128.472 Z" id="Path" fill="#DFE6F5" fill-rule="nonzero"></path>
                <path d="M117.065848,82.272 L119.567011,118.2 C119.629135,119.155134 120.42764,119.894591 121.384403,119.883134 L122.056179,119.883134 C121.595934,119.443634 121.203752,118.938076 120.892568,118.383 C120.892568,118.383 118.436389,82.281 118.256449,81.387 C118.17761,81.0523362 118.006114,80.7466604 117.761615,80.505 C117.249513,80.9409925 116.988541,81.603769 117.065848,82.272 Z" id="Path" fill="#DFE6F5" fill-rule="nonzero"></path>
                <path d="M117.065848,82.272 L119.567011,118.2 C119.629135,119.155134 120.42764,119.894591 121.384403,119.883134 L122.056179,119.883134 C121.595934,119.443634 121.203752,118.938076 120.892568,118.383 C120.892568,118.383 118.436389,82.281 118.256449,81.387 C118.17761,81.0523362 118.006114,80.7466604 117.761615,80.505 C117.249513,80.9409925 116.988541,81.603769 117.065848,82.272 Z" id="Path" fill="#000000" fill-rule="nonzero" opacity="0.1"></path>
                <path d="M112.768285,92.232 C115.467382,91.632 121.765276,89.784 121.765276,89.784 L122.892899,89.556 C122.877904,85.632 122.682969,81.831 122.610993,80.556 L122.584002,80.556 C122.584002,80.556 117.2068,82.311 115.92323,83.256 C114.639659,84.201 110.662989,83.955 110.662989,83.955 C110.662989,83.955 104.473059,84.288 99.3357773,90.027 C94.1984955,95.766 110.081184,92.823 112.768285,92.232 Z" id="Path" fill="#000000" fill-rule="nonzero" opacity="0.1"></path>
                <path d="M139.036499,81.801 C139.524793,82.024311 139.864269,82.482772 139.935507,83.0151058 C140.006745,83.5474396 139.799767,84.0790774 139.387382,84.423 C137.962859,85.602 135.884554,87.012 133.899218,87.21 C130.600321,87.543 122.622989,89.142 121.831254,89.31 C121.788641,89.3171521 121.746559,89.3271749 121.705296,89.34 C121.048516,89.532 115.302437,91.215 112.768285,91.77 C110.069188,92.37 94.1745035,95.283 99.3297793,89.556 C104.062197,84.282 109.685316,83.556 110.552026,83.487 C110.620874,83.4810376 110.690109,83.4810376 110.758957,83.487 C111.358756,83.514 114.753621,83.631 115.926229,82.782 C116.537029,82.3986742 117.183903,82.0761336 117.857583,81.819 C120.398671,80.767181 123.049207,80.0024444 125.75994,79.539 L131.257101,78.579 C131.570054,78.5250831 131.891989,78.5669068 132.180792,78.699 L139.036499,81.801 Z" id="Path" fill="#EFB7B9" fill-rule="nonzero"></path>
                <path d="M127.49336,66.519 L130.063501,66.285 C130.063501,66.285 132.870562,68.385 134.972859,68.385 C137.075155,68.385 138.361725,71.085 138.361725,71.085 C138.361725,71.085 141.867553,72.723 143.037161,72.957 C144.20677,73.191 146.192106,74.358 145.607302,74.826 C145.022497,75.294 145.724263,76.347 146.776911,77.163 C147.829559,77.979 149.476008,82.191 148.060481,82.776 C146.644955,83.361 142.80324,84.528 141.762588,85.113 C140.721936,85.698 139.426369,85.113 139.426369,85.113 C139.426369,85.113 133.224443,77.04 130.066499,78.561 C126.908556,80.082 122.587001,80.079 122.587001,80.079 L119.198134,72.951 L127.49336,66.519 Z" id="Path" fill="#67647E" fill-rule="nonzero"></path>
                <path d="M281.374895,213.519 C281.087107,213.91291 280.857807,214.346401 280.694122,214.806 C280.649137,214.917 280.61015,215.046 280.568164,215.169 C280.49188,215.133923 280.412584,215.105809 280.331244,215.085 C279.981677,214.996675 279.620001,214.966272 279.260602,214.995 C279.260602,214.854 279.260602,214.71 279.281595,214.554 C279.323581,212.973 279.137643,210.771 277.632146,211.704 C276.183631,212.604 277.215286,214.104 278.147974,215.064 L278.387894,215.301 C277.539178,215.901 277.377232,217.32 277.23328,218.793 C277.089328,220.266 275.841745,221.877 275.014022,222.792 C274.93005,222.888 274.852076,222.969 274.7801,223.047 C274.104612,222.508976 273.232486,222.283238 272.380903,222.426 L272.26994,222.021 C271.598164,219.594 270.203631,215.391 268.425226,214.47 C268.500201,214.377 268.578175,214.281 268.659147,214.17 C269.414895,213.183 270.263611,211.713 269.007031,211.338 C267.750451,210.963 267.639488,212.613 267.708465,213.846 C267.708465,214.002 267.720461,214.149 267.744453,214.287 C267.235829,214.310046 266.759352,214.542393 266.427894,214.929 L266.235958,214.698 C265.216299,213.498 263.344925,211.587 262.781113,213.03 C262.25329,214.374 263.899739,216.12 265.057352,217.131 L265.129328,217.194 C264.349589,220.347 267.744453,222.918 269.570843,224.043 L269.804764,224.187 C267.285607,227.157 265.732126,232.725 265.732126,232.725 L272.785767,233.985 C272.785767,233.985 277.461204,229.947 276.864403,226.155 L276.912387,226.155 C281.584824,225.219 282.649468,220.233 281.920712,217.275 L282.004684,217.239 C282.85515,216.889644 283.600261,216.325197 284.166961,215.601 C285.459529,213.786 282.715446,211.734 281.374895,213.519 Z" id="Path" fill="#57B99B" fill-rule="nonzero"></path>
                <path d="M281.374895,213.519 C281.087107,213.91291 280.857807,214.346401 280.694122,214.806 C280.649137,214.917 280.61015,215.046 280.568164,215.169 C280.49188,215.133923 280.412584,215.105809 280.331244,215.085 C279.981677,214.996675 279.620001,214.966272 279.260602,214.995 C279.260602,214.854 279.260602,214.71 279.281595,214.554 C279.323581,212.973 279.137643,210.771 277.632146,211.704 C276.183631,212.604 277.215286,214.104 278.147974,215.064 L278.387894,215.301 C277.539178,215.901 277.377232,217.32 277.23328,218.793 C277.089328,220.266 275.841745,221.877 275.014022,222.792 C274.93005,222.888 274.852076,222.969 274.7801,223.047 C274.104612,222.508976 273.232486,222.283238 272.380903,222.426 L272.26994,222.021 C271.598164,219.594 270.203631,215.391 268.425226,214.47 C268.500201,214.377 268.578175,214.281 268.659147,214.17 C269.414895,213.183 270.263611,211.713 269.007031,211.338 C267.750451,210.963 267.639488,212.613 267.708465,213.846 C267.708465,214.002 267.720461,214.149 267.744453,214.287 C267.235829,214.310046 266.759352,214.542393 266.427894,214.929 L266.235958,214.698 C265.216299,213.498 263.344925,211.587 262.781113,213.03 C262.25329,214.374 263.899739,216.12 265.057352,217.131 L265.129328,217.194 C264.349589,220.347 267.744453,222.918 269.570843,224.043 L269.804764,224.187 C267.285607,227.157 265.732126,232.725 265.732126,232.725 L272.785767,233.985 C272.785767,233.985 277.461204,229.947 276.864403,226.155 L276.912387,226.155 C281.584824,225.219 282.649468,220.233 281.920712,217.275 L282.004684,217.239 C282.85515,216.889644 283.600261,216.325197 284.166961,215.601 C285.459529,213.786 282.715446,211.734 281.374895,213.519 Z" id="Path" fill="#000000" fill-rule="nonzero" opacity="0.1"></path>
                <path d="M267.330592,215.553 L266.505868,217.968 C266.505868,217.968 266.05002,217.644 265.471214,217.134 C264.313601,216.123 262.667151,214.377 263.194975,213.033 C263.758786,211.59 265.63016,213.495 266.649819,214.701 C267.060682,215.181 267.330592,215.553 267.330592,215.553 Z" id="Path" fill="#57B99B" fill-rule="nonzero"></path>
                <path d="M269.079007,214.173 C268.826716,214.505554 268.556401,214.824031 268.269278,215.127 C268.19712,214.706001 268.148063,214.281365 268.122327,213.855 C268.05335,212.622 268.182307,210.978 269.420893,211.347 C270.659478,211.716 269.828756,213.186 269.079007,214.173 Z" id="Path" fill="#57B99B" fill-rule="nonzero"></path>
                <path d="M279.710451,214.554 C279.68346,215.349 279.605486,215.985 279.605486,215.985 C279.242589,215.701128 278.898947,215.39345 278.57683,215.064 C277.644142,214.098 276.612487,212.601 278.061003,211.704 C279.575496,210.771 279.752437,212.973 279.710451,214.554 Z" id="Path" fill="#57B99B" fill-rule="nonzero"></path>
                <path d="M284.580822,215.595 C284.014122,216.319197 283.269012,216.883644 282.418546,217.233 C282.182745,217.336998 281.940291,217.425192 281.692788,217.497 L280.721113,216.132 C280.823136,215.680939 280.957437,215.237797 281.122979,214.806 C281.286664,214.346401 281.515963,213.91291 281.803751,213.519 C283.147302,211.734 285.891384,213.786 284.580822,215.595 Z" id="Path" fill="#57B99B" fill-rule="nonzero"></path>
                <path d="M266.649819,214.701 C267.060682,215.181 267.330592,215.553 267.330592,215.553 L266.505868,217.968 C266.505868,217.968 266.05002,217.644 265.471214,217.134 C265.598683,216.360824 265.917223,215.631751 266.397904,215.013 C266.481876,214.899 266.568847,214.797 266.649819,214.701 Z" id="Path" fill="#000000" fill-rule="nonzero" opacity="0.1"></path>
                <path d="M269.079007,214.173 C268.826716,214.505554 268.556401,214.824031 268.269278,215.127 C268.19712,214.706001 268.148063,214.281365 268.122327,213.855 C268.466415,213.859523 268.800643,213.970621 269.079007,214.173 L269.079007,214.173 Z" id="Path" fill="#000000" fill-rule="nonzero" opacity="0.1"></path>
                <path d="M273.127653,223.761 L271.076339,224.661 C270.702279,224.473539 270.337936,224.267276 269.984704,224.043 C267.828425,222.717 263.491876,219.378 266.385908,215.442 C269.27994,211.506 271.715125,218.565 272.683801,222.018 C272.977703,223.053 273.127653,223.761 273.127653,223.761 Z" id="Path" fill="#57B99B" fill-rule="nonzero"></path>
                <path d="M278.57683,215.064 C278.876825,214.756985 279.281779,214.574802 279.710451,214.554 C279.68346,215.349 279.605486,215.985 279.605486,215.985 C279.242589,215.701128 278.898947,215.39345 278.57683,215.064 Z" id="Path" fill="#000000" fill-rule="nonzero" opacity="0.1"></path>
                <path d="M282.418546,217.227 C282.182745,217.330998 281.940291,217.419192 281.692788,217.491 L280.721113,216.126 C280.823136,215.674939 280.957437,215.231797 281.122979,214.8 C281.749769,215.172 282.211615,216.084 282.418546,217.227 Z" id="Path" fill="#000000" fill-rule="nonzero" opacity="0.1"></path>
                <path d="M277.326249,226.149 C277.212287,226.173 277.098325,226.194 276.981364,226.212 C270.104664,227.256 274.714122,223.545 274.714122,223.545 C274.714122,223.545 275.014022,223.26 275.442879,222.792 C276.270602,221.892 277.521184,220.275 277.662136,218.793 C277.878064,216.564 278.12998,214.473 280.7601,215.085 C283.342237,215.691 283.834072,224.847 277.326249,226.149 Z" id="Path" fill="#57B99B" fill-rule="nonzero"></path>
                <rect id="Rectangle" fill="#D4DFEC" fill-rule="nonzero" x="264.058686" y="243.276" width="13.1386058" height="3.456"></rect>
                <rect id="Rectangle" fill="#D4DFEC" fill-rule="nonzero" x="261.971384" y="232.044" width="17.1662588" height="12.06"></rect>
                <rect id="Rectangle" fill="#000000" fill-rule="nonzero" opacity="0.1" x="264.058686" y="243.276" width="13.1386058" height="3.456"></rect>
                <rect id="Rectangle" fill="#000000" fill-rule="nonzero" opacity="0.1" x="261.971384" y="232.044" width="17.1662588" height="12.06"></rect>
                <rect id="Rectangle" fill="#D4DFEC" fill-rule="nonzero" x="264.922397" y="243.276" width="13.1386058" height="3.456"></rect>
                <path d="M272.677803,222.027 C272.977703,223.059 273.121655,223.767 273.121655,223.767 L271.070341,224.667 C270.696281,224.479539 270.331938,224.273276 269.978706,224.049 C270.788435,223.026 271.694132,222.258 272.677803,222.027 Z" id="Path" fill="#000000" fill-rule="nonzero" opacity="0.1"></path>
                <path d="M277.326249,226.149 C277.212287,226.173 277.098325,226.194 276.981364,226.212 C270.104664,227.256 274.714122,223.545 274.714122,223.545 C274.714122,223.545 275.014022,223.26 275.442879,222.792 C276.726449,223.827 277.257272,224.979 277.326249,226.149 Z" id="Path" fill="#000000" fill-rule="nonzero" opacity="0.1"></path>
                <path d="M266.145988,232.728 C266.145988,232.728 269.9967,218.928 275.394895,223.188 C280.793089,227.448 273.199629,233.988 273.199629,233.988 L266.145988,232.728 Z" id="Path" fill="#57B99B" fill-rule="nonzero"></path>
                <ellipse id="Oval" fill="#000000" fill-rule="nonzero" opacity="0.1" cx="268.089338" cy="217.605" rx="1" ry="1"></ellipse>
                <ellipse id="Oval" fill="#000000" fill-rule="nonzero" opacity="0.1" cx="268.05335" cy="219.621" rx="1" ry="1"></ellipse>
                <ellipse id="Oval" fill="#000000" fill-rule="nonzero" opacity="0.1" cx="280.577161" cy="218.001" rx="1" ry="1"></ellipse>
                <ellipse id="Oval" fill="#000000" fill-rule="nonzero" opacity="0.1" cx="270.500532" cy="228.336" rx="1" ry="1"></ellipse>
                <ellipse id="Oval" fill="#000000" fill-rule="nonzero" opacity="0.1" cx="279.677462" cy="221.349" rx="1" ry="1"></ellipse>
                <ellipse id="Oval" fill="#000000" fill-rule="nonzero" opacity="0.1" cx="275.214955" cy="225.816" rx="1" ry="1"></ellipse>
                <ellipse id="Oval" fill="#000000" fill-rule="nonzero" opacity="0.1" cx="269.564845" cy="218.469" rx="1" ry="1"></ellipse>
                <ellipse id="Oval" fill="#000000" fill-rule="nonzero" opacity="0.1" cx="279.389559" cy="219.297" rx="1" ry="1"></ellipse>
                <ellipse id="Oval" fill="#000000" fill-rule="nonzero" opacity="0.1" cx="277.914052" cy="222.645" rx="1" ry="1"></ellipse>
                <ellipse id="Oval" fill="#000000" fill-rule="nonzero" opacity="0.1" cx="273.379569" cy="228.012" rx="1" ry="1"></ellipse>
                <ellipse id="Oval" fill="#000000" fill-rule="nonzero" opacity="0.1" cx="272.443882" cy="225.888" rx="1" ry="1"></ellipse>
                <ellipse id="Oval" fill="#000000" fill-rule="nonzero" opacity="0.1" cx="270.212628" cy="221.097" rx="1" ry="1"></ellipse>
                <rect id="Rectangle" fill="#000000" fill-rule="nonzero" opacity="0.1" x="264.922397" y="243.276" width="13.1386058" height="1.263"></rect>
                <rect id="Rectangle" fill="#D4DFEC" fill-rule="nonzero" x="262.835095" y="232.044" width="17.1662588" height="12.06"></rect>
                <ellipse id="Oval" fill="#000000" fill-rule="nonzero" opacity="0.1" cx="273.955376" cy="229.956" rx="1" ry="1"></ellipse>
                <ellipse id="Oval" fill="#000000" fill-rule="nonzero" opacity="0.1" cx="271.364243" cy="230.496" rx="1" ry="1"></ellipse>
            </g>
        </g>
    </g>
</svg>