<?xml version="1.0" encoding="UTF-8"?>
<svg width="152px" height="123px" viewBox="0 0 152 123" version="1.1" xmlns="http://www.w3.org/2000/svg" xmlns:xlink="http://www.w3.org/1999/xlink">
    <!-- Generator: Sketch 63.1 (92452) - https://sketch.com -->
    <title>undraw_project_completed_w0oq</title>
    <desc>Created with Sketch.</desc>
    <g id="Rodný-list-projektu---koncept" stroke="none" stroke-width="1" fill="none" fill-rule="evenodd">
        <g id="07.1-C-Pridané-hodnotenie-default-neuverejnené" transform="translate(-1272.000000, -176.000000)" fill-rule="nonzero">
            <g id="Dokumentácie" transform="translate(800.000000, 96.000000)">
                <g id="konečné-stretnutie" transform="translate(448.000000, 0.000000)">
                    <g id="undraw_project_completed_w0oq" transform="translate(24.000000, 80.000000)">
                        <rect id="Rectangle" fill="#3F3D56" x="0" y="113.452291" width="151.922669" height="1"></rect>
                        <path d="M95.319241,52.9493671 C95.319241,52.9493671 88.5048981,58.303493 91.9120695,59.5203398 C95.319241,60.7371865 97.5095641,55.1396919 97.5095641,55.1396919 L95.319241,52.9493671 Z" id="Path" fill="#FFA579"></path>
                        <path d="M95.5626097,51.0024127 L94.1023927,53.4361061 C94.1023927,53.4361061 96.5360877,53.4361061 97.0228251,57.0866463 L98.9697812,54.6529529 L95.5626097,51.0024127 Z" id="Path" fill="#E0E0E0"></path>
                        <polygon id="Path" fill="#FFA579" points="127.930705 106.490664 128.174158 113.79171 125.253676 115.495245 124.036888 114.765203 124.280183 106.490664"></polygon>
                        <path d="M110.651511,104.543672 L111.138248,112.331493 L104.323907,115.251925 L104.810654,111.114646 C104.810654,111.114646 106.757608,107.950843 106.270869,104.543672 L110.651511,104.543672 Z" id="Path" fill="#FFA579"></path>
                        <path d="M121.116392,45.8916555 C121.116392,45.8916555 125.010303,56.1131683 125.740409,62.4407722 C126.470515,68.7683761 127.687365,85.5608552 127.687365,85.5608552 L130.12106,107.220737 L123.306717,108.194215 L120.386285,86.2909692 L113.815312,64.6310938 L112.355095,86.2909661 L111.138248,106.003885 L104.810646,106.247254 L104.323899,85.8042286 L101.646843,59.7637085 L103.10706,47.351871 L121.116392,45.8916555 Z" id="Path" fill="#525462"></path>
                        <path d="M124.766934,114.278447 C124.766934,114.278447 125.1661,110.191036 128.130317,112.478111 L128.660843,112.088122 L131.094537,117.442248 C131.094537,117.442248 134.014969,121.579527 128.904213,122.066265 C123.79345,122.553002 124.280197,117.442248 124.280197,117.442248 L123.79345,115.251925 L124.036819,113.817578 L124.766934,114.278447 Z" id="Path" fill="#525462"></path>
                        <path d="M110.651511,109.41106 C111.871459,110.108568 112.616894,111.41308 112.598465,112.818232 C112.598465,115.251925 112.355095,115.495294 112.355095,115.495294 L108.704563,116.46877 C108.704563,116.46877 106.270869,116.2254 104.810654,117.685617 C103.350439,119.145834 96.0493566,120.11931 96.0493566,118.172364 C96.0493566,116.225417 102.13359,113.0616 102.13359,113.0616 C102.13359,113.0616 103.940427,110.010222 105.227333,110.319065 C106.514238,110.627907 107.000977,111.114646 107.000977,111.358015 C107.000977,111.601383 106.270869,113.304969 106.270869,113.304969 C106.270869,113.304969 110.408141,112.3315 110.651511,109.41106 Z" id="Path" fill="#525462"></path>
                        <circle id="Oval" fill="#FFA579" cx="110.164772" cy="9.87298813" r="6.08423361"></circle>
                        <path d="M114.667105,11.4548903 L117.344167,17.5391239 L110.043087,28.004007 C110.043087,28.004007 109.55634,16.5656459 108.096132,14.6186915 C106.635925,12.671737 114.667105,11.4548903 114.667105,11.4548903 Z" id="Path" fill="#FFA579"></path>
                        <polygon id="Path" fill="#E0E0E0" points="111.2599 24.1101328 112.476846 20.9463568 113.450183 21.1896515 114.667129 20.2161577 116.370664 14.8620996 118.804398 16.5656349 121.968174 48.4470041 102.25532 48.933751 104.932349 26.7871618 107.366083 20.45961 109.122755 18.137195 110.286407 21.6763983"></polygon>
                        <path d="M116.85743,37.7387807 L117.602135,15.724072 C117.602135,15.724072 119.047753,15.8355382 119.534492,16.5656459 C120.021231,17.2957536 128.05242,18.7559706 128.05242,18.7559706 L126.592203,41.3893225 C126.592203,41.3893225 132.676437,59.3986546 130.486114,60.3721358 C128.295791,61.3456169 124.401879,61.1022435 124.401879,61.1022435 L116.85743,37.7387807 Z" id="Path" fill="#D44166"></path>
                        <path d="M105.054015,34.9400334 L107.635744,20.1029855 L101.890214,23.9884129 L103.350429,34.6966647 L102.133582,41.9977451 C102.133582,41.9977451 97.5095641,62.1974035 98.9697827,62.9275112 C100.430001,63.6576189 102.133584,62.9275112 102.133584,62.9275112 L105.054016,42.4844841 L105.054015,34.9400334 Z" id="Path" fill="#D44166"></path>
                        <path d="M103.593799,23.5016739 L101.890214,23.9884208 L101.160104,33.7232009 L99.9432576,42.2411295 L94.1023927,52.7059968 C94.1023927,52.7059968 97.0228251,50.7590424 98.2396719,56.3565386 L104.672175,45.1573694 L103.593799,23.5016739 Z" id="Path" fill="#D44166"></path>
                        <path d="M122.576613,51.0024127 C122.576613,51.0024127 115.76227,56.3565386 119.169441,57.5733853 C122.576613,58.790232 124.766937,53.1927359 124.766937,53.1927359 L122.576613,51.0024127 Z" id="Path" fill="#FFA579"></path>
                        <polygon id="Path" fill="#E0E0E0" points="126.713917 53.6794938 124.523635 56.3565228 121.603154 51.2457593 122.819942 49.0554772"></polygon>
                        <path d="M126.22715,19.6077635 L128.174104,18.6342871 C128.174104,18.6342871 129.634321,20.5812415 129.87769,22.2848272 C130.121059,23.9884129 131.337907,26.1787361 131.337907,27.3955828 C131.337907,28.6124295 134.745078,40.0507906 134.745078,40.0507906 L126.957257,55.8698075 C126.957257,55.8698075 125.253672,50.0289426 121.603131,49.5422036 L127.687367,41.0242639 L124.280195,34.9400334 L126.22715,19.6077635 Z" id="Path" fill="#D44166"></path>
                        <path d="M115.258199,4.07602033 L116.405523,3.61669651 C116.405523,3.61669651 114.006588,0.975595602 110.668895,1.20526697 L111.60764,0.171782075 C111.60764,0.171782075 109.312993,-0.746852946 107.226954,1.6645766 C106.130362,2.93220929 104.861596,4.42225237 104.070655,6.1007644 L102.841951,6.1007644 L103.354765,7.22992415 L101.55991,8.35908548 L103.402152,8.15626481 C103.292376,8.77460573 103.275526,9.40587045 103.352159,10.0291871 C103.431189,10.6526935 103.74937,11.2211069 104.239549,11.6144651 L104.239549,11.6144651 C104.239549,11.6144651 105.662439,8.66922066 105.662439,8.20989685 L105.662439,9.35820324 C105.662439,9.35820324 106.809761,8.32473253 106.809761,7.63575469 L107.435568,8.43956822 L107.74847,7.17642299 L111.607638,8.43956822 L110.981832,7.40609751 L113.380775,7.75058722 L112.44203,6.48744199 C112.44203,6.48744199 115.153874,7.98023651 115.258199,9.24337859 C115.362489,10.5065017 116.156257,11.7033929 116.156257,11.7033929 C116.156257,11.7033929 118.282955,5.79846888 115.258199,4.07602033 Z" id="Path" fill="#733518"></path>
                        <ellipse id="Oval" fill="#FFA579" cx="115.153844" cy="8.8995117" rx="1" ry="1"></ellipse>
                        <polygon id="Path" fill="#52BA9B" points="28.1611535 50.1596846 7.15235685 50.1596846 7.15235685 44.2726805 18.1185892 44.2726805"></polygon>
                        <path d="M7.09466307,49.3516895 L7.09466307,66.5512354 L75.3156815,66.5512354 L75.3156815,49.3516895 L7.09466307,49.3516895 Z M33.7020234,63.665405 L11.5388419,63.665405 L11.5388419,61.2413077 L33.7020234,61.2413077 L33.7020234,63.665405 Z M70.8715042,59.1635087 L11.5388403,59.1635087 L11.5388403,56.739413 L70.8715042,56.739413 L70.8715042,59.1635087 Z M70.8715042,54.661614 L11.5388403,54.661614 L11.5388403,52.2375183 L70.8715042,52.2375183 L70.8715042,54.661614 Z" id="Shape" fill="#386899"></path>
                        <polygon id="Path" fill="#52BA9B" points="28.1611535 22.3403734 7.15235685 22.3403734 7.15235685 16.4532116 18.1185892 16.4532116"></polygon>
                        <path d="M7.09466307,21.8785883 L7.09466307,39.0781341 L75.3156815,39.0781341 L75.3156815,21.8785883 L7.09466307,21.8785883 Z M33.7020234,36.1923053 L11.5388419,36.1923053 L11.5388419,33.768208 L33.7020234,33.768208 L33.7020234,36.1923053 Z M46.5151078,31.6904106 L11.5388419,31.6904106 L11.5388419,29.2663134 L46.5151078,29.2663134 L46.5151078,31.6904106 Z M70.8715121,27.1885159 L11.5388482,27.1885159 L11.5388482,24.7644187 L70.8715121,24.7644187 L70.8715121,27.1885159 Z" id="Shape" fill="#386899"></path>
                        <polygon id="Path" fill="#52BA9B" points="28.1611535 77.4019004 7.15235685 77.4019004 7.15235685 71.5148963 18.1185892 71.5148963"></polygon>
                        <path d="M7.09466307,76.2476228 L7.09466307,93.4471702 L75.3156815,93.4471702 L75.3156815,76.2476228 L7.09466307,76.2476228 Z M46.5150999,90.5613398 L11.5388419,90.5613398 L11.5388419,88.1372426 L46.5150999,88.1372426 L46.5150999,90.5613398 Z M46.5150999,86.0594451 L11.5388419,86.0594451 L11.5388419,83.635351 L46.5150999,83.635351 L46.5150999,86.0594451 Z M70.8715042,81.5575505 L11.5388403,81.5575505 L11.5388403,79.1334532 L70.8715042,79.1334532 L70.8715042,81.5575505 Z" id="Shape" fill="#386899"></path>
                        <polygon id="Path" fill="#3F3D56" points="94.6507469 35.268888 84.9542822 35.268888 84.9542822 25.5724232 91.5341162 25.5724232 91.5341162 25.8032614 85.185278 25.8032614 85.185278 35.0380498 94.4199087 35.0380498 94.4199087 30.4206556 94.6507469 30.4206556"></polygon>
                        <path d="M89.75261,32.7396789 C89.5285361,32.0780469 86.7186017,29.8289861 88.4404589,29.4509602 L89.8524869,31.3337388 L96.3443627,24.8419749 L96.9972832,25.4948938 L89.75261,32.7396789 Z" id="Path" fill="#52BA9B"></path>
                        <polygon id="Path" fill="#3F3D56" points="94.6507469 62.7419419 84.9542822 62.7419419 84.9542822 53.0454772 91.5341162 53.0454772 91.5341162 53.276473 85.185278 53.276473 85.185278 62.5111037 94.4199087 62.5111037 94.4199087 57.8937095 94.6507469 57.8937095"></polygon>
                        <path d="M89.75261,60.2127802 C89.5285361,59.5511481 86.7186017,57.3020874 88.4404589,56.9240615 L89.8524869,58.8068401 L96.3443627,52.3150762 L96.9972832,52.967995 L89.75261,60.2127802 Z" id="Path" fill="#52BA9B"></path>
                        <polygon id="Path" fill="#3F3D56" points="94.6507469 90.0995768 84.9542822 90.0995768 84.9542822 80.4032697 91.5341162 80.4032697 91.5341162 80.6341079 85.185278 80.6341079 85.185278 89.8687386 94.4199087 89.8687386 94.4199087 85.2513444 94.6507469 85.2513444"></polygon>
                        <path d="M89.75261,87.5704481 C89.5285361,86.9088161 86.7186017,84.6597538 88.4404589,84.2817295 L89.8524869,86.164508 L96.3443627,79.6727426 L96.9972832,80.3256614 L89.75261,87.5704481 Z" id="Path" fill="#52BA9B"></path>
                    </g>
                </g>
            </g>
        </g>
    </g>
</svg>