<?xml version="1.0" encoding="UTF-8"?>
<svg width="276px" height="220px" viewBox="0 0 276 220" version="1.1" xmlns="http://www.w3.org/2000/svg" xmlns:xlink="http://www.w3.org/1999/xlink">
    <!-- Generator: Sketch 61.2 (89653) - https://sketch.com -->
    <title>Group 2</title>
    <desc>Created with Sketch.</desc>
    <defs>
        <linearGradient x1="49.9983096%" y1="100.00595%" x2="49.9983096%" y2="-0.00150157813%" id="linearGradient-1">
            <stop stop-color="#808080" stop-opacity="0.25" offset="0%"></stop>
            <stop stop-color="#808080" stop-opacity="0.12" offset="54%"></stop>
            <stop stop-color="#808080" stop-opacity="0.1" offset="100%"></stop>
        </linearGradient>
    </defs>
    <g id="Page-1" stroke="none" stroke-width="1" fill="none" fill-rule="evenodd">
        <g id="Group-2" transform="translate(-11.000000, -14.000000)">
            <polygon id="Rectangle" points="0 0 298 0 298 248 0 248"></polygon>
            <g id="undraw_book_lover_mkck" transform="translate(11.000000, 14.000000)">
                <path d="M161.839062,37.1405405 C144.377947,36.5324324 127.745103,30.8864865 111.864985,24.7081081 C95.984868,18.5297297 80.2558358,11.6837838 63.2129032,8.41081081 C52.2511437,6.30540541 39.713783,6.00810811 30.8834018,11.8945946 C22.3821701,17.5702703 19.6356598,27.3405405 18.1598827,36.4162162 C17.0483284,43.2432432 16.3954252,50.427027 19.4414076,56.8189189 C21.5539003,61.2567568 25.3067449,64.9864865 27.8994721,69.2513514 C36.9295015,84.0405405 30.5488563,102.278378 20.7634018,116.718919 C16.1768915,123.494595 10.8484457,129.962162 7.308739,137.167568 C3.76903226,144.372973 2.12868035,152.640541 5.22592375,159.997297 C8.29888563,167.294595 15.6184164,172.764865 23.5449853,176.616216 C39.6490323,184.440541 58.6182991,186.678378 77.128915,187.945946 C118.091848,190.754054 159.270616,189.537838 200.341466,188.321622 C215.541701,187.87027 230.806686,187.413514 245.75871,185.059459 C254.062991,183.751351 262.63437,181.678378 268.664282,176.667568 C276.31566,170.308108 278.212317,159.537838 273.086217,151.564865 C264.482463,138.189189 240.71085,134.867568 234.689032,120.510811 C231.381349,112.610811 234.780762,103.810811 239.588504,96.4810811 C249.905455,80.7621622 267.196598,66.9702703 268.108504,49.0027027 C268.734428,36.6594595 260.419355,24.3027027 247.566334,18.4621622 C234.095484,12.3189189 215.409501,13.0972973 205.47566,23.2297297 C195.239648,33.6702703 177.255132,37.6756757 161.839062,37.1405405 Z" id="Path" fill="#57B99B" fill-rule="nonzero" opacity="0.1"></path>
                <polygon id="Path" fill="#57B99B" fill-rule="nonzero" points="117.482111 186.621622 25.1367742 186.17027 15.9610557 164.610811 48.4065689 162.251351 42.7516716 138.613514 106.925044 130.281081 45.4739003 108.881081 50.9021701 107.589189 149.714487 123.737838 144.272727 160.627027 136.494545 180.9"></polygon>
                <path d="M26.5531965,177.140541 C26.5531965,177.140541 32.2188856,176.232432 35.6182991,180.243243 C35.6182991,180.243243 33.1253959,182.210811 27.7618768,179.486486 L26.5531965,177.140541 Z" id="Path" fill="#57B99B" fill-rule="nonzero"></path>
                <path d="M25.9596481,177.051351 C25.9596481,177.051351 22.3443988,181.508108 24.125044,186.47027 C24.125044,186.47027 27.0712023,185.289189 27.3922581,179.272973 L25.9596481,177.051351 Z" id="Path" fill="#57B99B" fill-rule="nonzero"></path>
                <path d="M22.7113196,169.724324 C22.7113196,169.724324 24.9775953,165.559459 34.0426979,171.389189 C34.0426979,171.389189 32.8340176,174.189189 28.8302639,173.962162 C24.8265103,173.735135 23.768915,171.918919 22.7113196,169.724324 Z" id="Path" fill="#57B99B" fill-rule="nonzero"></path>
                <path d="M22.1258651,169.424324 C22.1258651,169.424324 17.4233431,168.883784 16.96739,179.667568 C16.96739,179.667568 19.9486217,180.286486 22.0665103,176.875676 C24.1843988,173.464865 23.3156598,171.551351 22.1258651,169.424324 Z" id="Path" fill="#57B99B" fill-rule="nonzero"></path>
                <path d="M19.3874487,160.821622 C19.3874487,160.821622 22.031437,153.481081 31.6253372,158.702703 C31.6253372,158.702703 29.4346041,165.437838 20.3695015,163.318919 L19.3874487,160.821622 Z" id="Path" fill="#57B99B" fill-rule="nonzero"></path>
                <path d="M16.4412903,149.848649 C16.4412903,149.848649 21.4270968,142.432432 30.2655718,149.308108 C30.2655718,149.308108 27.1683284,156.27027 17.1967155,152.486486 L16.4412903,149.848649 Z" id="Path" fill="#57B99B" fill-rule="nonzero"></path>
                <path d="M15.383695,139.405405 C15.383695,139.405405 21.2004692,132.591892 29.95261,139.405405 C29.95261,139.405405 24.4380059,145.383784 15.383695,141.145946 L15.383695,139.405405 Z" id="Path" fill="#57B99B" fill-rule="nonzero"></path>
                <path d="M14.4771848,129.262162 C14.4771848,129.262162 20.3695015,122.148649 28.7547214,128.883784 C28.7547214,128.883784 22.1069795,135.164865 14.4771848,130.927027 L14.4771848,129.262162 Z" id="Path" fill="#57B99B" fill-rule="nonzero"></path>
                <path d="M15.0059824,120.256757 C15.0059824,120.256757 21.211261,111.1 29.0568915,117.305405 C29.0568915,117.305405 22.4091496,125.175676 15.0059824,121.997297 L15.0059824,120.256757 Z" id="Path" fill="#57B99B" fill-rule="nonzero"></path>
                <path d="M16.4412903,109.737838 C16.4412903,109.737838 23.0134897,100.656757 30.6432845,107.618919 C30.6432845,107.618919 22.8624047,115.489189 16.4412903,111.402703 L16.4412903,109.737838 Z" id="Path" fill="#57B99B" fill-rule="nonzero"></path>
                <path d="M18.6320235,100.335135 C18.6320235,100.335135 26.4129032,91.8 33.2009384,95.2 C33.2009384,95.2 25.093607,104.264865 18.2920821,102.6 L18.6320235,100.335135 Z" id="Path" fill="#57B99B" fill-rule="nonzero"></path>
                <path d="M21.3515543,91.4216216 C21.3515543,91.4216216 30.3303226,80.9675676 35.5535484,84.4594595 C35.5535484,84.4594595 28.9381818,92.5675676 20.7148387,93.3783784 L21.3515543,91.4216216 Z" id="Path" fill="#57B99B" fill-rule="nonzero"></path>
                <path d="M25.2770674,81.0837838 C25.2770674,81.0837838 33.1361877,72.5486486 38.8774194,74.6675676 C38.8774194,74.6675676 32.1541349,83.5216216 24.2221701,83.7486486 L25.2770674,81.0837838 Z" id="Path" fill="#57B99B" fill-rule="nonzero"></path>
                <path d="M28.8302639,71.4135135 C28.8302639,71.4135135 37.517654,63.2405405 41.2947801,64.6783784 C41.2947801,64.6783784 35.0247507,73.7594595 28.4525513,73.2297297 L28.8302639,71.4135135 Z" id="Path" fill="#57B99B" fill-rule="nonzero"></path>
                <path d="M32.3052199,62.4837838 C32.3052199,62.4837838 39.7839296,52.7189189 43.8659238,53.4756757 C43.8659238,53.4756757 39.3306745,62.1810811 32.3052199,63.4756757 L32.3052199,62.4837838 Z" id="Path" fill="#57B99B" fill-rule="nonzero"></path>
                <path d="M36.0769501,50.4432432 C36.0769501,50.4432432 42.6869208,42.9594595 46.2590029,42.9756494 C46.2590029,42.9756494 41.041173,52.9756757 35.8044575,52.8837838 L36.0769501,50.4432432 Z" id="Path" fill="#57B99B" fill-rule="nonzero"></path>
                <path d="M38.3108504,42.427027 L44.6968915,26.8378378 C44.6968915,26.8378378 45.0152493,40.9297297 37.4987683,45.3189189 L38.3108504,42.427027 Z" id="Path" fill="#57B99B" fill-rule="nonzero"></path>
                <path d="M40.9035777,25.2351351 C40.9035777,25.2351351 41.961173,12.2162162 41.2812903,11.1567568 C41.2812903,11.1567568 45.846217,21.9810811 40.8604106,30.9864865 L40.9035777,25.2351351 Z" id="Path" fill="#57B99B" fill-rule="nonzero"></path>
                <path d="M19.1392375,160.648649 C19.1392375,160.648649 12.5184751,156.537838 8.23143695,166.594595 C8.23143695,166.594595 14.1237537,170.513514 19.9189443,163.213514 L19.1392375,160.648649 Z" id="Path" fill="#57B99B" fill-rule="nonzero"></path>
                <path d="M16.2281525,149.42973 C16.2281525,149.42973 8.10733138,145.718919 4.16832845,156.218919 C4.16832845,156.218919 10.4410557,160.543243 16.96739,152.083784 L16.2281525,149.42973 Z" id="Path" fill="#57B99B" fill-rule="nonzero"></path>
                <path d="M15.0059824,140.02973 C15.0059824,140.02973 9.18920821,133.216216 0.437067449,140.02973 C0.437067449,140.02973 5.95167155,146.008108 15.0059824,141.77027 L15.0059824,140.02973 Z" id="Path" fill="#57B99B" fill-rule="nonzero"></path>
                <path d="M14.2775367,129.262162 C14.2775367,129.262162 8.38521994,122.148649 0,128.883784 C0,128.883784 6.64774194,135.164865 14.2775367,130.927027 L14.2775367,129.262162 Z" id="Path" fill="#57B99B" fill-rule="nonzero"></path>
                <path d="M15.0059824,120.516216 C15.0059824,120.516216 10.8727273,110.259459 1.88856305,114.67027 C1.88856305,114.67027 6.74486804,123.764865 14.6390616,122.218919 L15.0059824,120.516216 Z" id="Path" fill="#57B99B" fill-rule="nonzero"></path>
                <path d="M16.9619941,109.686486 C16.9619941,109.686486 12.8530205,99.2513514 3.74205279,104.089189 C3.74205279,104.089189 9.32140762,113.654054 16.5573021,111.297297 L16.9619941,109.686486 Z" id="Path" fill="#57B99B" fill-rule="nonzero"></path>
                <path d="M19.5088563,100.386486 C19.5088563,100.386486 17.890088,88.9459459 10.3358358,87.9216216 C10.3358358,87.9216216 11.9384164,99.9864865 18.4917302,102.448649 L19.5088563,100.386486 Z" id="Path" fill="#57B99B" fill-rule="nonzero"></path>
                <path d="M21.5431085,91.4432432 C21.5431085,91.4432432 20.9117889,77.6594595 14.6660411,77.1783784 C14.6660411,77.1783784 14.8764809,87.6405405 20.8389443,93.3945946 L21.5431085,91.4432432 Z" id="Path" fill="#57B99B" fill-rule="nonzero"></path>
                <path d="M25.9245748,80.6972973 C25.9245748,80.6972973 24.0629912,69.2351351 18.1005279,67.8351351 C18.1005279,67.8351351 18.8397654,78.9351351 25.3337243,83.5108108 L25.9245748,80.6972973 Z" id="Path" fill="#57B99B" fill-rule="nonzero"></path>
                <path d="M29.5371261,71.5081081 C29.5371261,71.5081081 29.4750733,59.5675676 25.8328446,57.8135135 C25.8328446,57.8135135 23.5746628,68.6243243 28.4822287,73.0324324 L29.5371261,71.5081081 Z" id="Path" fill="#57B99B" fill-rule="nonzero"></path>
                <path d="M32.5831085,62.3486486 C32.5831085,62.3486486 32.0731965,50.0540541 28.3014663,48.3216216 C28.3014663,48.3216216 27.0118475,58.0513514 32.0192375,63.1540541 L32.5831085,62.3486486 Z" id="Path" fill="#57B99B" fill-rule="nonzero"></path>
                <path d="M36.6030499,51.4243243 C36.6030499,51.4243243 36.5814663,41.4243243 33.888915,39.0783784 C33.888915,39.0783784 31.2125513,50.0324324 35.1974194,53.4351351 L36.6030499,51.4243243 Z" id="Path" fill="#57B99B" fill-rule="nonzero"></path>
                <path d="M37.9951906,41.9351351 L35.3754839,25.2918919 C35.3754839,25.2918919 31.8168915,38.9297297 38.1192962,44.9405405 L37.9951906,41.9351351 Z" id="Path" fill="#57B99B" fill-rule="nonzero"></path>
                <path d="M38.5051026,25.3918919 C38.5051026,25.3918919 31.7818182,14.2027027 31.9194135,12.9594595 C31.9194135,12.9594595 32.6343695,24.6864865 41.092434,30.527027 L38.5051026,25.3918919 Z" id="Path" fill="#57B99B" fill-rule="nonzero"></path>
                <path d="M39.2929032,22.0864865 C39.2929032,22.0864865 32.9473314,6.19459459 30.0767155,4.90810811 C30.0767155,4.90810811 39.1418182,9.52432432 39.8217009,21.6324324 L39.2929032,22.0864865 Z" id="Path" fill="#57B99B" fill-rule="nonzero"></path>
                <path d="M35.7720821,52.9783784 L35.3377126,52.8459459 C40.6931378,35.3513514 42.0286217,24.1972973 39.101349,21.4 L39.4116129,21.0702703 C42.5169501,24.0216216 41.2570088,35.0540541 35.7720821,52.9783784 Z" id="Path" fill="#444053" fill-rule="nonzero"></path>
                <path d="M21.0251026,93.9405405 L20.3829912,93.7108108 C20.9522581,92.1081081 21.5646921,90.4810811 22.2068035,88.8783784 C27.7969501,74.9216216 32.556129,61.9378378 35.6075073,51.9702703 L36.1659824,51.7 C33.1092082,61.6864865 28.4336657,75.1675676 22.8381232,89.1432432 C22.1987097,90.7162162 21.5889736,92.3351351 21.0251026,93.9405405 Z" id="Path" fill="#444053" fill-rule="nonzero"></path>
                <path d="M34.5364223,190.232432 C34.450088,190.137838 25.7707918,180.345946 19.7192962,163.62973 C16.1734794,153.843071 14.2001316,143.554818 13.8728446,133.148649 C13.4573607,120.140541 16.1822874,105.616216 20.8497361,92.4216216 L21.3569501,93.0162162 C10.8781232,122.62973 15.0410557,148.005405 20.5637537,163.286486 C26.5504985,179.851351 35.1326686,189.535135 35.216305,189.632432 L34.5364223,190.232432 Z" id="Path" fill="#444053" fill-rule="nonzero"></path>
                <path d="M170.167625,169.443243 C170.167625,169.443243 164.051378,176.921622 168.907683,188.227027 L120.074839,209.443243 L115.388504,210.427027 L113.230147,200.967568 L114.673548,189.02973 L114.673548,182.505405 L170.167625,169.443243 Z" id="Path" fill="#D5D6DB" fill-rule="nonzero"></path>
                <polygon id="Path" fill="#57B99B" fill-rule="nonzero" points="15.9610557 164.610811 83.5500293 152.267568 173.108387 166.559459 117.482111 186.621622"></polygon>
                <polygon id="Path" fill="#57B99B" fill-rule="nonzero" points="15.9610557 164.610811 83.5500293 152.267568 173.108387 166.559459 117.482111 186.621622"></polygon>
                <path d="M15.9610557,164.608108 C15.9610557,164.608108 9.6397654,176.605405 16.9242229,187.686486 L117.152962,209.443243 C117.152962,209.443243 110.931496,199.886486 117.474018,186.621622 L15.9610557,164.608108 Z" id="Path" fill="#57B99B" fill-rule="nonzero"></path>
                <path d="M15.9610557,164.608108 C15.9610557,164.608108 9.6397654,176.605405 16.9242229,187.686486 L117.152962,209.443243 C117.152962,209.443243 110.931496,199.886486 117.474018,186.621622 L15.9610557,164.608108 Z" id="Path" fill="#000000" fill-rule="nonzero" opacity="0.1"></path>
                <path d="M18.9476833,168.767568 C18.9476833,168.767568 15.335132,177.545946 18.9476833,183.227027" id="Path" fill="#000000" fill-rule="nonzero" opacity="0.1"></path>
                <path d="M117.152962,209.443243 L173.108387,185.524324 C173.108387,185.524324 176.238006,186.2 174.214545,188.497297 C172.191085,190.794595 118.232141,211.740541 118.232141,211.740541 L16.9242229,187.686486 L117.152962,209.443243 Z" id="Path" fill="#57B99B" fill-rule="nonzero"></path>
                <path d="M117.152962,209.443243 L173.108387,185.524324 C173.108387,185.524324 176.238006,186.2 174.214545,188.497297 C172.191085,190.794595 118.232141,211.740541 118.232141,211.740541 L16.9242229,187.686486 L117.152962,209.443243 Z" id="Path" fill="#000000" fill-rule="nonzero" opacity="0.1"></path>
                <path d="M112.566452,189.037838 C112.566452,189.037838 107.170557,195.524324 112.566452,205.254054" id="Path" fill="#000000" fill-rule="nonzero" opacity="0.1"></path>
                <polygon id="Rectangle" fill="#000000" fill-rule="nonzero" opacity="0.1" transform="translate(126.631105, 193.100830) rotate(-18.450000) translate(-126.631105, -193.100830) " points="113.87168 192.97247 139.390672 192.958968 139.390529 193.229191 113.871538 193.242692"></polygon>
                <polygon id="Rectangle" fill="#000000" fill-rule="nonzero" opacity="0.1" transform="translate(129.056402, 193.784200) rotate(-20.820000) translate(-129.056402, -193.784200) " points="113.508797 193.658198 144.604165 193.639993 144.604007 193.910203 113.508639 193.928408"></polygon>
                <polygon id="Rectangle" fill="#000000" fill-rule="nonzero" opacity="0.1" transform="translate(131.366677, 195.046502) rotate(-22.260000) translate(-131.366677, -195.046502) " points="113.345311 194.922534 149.388209 194.900267 149.388042 195.170469 113.345145 195.192736"></polygon>
                <polygon id="Rectangle" fill="#000000" fill-rule="nonzero" opacity="0.1" transform="translate(133.986393, 195.589406) rotate(-24.310000) translate(-133.986393, -195.589406) " points="113.241166 195.468025 154.731797 195.440596 154.731619 195.710786 113.240988 195.738215"></polygon>
                <polygon id="Rectangle" fill="#000000" fill-rule="nonzero" opacity="0.1" transform="translate(136.168164, 196.143653) rotate(-23.610000) translate(-136.168164, -196.143653) " points="113.478847 196.023229 158.857656 195.993884 158.857482 196.264077 113.478673 196.293423"></polygon>
                <polygon id="Rectangle" fill="#000000" fill-rule="nonzero" opacity="0.1" transform="translate(140.929311, 196.311356) rotate(-23.360000) translate(-140.929311, -196.311356) " points="113.777828 196.193674 168.080966 196.158843 168.080793 196.429038 113.777655 196.46387"></polygon>
                <polygon id="Path" fill="#FFFFFF" fill-rule="nonzero" opacity="0.3" points="41.0708504 165.92973 88.5547214 155.92973 117.482111 161.47027 78.5723167 174.037838"></polygon>
                <path d="M173.108387,166.559459 C173.108387,166.559459 175.563519,167.551351 174.122815,169.083784 C172.682111,170.616216 117.474018,186.621622 117.474018,186.621622 L173.108387,166.559459 Z" id="Path" fill="#57B99B" fill-rule="nonzero"></path>
                <path d="M196.955543,143.448649 C196.955543,143.448649 190.841994,150.924324 195.698299,162.232432 L146.865455,183.448649 L142.17912,184.437838 L140.020762,174.978378 L141.485748,163.043243 L141.485748,156.510811 L196.955543,143.448649 Z" id="Path" fill="#D5D6DB" fill-rule="nonzero"></path>
                <polygon id="Path" fill="#3A3768" fill-rule="nonzero" points="42.7516716 138.613514 110.337947 126.272973 199.899003 140.564865 144.272727 160.627027"></polygon>
                <path d="M42.7408798,138.613514 C42.7408798,138.613514 36.4168915,150.610811 43.701349,161.691892 L143.930088,183.448649 C143.930088,183.448649 137.71132,173.883784 144.261935,160.624324 L42.7408798,138.613514 Z" id="Path" fill="#3A3768" fill-rule="nonzero"></path>
                <path d="M42.7408798,138.613514 C42.7408798,138.613514 36.4168915,150.610811 43.701349,161.691892 L143.930088,183.448649 C143.930088,183.448649 137.71132,173.883784 144.261935,160.624324 L112.566452,153.751351 L42.7408798,138.613514 Z" id="Path" fill="#000000" fill-rule="nonzero" opacity="0.1"></path>
                <path d="M45.7356012,142.772973 C45.7356012,142.772973 42.1257478,151.548649 45.7356012,157.232432" id="Path" fill="#000000" fill-rule="nonzero" opacity="0.1"></path>
                <path d="M143.94088,183.448649 L199.899003,159.52973 C199.899003,159.52973 203.025924,160.205405 201.002463,162.502703 C198.979003,164.8 145.020059,185.745946 145.020059,185.745946 L43.7121408,161.691892 L143.94088,183.448649 Z" id="Path" fill="#3A3768" fill-rule="nonzero"></path>
                <path d="M143.94088,183.448649 L199.899003,159.52973 C199.899003,159.52973 203.025924,160.205405 201.002463,162.502703 C198.979003,164.8 145.020059,185.745946 145.020059,185.745946 L43.7121408,161.691892 L143.94088,183.448649 Z" id="Path" fill="#000000" fill-rule="nonzero" opacity="0.1"></path>
                <path d="M139.35437,163.043243 C139.35437,163.043243 133.958475,169.52973 139.35437,179.259459" id="Path" fill="#000000" fill-rule="nonzero" opacity="0.1"></path>
                <polygon id="Rectangle" fill="#000000" fill-rule="nonzero" opacity="0.1" transform="translate(153.421116, 167.109110) rotate(-18.450000) translate(-153.421116, -167.109110) " points="140.661691 166.980749 166.180683 166.967248 166.18054 167.237471 140.661549 167.250972"></polygon>
                <polygon id="Rectangle" fill="#000000" fill-rule="nonzero" opacity="0.1" transform="translate(155.849798, 167.791193) rotate(-20.820000) translate(-155.849798, -167.791193) " points="140.302193 167.66519 171.397561 167.646985 171.397403 167.917195 140.302035 167.9354"></polygon>
                <polygon id="Rectangle" fill="#000000" fill-rule="nonzero" opacity="0.1" transform="translate(158.156118, 169.049751) rotate(-22.260000) translate(-158.156118, -169.049751) " points="140.134753 168.925784 176.17765 168.903517 176.177484 169.173719 140.134586 169.195986"></polygon>
                <polygon id="Rectangle" fill="#000000" fill-rule="nonzero" opacity="0.1" transform="translate(160.778960, 169.593183) rotate(-24.310000) translate(-160.778960, -169.593183) " points="140.033733 169.471802 181.524364 169.444373 181.524186 169.714563 140.033555 169.741992"></polygon>
                <polygon id="Rectangle" fill="#000000" fill-rule="nonzero" opacity="0.1" transform="translate(162.956871, 170.143991) rotate(-23.610000) translate(-162.956871, -170.143991) " points="140.267553 170.023567 185.646362 169.994222 185.646188 170.264416 140.267379 170.293761"></polygon>
                <polygon id="Rectangle" fill="#000000" fill-rule="nonzero" opacity="0.1" transform="translate(167.720069, 170.311729) rotate(-23.360000) translate(-167.720069, -170.311729) " points="140.568587 170.194048 194.871725 170.159216 194.871552 170.429411 140.568414 170.464243"></polygon>
                <polygon id="Path" fill="#FFFFFF" fill-rule="nonzero" opacity="0.45" points="67.8614663 139.935135 115.345337 129.935135 144.272727 135.475676 105.362933 148.043243"></polygon>
                <path d="M199.899003,140.564865 C199.899003,140.564865 202.351437,141.556757 200.913431,143.086486 C199.475425,144.616216 144.272727,160.624324 144.272727,160.624324 L199.899003,140.564865 Z" id="Path" fill="#3A3768" fill-rule="nonzero"></path>
                <path d="M199.491613,113.710811 C199.491613,113.710811 193.375367,127.135135 198.231672,138.440541 L149.398827,153.710811 L144.723284,154.702703 L142.564927,145.243243 L144.008328,133.305405 L144.008328,126.772973 L199.491613,113.710811 Z" id="Path" fill="#D5D6DB" fill-rule="nonzero"></path>
                <polygon id="Path" fill="#57B99B" fill-rule="nonzero" points="45.2958358 108.878378 112.884809 96.5351351 202.445865 110.827027 146.816891 130.889189"></polygon>
                <path d="M45.2958358,108.875676 C45.2958358,108.875676 38.9637537,120.872973 46.2482111,131.954054 L146.47695,153.710811 C146.47695,153.710811 140.255484,144.145946 146.8061,130.889189 L45.2958358,108.875676 Z" id="Path" fill="#57B99B" fill-rule="nonzero"></path>
                <path d="M45.2958358,108.875676 C45.2958358,108.875676 38.9637537,120.872973 46.2482111,131.954054 L146.47695,153.710811 C146.47695,153.710811 140.255484,144.145946 146.8061,130.889189 L45.2958358,108.875676 Z" id="Path" fill="#000000" fill-rule="nonzero" opacity="0.1"></path>
                <path d="M48.2824633,113.035135 C48.2824633,113.035135 44.669912,121.813514 48.2824633,127.494595" id="Path" fill="#000000" fill-rule="nonzero" opacity="0.1"></path>
                <path d="M146.487742,153.710811 L202.443167,135.737838 C202.443167,135.737838 205.572786,136.413514 203.549326,138.710811 C201.525865,141.008108 147.566921,156.008108 147.566921,156.008108 L46.2590029,131.954054 L146.487742,153.710811 Z" id="Path" fill="#57B99B" fill-rule="nonzero"></path>
                <path d="M146.487742,153.710811 L202.443167,135.737838 C202.443167,135.737838 205.572786,136.413514 203.549326,138.710811 C201.525865,141.008108 147.566921,156.008108 147.566921,156.008108 L46.2590029,131.954054 L146.487742,153.710811 Z" id="Path" fill="#000000" fill-rule="nonzero" opacity="0.1"></path>
                <path d="M141.901232,133.305405 C141.901232,133.305405 136.505337,139.791892 141.901232,149.521622" id="Path" fill="#000000" fill-rule="nonzero" opacity="0.1"></path>
                <polygon id="Rectangle" fill="#000000" fill-rule="nonzero" opacity="0.1" transform="translate(155.968740, 137.370726) rotate(-18.450000) translate(-155.968740, -137.370726) " points="143.209316 137.242365 168.728307 137.228864 168.728164 137.499087 143.209173 137.512588"></polygon>
                <polygon id="Rectangle" fill="#000000" fill-rule="nonzero" opacity="0.1" transform="translate(158.395558, 138.054176) rotate(-20.820000) translate(-158.395558, -138.054176) " points="142.847953 137.928174 173.943321 137.909969 173.943163 138.180179 142.847795 138.198384"></polygon>
                <polygon id="Rectangle" fill="#000000" fill-rule="nonzero" opacity="0.1" transform="translate(160.699404, 139.314041) rotate(-22.260000) translate(-160.699404, -139.314041) " points="142.678039 139.190073 178.720936 139.167807 178.720769 139.438009 142.677872 139.460275"></polygon>
                <polygon id="Rectangle" fill="#000000" fill-rule="nonzero" opacity="0.1" transform="translate(163.326000, 139.855106) rotate(-24.310000) translate(-163.326000, -139.855106) " points="142.580773 139.733726 184.071404 139.706297 184.071226 139.976487 142.580595 140.003916"></polygon>
                <polygon id="Rectangle" fill="#000000" fill-rule="nonzero" opacity="0.1" transform="translate(165.505300, 140.408493) rotate(-23.610000) translate(-165.505300, -140.408493) " points="142.815983 140.288069 188.194792 140.258724 188.194617 140.528918 142.815808 140.558263"></polygon>
                <polygon id="Rectangle" fill="#000000" fill-rule="nonzero" opacity="0.1" transform="translate(170.267609, 140.577981) rotate(-23.360000) translate(-170.267609, -140.577981) " points="143.116126 140.460299 197.419264 140.425467 197.419091 140.695663 143.115953 140.730494"></polygon>
                <polygon id="Path" fill="#FFFFFF" fill-rule="nonzero" opacity="0.3" points="70.4056305 110.197297 117.889501 100.197297 146.816891 105.737838 107.907097 118.305405"></polygon>
                <path d="M202.443167,110.827027 C202.443167,110.827027 204.898299,111.818919 203.457595,113.351351 C202.016891,114.883784 146.816891,130.889189 146.816891,130.889189 L202.443167,110.827027 Z" id="Path" fill="#57B99B" fill-rule="nonzero"></path>
                <path d="M83.7496774,28.7837838 C83.7496774,28.7837838 73.497478,28.1648649 74.6953666,35.3702703 C74.6953666,35.3702703 74.4552493,36.6432432 75.6072727,37.2216216 C75.6072727,37.2216216 75.6261584,36.6810811 76.6594721,36.8675676 C77.0282091,36.9310218 77.4032966,36.9491739 77.7764223,36.9216216 C78.2793974,36.887126 78.7575622,36.6898318 79.1388856,36.3594595 L79.1388856,36.3594595 C79.1388856,36.3594595 82.0229912,35.1648649 83.1453372,30.4405405 C83.1453372,30.4405405 83.976305,29.4108108 83.9547214,29.1459459 L82.2172434,29.8864865 C82.2172434,29.8864865 82.8080938,31.1378378 82.3440469,32.1783784 C82.3440469,32.1783784 82.28739,29.9324324 81.9528446,29.9837838 C81.8853959,29.9837838 81.0544282,30.4189189 81.0544282,30.4189189 C81.0544282,30.4189189 82.0715543,32.6 81.3026393,34.1837838 C81.3026393,34.1837838 81.5940176,31.4972973 80.7360704,30.5756757 L79.5165982,31.2891892 C79.5165982,31.2891892 80.706393,33.5405405 79.8997067,35.3783784 C79.8997067,35.3783784 80.1074487,32.5594595 79.2602933,31.4621622 L78.1541349,32.327027 C78.1541349,32.327027 79.273783,34.5459459 78.5912023,36.0702703 C78.5912023,36.0702703 78.5021701,32.7891892 77.9167155,32.5405405 C77.9167155,32.5405405 76.9481525,33.3945946 76.8024633,33.7459459 C76.8024633,33.7459459 77.5686804,35.3675676 77.0911437,36.2081081 C77.0911437,36.2081081 76.8024633,34.0216216 76.5515543,34.0108108 C76.5515543,34.0108108 75.5883871,35.4594595 75.488563,36.4432432 C75.5352102,35.5260841 75.8207698,34.6371458 76.3168328,33.8648649 C75.7617233,33.9700748 75.2495794,34.2359946 74.8437537,34.6297297 C74.8437537,34.6297297 74.9921408,33.6054054 76.5569501,33.5162162 C76.5569501,33.5162162 77.3528446,32.4162162 77.5659824,32.3513514 C77.5659824,32.3513514 76.0092669,32.2189189 75.0676833,32.6378378 C75.0676833,32.6378378 75.898651,31.672973 77.8492669,32.0972973 L78.9284457,31.2054054 C78.9284457,31.2054054 76.8834018,30.9351351 76.0146628,31.2351351 C76.0146628,31.2351351 77.0156012,30.3810811 79.222522,31.0027027 L80.4123167,30.2918919 C80.4123167,30.2918919 78.6667449,29.9162162 77.6280352,30.0513514 C77.6280352,30.0513514 78.7234018,29.4594595 80.7603519,30.1 L81.6075073,29.7189189 C81.6075073,29.7189189 80.3313783,29.4675676 79.9563636,29.427027 C79.581349,29.3864865 79.5624633,29.2837838 79.5624633,29.2837838 C80.3724244,29.1505268 81.2033914,29.2440584 81.9636364,29.5540541 C81.9636364,29.5540541 83.7847507,28.8972973 83.7496774,28.7837838 Z" id="Path" fill="#57B99B" fill-rule="nonzero"></path>
                <path d="M227.981935,58.4 C227.981935,58.4 217.729736,57.7810811 218.927625,64.9864865 C218.927625,64.9864865 218.687507,66.2594595 219.839531,66.8378378 C219.839531,66.8378378 219.858416,66.2972973 220.89173,66.4837838 C221.260627,66.5457598 221.635537,66.5639034 222.00868,66.5378378 C222.507082,66.5010543 222.980263,66.3038641 223.357654,65.9756757 L223.357654,65.9756757 C223.357654,65.9756757 226.244457,64.7810811 227.364106,60.0567568 C227.364106,60.0567568 228.195073,59.027027 228.17349,58.7621622 L226.441408,59.5027027 C226.441408,59.5027027 227.032258,60.7540541 226.568211,61.7945946 C226.568211,61.7945946 226.511554,59.5486486 226.179707,59.6 C226.112258,59.6 225.278592,60.0351351 225.278592,60.0351351 C225.278592,60.0351351 226.295718,62.2162162 225.529501,63.8 C225.529501,63.8 225.82088,61.1135135 224.960235,60.1918919 L223.740762,60.9054054 C223.740762,60.9054054 224.930557,63.1567568 224.123871,64.9945946 C224.123871,64.9945946 224.331613,62.1756757 223.484457,61.0783784 L222.380997,61.9432432 C222.380997,61.9432432 223.497947,64.1621622 222.815367,65.6864865 C222.815367,65.6864865 222.726334,62.4054054 222.14088,62.1567568 C222.14088,62.1567568 221.175015,63.0108108 221.026628,63.3621622 C221.026628,63.3621622 221.792845,64.9837838 221.318006,65.8243243 C221.318006,65.8243243 221.026628,63.6378378 220.778416,63.627027 C220.778416,63.627027 219.815249,65.0756757 219.715425,66.0594595 C219.762132,65.1419125 220.048689,64.2527663 220.546393,63.4810811 C219.990583,63.5865477 219.477642,63.8523941 219.070616,64.2459459 C219.070616,64.2459459 219.221701,63.2216216 220.783812,63.1324324 C220.783812,63.1324324 221.579707,62.0324324 221.792845,61.9648649 C221.792845,61.9648649 220.238827,61.8351351 219.294545,62.2540541 C219.294545,62.2540541 220.125513,61.2891892 222.076129,61.7135135 L223.155308,60.8216216 C223.155308,60.8216216 221.107566,60.5513514 220.241525,60.8513514 C220.241525,60.8513514 221.239765,59.9972973 223.449384,60.6189189 L224.636481,59.9081081 C224.636481,59.9081081 222.890909,59.5324324 221.852199,59.6675676 C221.852199,59.6675676 222.947566,59.0756757 224.984516,59.7162162 L225.83437,59.3351351 C225.83437,59.3351351 224.555543,59.0837838 224.180528,59.0432432 C223.805513,59.0027027 223.786628,58.9 223.786628,58.9 C224.596544,58.7650301 225.427978,58.8586144 226.187801,59.1702703 C226.187801,59.1702703 228.014311,58.5135135 227.981935,58.4 Z" id="Path" fill="#57B99B" fill-rule="nonzero" opacity="0.1"></path>
                <path d="M101.01654,73.2972973 C101.01654,73.2972973 96.548739,64.0189189 90.8614663,68.5918919 C90.8614663,68.5918919 89.6339003,69.0027027 89.6932551,70.2918919 C89.6932551,70.2918919 90.1653959,70.0459459 90.5026393,71.0405405 C90.6286165,71.3921274 90.7952231,71.7277422 90.9990616,72.0405405 C91.2751035,72.4645515 91.6813543,72.7870894 92.1564809,72.9594595 L92.1564809,72.9594595 C92.1564809,72.9594595 94.6035191,74.9 99.2682698,73.5756757 C99.2682698,73.5756757 100.571378,73.8 100.784516,73.6432432 L99.2952493,72.4891892 C99.2952493,72.4891892 98.4858651,73.6162162 97.3581232,73.7162162 C97.3581232,73.7162162 99.2898534,72.572973 99.0821114,72.3081081 C99.0389443,72.2540541 98.2727273,71.7324324 98.2727273,71.7324324 C98.2727273,71.7324324 96.8670968,73.6864865 95.1134311,73.7864865 C95.1134311,73.7864865 97.5955425,72.7324324 97.978651,71.5297297 L96.7645748,70.8108108 C96.7645748,70.8108108 95.3805279,72.9513514 93.3867449,73.1405405 C93.3867449,73.1405405 95.9443988,71.9486486 96.4866862,70.672973 L95.1970674,70.1324324 C95.1970674,70.1324324 93.8076246,72.1918919 92.1456891,72.3405405 C92.1456891,72.3405405 94.962346,70.6621622 94.8921994,70.027027 C94.8921994,70.027027 93.6754252,69.6 93.2977126,69.6405405 C93.2977126,69.6405405 92.2670968,71.0972973 91.2958358,71.0972973 C91.2958358,71.0972973 93.0575953,69.7756757 92.9496774,69.5621622 C92.9496774,69.5621622 91.2175953,69.427027 90.3056891,69.8324324 C91.1274116,69.4232919 92.0417884,69.236926 92.9577713,69.2918919 C92.5943764,68.8578061 92.1124292,68.5393858 91.5710264,68.3756757 C91.5710264,68.3756757 92.5368915,68.0081081 93.3759531,69.3297297 C93.3759531,69.3297297 94.7249267,69.4891892 94.8841056,69.6432432 C94.8841056,69.6432432 94.2392962,68.2216216 93.4164223,67.6027027 C93.4164223,67.6027027 94.6628739,67.8540541 95.2321408,69.7648649 L96.5406452,70.2837838 C96.5406452,70.2837838 95.7879179,68.3594595 95.0945455,67.7513514 C95.0945455,67.7513514 96.3248094,68.2081081 96.8617009,70.4540541 L98.0595894,71.1459459 C98.0595894,71.1459459 97.5388856,69.4351351 96.9129619,68.5945946 C96.9129619,68.5945946 97.9624633,69.2648649 98.3968328,71.3567568 L99.1441642,71.9135135 C99.1441642,71.9135135 98.7394721,70.672973 98.6045748,70.327027 C98.4696774,69.9810811 98.5371261,69.9108108 98.5371261,69.9108108 C99.050365,70.5524979 99.3754286,71.324481 99.4760117,72.1405405 C99.4760117,72.1405405 100.919413,73.3783784 101.01654,73.2972973 Z" id="Path" fill="#57B99B" fill-rule="nonzero" opacity="0.1"></path>
                <path d="M204.558358,45.2918919 C204.558358,45.2918919 200.093255,36.0135135 194.403284,40.5864865 C194.403284,40.5864865 193.178416,40.9972973 193.235073,42.2864865 C193.235073,42.2864865 193.709912,42.0432432 194.044457,43.0351351 C194.170204,43.3881619 194.337775,43.7248014 194.543578,44.0378378 C194.818627,44.4610528 195.224071,44.782753 195.698299,44.9540541 L195.698299,44.9540541 C195.698299,44.9540541 198.148035,46.8945946 202.810088,45.572973 C202.810088,45.572973 204.113196,45.7945946 204.329032,45.6378378 L202.847859,44.4810811 C202.847859,44.4810811 202.038475,45.6108108 200.913431,45.7108108 C200.913431,45.7108108 202.842463,44.5648649 202.634721,44.3 C202.591554,44.2459459 201.825337,43.7243243 201.825337,43.7243243 C201.825337,43.7243243 200.422405,45.6783784 198.666041,45.7783784 C198.666041,45.7783784 201.15085,44.7243243 201.533959,43.5243243 L200.300997,42.8108108 C200.300997,42.8108108 198.919648,44.9486486 196.923167,45.1405405 C196.923167,45.1405405 199.480821,43.9459459 200.025806,42.6702703 L198.73349,42.1297297 C198.73349,42.1297297 197.344047,44.1918919 195.684809,44.3378378 C195.684809,44.3378378 198.498768,42.6594595 198.428622,42.027027 C198.428622,42.027027 197.214545,41.5972973 196.836833,41.6405405 C196.836833,41.6405405 195.806217,43.0945946 194.832258,43.0945946 C194.832258,43.0945946 196.596716,41.772973 196.488798,41.5594595 C196.488798,41.5594595 194.756716,41.4243243 193.842111,41.8297297 C194.663793,41.4204691 195.578202,41.2340966 196.494194,41.2891892 C196.13216,40.8548271 195.650976,40.5362913 195.110147,40.372973 C195.110147,40.372973 196.076012,40.0054054 196.915073,41.327027 C196.915073,41.327027 198.264047,41.4891892 198.423226,41.6432432 C198.423226,41.6432432 197.778416,40.2189189 196.952845,39.6 C196.952845,39.6 198.199296,39.8540541 198.768563,41.7756757 L200.079765,42.2945946 C200.079765,42.2945946 199.327038,40.3675676 198.633666,39.7594595 C198.633666,39.7594595 199.86393,40.2162162 200.398123,42.4621622 L201.59871,43.1540541 C201.59871,43.1540541 201.075308,41.4459459 200.449384,40.6027027 C200.449384,40.6027027 201.501584,41.272973 201.933255,43.3648649 L202.680587,43.9216216 C202.680587,43.9216216 202.278592,42.6810811 202.140997,42.3351351 C202.003402,41.9891892 202.073548,41.9216216 202.073548,41.9216216 C202.585327,42.5639034 202.909385,43.3357157 203.009736,44.1513514 C203.009736,44.1513514 204.474721,45.3783784 204.558358,45.2918919 Z" id="Path" fill="#57B99B" fill-rule="nonzero" opacity="0.1"></path>
                <path d="M218.827801,91.1864865 C218.827801,91.1864865 214.362698,81.9054054 208.664633,86.4783784 C208.664633,86.4783784 207.439765,86.8891892 207.496422,88.1783784 C207.496422,88.1783784 207.971261,87.9351351 208.305806,88.927027 C208.430678,89.2799369 208.597342,89.616574 208.802229,89.9297297 C209.077278,90.3529447 209.482722,90.6746449 209.95695,90.8459459 L209.95695,90.8459459 C209.95695,90.8459459 212.406686,92.7891892 217.071437,91.4648649 C217.071437,91.4648649 218.371848,91.6891892 218.587683,91.5297297 L217.098416,90.3756757 C217.098416,90.3756757 216.289032,91.5054054 215.16129,91.6054054 C215.16129,91.6054054 217.090323,90.4594595 216.882581,90.1945946 C216.839413,90.1405405 216.073196,89.6189189 216.073196,89.6189189 C216.073196,89.6189189 214.670264,91.572973 212.9139,91.6756757 C212.9139,91.6756757 215.39871,90.6189189 215.781818,89.4189189 L214.565044,88.7 C214.565044,88.7 213.183695,90.8405405 211.187214,91.0297297 C211.187214,91.0297297 213.744868,89.8351351 214.289853,88.5594595 L212.997537,88.0189189 C212.997537,88.0189189 211.608094,90.0783784 209.948856,90.227027 C209.948856,90.227027 212.765513,88.5486486 212.695367,87.9135135 C212.695367,87.9135135 211.478592,87.4837838 211.10088,87.527027 C211.10088,87.527027 210.070264,88.9810811 209.096305,88.9810811 C209.096305,88.9810811 210.860762,87.6594595 210.752845,87.4459459 C210.752845,87.4459459 209.020762,87.3108108 208.106158,87.7162162 C208.928892,87.307211 209.844099,87.1208654 210.760938,87.1756757 C210.398393,86.7406357 209.916137,86.4220112 209.374194,86.2594595 C209.374194,86.2594595 210.340059,85.8891892 211.17912,87.2135135 C211.17912,87.2135135 212.528094,87.372973 212.687273,87.527027 C212.687273,87.527027 212.042463,86.1054054 211.219589,85.4837838 C211.219589,85.4837838 212.466041,85.7378378 213.035308,87.6594595 L214.343812,88.1783784 C214.343812,88.1783784 213.591085,86.2513514 212.897713,85.6459459 C212.897713,85.6459459 214.127977,86.1 214.66217,88.3486486 L215.862757,89.0378378 C215.862757,89.0378378 215.339355,87.3297297 214.713431,86.4864865 C214.713431,86.4864865 215.76563,87.1567568 216.2,89.2513514 L216.947331,89.7918919 C216.947331,89.7918919 216.542639,88.5513514 216.407742,88.2054054 C216.272845,87.8594595 216.340293,87.7918919 216.340293,87.7918919 C216.853303,88.4334403 217.177514,89.205617 217.276481,90.0216216 C217.276481,90.0216216 218.744164,91.2675676 218.827801,91.1864865 Z" id="Path" fill="#57B99B" fill-rule="nonzero" opacity="0.1"></path>
                <ellipse id="Oval" fill="#57B99B" fill-rule="nonzero" opacity="0.1" cx="54.485044" cy="211.240541" rx="6.20258065" ry="1"></ellipse>
                <ellipse id="Oval" fill="#57B99B" fill-rule="nonzero" opacity="0.1" cx="13.8242815" cy="199.435135" rx="6.20258065" ry="1"></ellipse>
                <ellipse id="Oval" fill="#57B99B" fill-rule="nonzero" opacity="0.1" cx="85.4790616" cy="219.081081" rx="6.20258065" ry="1"></ellipse>
                <ellipse id="Oval" fill="#57B99B" fill-rule="nonzero" opacity="0.1" cx="244.307214" cy="202.002703" rx="6.20258065" ry="1"></ellipse>
                <ellipse id="Oval" fill="#57B99B" fill-rule="nonzero" opacity="0.1" cx="192.692786" cy="198.632432" rx="6.20258065" ry="1"></ellipse>
                <ellipse id="Oval" fill="#57B99B" fill-rule="nonzero" opacity="0.1" cx="159.302991" cy="214.502703" rx="7.33571848" ry="1.26216216"></ellipse>
                <path d="M162.575601,201.816216 C162.575601,201.816216 152.361173,207.102703 157.638358,213.32973 C157.638358,213.32973 158.13478,214.681081 159.570088,214.586486 C159.570088,214.586486 159.284106,214.062162 160.379472,213.643243 C160.769227,213.492317 161.139655,213.295436 161.482933,213.056757 C161.946797,212.735513 162.293464,212.271527 162.470381,211.735135 L162.470381,211.735135 C162.470381,211.735135 164.558592,208.935135 162.939824,203.754054 C162.939824,203.754054 163.150264,202.289189 162.966804,202.051351 L161.725748,203.756757 C161.725748,203.756757 163.007273,204.618919 163.15566,205.886486 C163.15566,205.886486 161.806686,203.759459 161.536891,203.994595 C161.477537,204.043243 160.92176,204.927027 160.92176,204.927027 C160.92176,204.927027 163.144868,206.437838 163.309443,208.4 C163.309443,208.4 162.057595,205.651351 160.705924,205.259459 L159.931613,206.643243 C159.931613,206.643243 162.359765,208.124324 162.62956,210.351351 C162.62956,210.351351 161.218534,207.527027 159.77783,206.956757 L159.208563,208.418919 C159.208563,208.418919 161.550381,209.910811 161.766217,211.764865 C161.766217,211.764865 159.807507,208.664865 159.103343,208.762162 C159.103343,208.762162 158.66088,210.135135 158.720235,210.559459 C158.720235,210.559459 160.374076,211.667568 160.403754,212.756757 C160.403754,212.756757 158.876716,210.824324 158.641994,210.951351 C158.641994,210.951351 158.544868,212.894595 159.014311,213.905405 C159.014311,213.905405 158.204927,212.462162 158.337126,210.951351 C157.863967,211.370511 157.523537,211.919166 157.357771,212.52973 C157.357771,212.52973 156.918006,211.462162 158.366804,210.478378 C158.366804,210.478378 158.504399,208.967568 158.671672,208.781081 C158.671672,208.781081 157.104164,209.548649 156.437771,210.489189 C156.437771,210.489189 156.683284,209.086486 158.809267,208.389189 L159.348856,206.908108 C159.348856,206.908108 157.222874,207.810811 156.567273,208.605405 C156.567273,208.605405 157.039413,207.213514 159.516129,206.545946 L160.249971,205.194595 C160.249971,205.194595 158.361408,205.832432 157.43871,206.545946 C157.43871,206.545946 158.153666,205.348649 160.476598,204.797297 L161.072845,203.945946 C161.072845,203.945946 159.702287,204.435135 159.319179,204.610811 C158.93607,204.786486 158.860528,204.7 158.860528,204.7 C159.560813,204.106614 160.411588,203.719302 161.318358,203.581081 C161.318358,203.581081 162.670029,201.908108 162.575601,201.816216 Z" id="Path" fill="#57B99B" fill-rule="nonzero"></path>
                <path d="M192.892434,101.97027 C191.127977,97.1675676 181.415367,96.7162162 177.201173,97.9405405 C174.206452,98.8135135 167.893255,99.7972973 164.520821,100.291892 L164.302287,100.083784 C164.739355,99.9540541 164.750147,99.6351351 164.696188,99.1621622 C164.664779,98.5388106 164.673791,97.914074 164.723167,97.2918919 C166.789795,97.9351351 168.629795,96.4135135 168.629795,96.4135135 L168.629795,96.4135135 C171.057947,95.3324324 170.405044,90.7054054 170.869091,89.4405405 C171.217126,88.4945946 171.592141,82.9216216 171.759413,80.1432432 L171.794487,80.1432432 L171.813372,79.2108108 C171.837654,78.8081081 171.848446,78.572973 171.848446,78.572973 C171.848446,78.572973 172.085865,71.7783784 172.549912,70.4027027 C172.981584,69.1378378 173.332317,62.7648649 173.386276,61.7540541 C173.386276,61.6675676 173.386276,61.6216216 173.386276,61.6216216 L173.351202,61.0324324 C173.375484,60.6027027 173.386276,60.1243243 173.383578,59.6216216 C173.383578,57.3108108 173.14346,54.4 173.113783,53.9297297 C173.113783,53.8621622 173.113783,53.7810811 173.113783,53.6837838 C173.132669,52.6972973 173.008563,47.7567568 168.813255,45.8891892 C167.267331,45.1972973 165.408446,44.372973 163.608915,43.5702703 C163.144868,39.5567568 162.084575,35.5648649 162.176305,31.5216216 C162.176305,30.9135135 162.230264,30.3054054 162.289619,29.7 C162.289619,29.8756757 162.270733,30.0540541 162.268035,30.2405405 C162.268035,30.6324324 162.268035,31.027027 162.268035,31.4189189 C162.427214,26.3621622 164.334663,21.2783784 164.156598,16.3297297 C164.140411,16.8135135 164.105337,17.3 164.059472,17.7864865 C164.15262,16.1126549 163.97774,14.4346762 163.541466,12.8162162 C163.379589,12.2459459 163.161056,11.6567568 162.694311,11.2756757 C162.25313,10.9687641 161.747161,10.7680545 161.215836,10.6891892 C159.939173,10.3618296 158.642198,10.1198546 157.33349,9.96486486 C157.134622,9.35506422 156.839503,8.78112289 156.459355,8.26486486 C153.723636,4.5027027 149.67132,0.967567568 144.879765,0.156756757 C142.475894,-0.248648649 139.710499,0.0891891892 138.075543,1.81081081 C137.904802,1.96205105 137.744365,2.12457691 137.595308,2.2972973 C136.715777,3.34864865 136.338065,4.72972973 135.43695,5.77837838 C135.377595,5.84864865 135.310147,5.91351351 135.245396,5.98108108 C133.480938,7.56216216 130.73173,7.89189189 128.770323,9.31081081 C128.424714,9.56552942 128.100753,9.84847805 127.80176,10.1567568 C127.011429,10.9413299 126.302726,11.8043207 125.686569,12.7324324 C124.80434,13.9756757 123.89783,15.2702703 123.617243,16.7540541 C123.053372,19.727027 125.074135,22.5459459 125.44915,25.5378378 C126.285513,32.2324324 118.89044,38.172973 120.290674,44.7783784 C120.664308,46.4011282 121.489385,47.8845726 122.670264,49.0567568 C119.786158,51.672973 117.331026,54.2108108 117.331026,54.2108108 L117.331026,54.3621622 L116.875073,54.3621622 L116.920938,54.9027027 L116.875073,54.9027027 L117.125982,57.8351351 L116.875073,62.1054054 C116.875073,62.1054054 116.875073,62.1513514 116.875073,62.2378378 L116.875073,62.2594595 L116.875073,62.3756757 C116.875073,62.3756757 116.875073,62.4216216 116.875073,62.5081081 L116.891261,62.5081081 C116.974897,64.072973 117.306745,69.7 117.700645,70.8864865 C118.164692,72.2621622 118.399413,79.0567568 118.399413,79.0567568 C118.399413,79.0567568 118.912023,88.6594595 119.381466,89.9297297 C119.850909,91.2 119.184516,95.8135135 121.620762,96.9027027 L121.620762,96.9027027 C122.333475,97.4503649 123.177331,97.8008048 124.067801,97.9189189 C123.943695,98.9297297 124.021935,99.6621622 124.42393,99.8918919 C124.595994,99.9932227 124.790967,100.049028 124.990499,100.054054 C124.825208,100.299632 124.67822,100.557087 124.550733,100.824324 C123.583741,100.723188 122.633585,100.498854 121.723284,100.156757 C119.106276,99.0756757 110.421584,96.6432432 107.899003,98.3540541 C105.376422,100.064865 99.3060411,101.616216 102.109208,108.502703 C104.912375,115.389189 106.218182,115.562162 106.218182,115.562162 C107.081029,116.189641 107.837952,116.951548 108.460176,117.818919 C109.301935,119.086486 117.144868,121.986486 119.106276,121.986486 C119.939955,121.97362 120.773585,122.01515 121.601877,122.110811 C121.601877,122.110811 119.473196,123.981081 119.756481,125.067568 C120.039765,126.154054 119.108974,134.851351 119.108974,134.851351 C119.108974,134.851351 121.267331,137.02973 122.190029,134.172973 L122.222405,134.216216 C122.395073,134.451351 123.328563,135.513514 125.084927,134.172973 C125.803741,133.626669 126.567268,133.142069 127.36739,132.724324 L135.87132,131.518919 C136.757916,131.463406 137.6469,131.45709 138.534194,131.5 C139.883167,131.610811 141.207859,130.810811 142.041525,130.191892 C143.803284,130.862162 145.783578,131.594595 146.725161,131.862162 C148.635308,132.402703 157.414428,134.762162 159.467566,134.024324 C159.894344,133.854331 160.273823,133.583592 160.573724,133.235135 L162.532434,133.297297 L161.615132,133.481081 C161.615132,133.481081 163.401173,133.510811 165.829326,133.543243 L165.726804,133.602703 L168.772786,133.575676 C173.229795,133.616216 178.237185,133.62973 178.895484,133.481081 C179.9261,133.251351 185.281525,133.413514 186.859824,133.481081 L187.299589,133.481081 C187.299589,133.481081 193.183812,132.305405 190.75566,126.324324 C188.88868,121.72973 183.150147,120.394595 180.603284,120.027027 C181.320938,119.883784 181.938768,119.772973 182.348856,119.708108 C184.126804,119.437838 187.580176,117.816216 187.860762,117.262162 C188.141349,116.708108 191.036246,115.1 191.783578,114.183784 C192.530909,113.267568 194.664985,106.772973 192.892434,101.97027 Z M144.154018,115.410811 L143.865337,115.505405 L143.671085,115.57027 L143.298768,115.937838 C143.001994,115.737838 142.683636,115.527027 142.351789,115.310811 C142.937243,115.345946 143.538886,115.381081 144.154018,115.410811 Z" id="Shape" fill="url(#linearGradient-1)" fill-rule="nonzero"></path>
                <path d="M161.356129,86.9135135 C161.356129,86.9135135 165.483988,97.7243243 167.831202,96.6432432 C170.178416,95.5621622 169.541701,90.9675676 169.98956,89.7081081 C170.437419,88.4486486 170.933842,78.8972973 170.933842,78.8972973 C170.933842,78.8972973 171.160469,72.1405405 171.608328,70.772973 C172.023812,69.5162162 172.361056,63.1783784 172.417713,62.1810811 C172.417713,62.0945946 172.417713,62.0486486 172.417713,62.0486486 L171.972551,54.2108108 L169.452669,53.5810811 L163.608915,55.7432432 L162.799531,60.372973 L162.483871,62.1810811 L162.348974,62.9513514 L161.356129,86.9135135 Z" id="Path" fill="#BE6F72" fill-rule="nonzero"></path>
                <path d="M162.715894,85.1027027 C162.715894,85.1027027 166.654897,88.3324324 167.841994,88.6162162 C169.029091,88.9 169.757537,91.4189189 169.757537,91.4189189" id="Path" fill="#000000" fill-rule="nonzero" opacity="0.1"></path>
                <path d="M129.075191,87.3864865 C129.075191,87.3864865 124.947331,98.1972973 122.600117,97.1162162 C120.252903,96.0351351 120.889619,91.4405405 120.44176,90.1810811 C119.9939,88.9216216 119.497478,79.3702703 119.497478,79.3702703 C119.497478,79.3702703 119.27085,72.6135135 118.822991,71.2459459 C118.407507,69.9891892 118.070264,63.6513514 118.013607,62.6540541 C118.013607,62.5675676 118.013607,62.5216216 118.013607,62.5216216 L118.461466,54.6837838 L120.981349,54.0540541 L126.825103,56.2162162 L127.634487,60.8459459 L127.950147,62.6540541 L128.085044,63.4243243 L129.075191,87.3864865 Z" id="Path" fill="#BE6F72" fill-rule="nonzero"></path>
                <rect id="Rectangle" fill="#3E373A" fill-rule="nonzero" x="146.741349" y="29.5324324" width="9.21348974" height="14.3864865"></rect>
                <rect id="Rectangle" fill="#000000" fill-rule="nonzero" opacity="0.1" x="146.741349" y="29.5324324" width="9.21348974" height="14.3864865"></rect>
                <path d="M127.456422,98.1540541 C127.456422,98.1540541 124.307918,101.621622 125.476129,102.251351 C126.64434,102.881081 134.20129,114.683784 134.20129,114.683784 C134.20129,114.683784 159.022405,117.745946 163.703343,113.151351 C168.384282,108.556757 168.289995,100.348649 168.289995,100.348649 C168.289995,100.348649 164.528915,101.159459 164.118827,100.718919 C163.708739,100.278378 161.455953,98.1540541 161.455953,98.1540541 C161.455953,98.1540541 129.61478,96.2189189 127.456422,98.1540541 Z" id="Path" fill="#4B4B5B" fill-rule="nonzero"></path>
                <path d="M127.456422,98.1540541 C127.456422,98.1540541 124.307918,101.621622 125.476129,102.251351 C126.64434,102.881081 134.20129,114.683784 134.20129,114.683784 C134.20129,114.683784 159.022405,117.745946 163.703343,113.151351 C168.384282,108.556757 168.289995,100.348649 168.289995,100.348649 C168.289995,100.348649 164.528915,101.159459 164.118827,100.718919 C163.708739,100.278378 161.455953,98.1540541 161.455953,98.1540541 C161.455953,98.1540541 129.61478,96.2189189 127.456422,98.1540541 Z" id="Path" fill="#000000" fill-rule="nonzero" opacity="0.02"></path>
                <path d="M172.139824,54.3243243 L164.045982,60.8108108 L161.598944,60.9891892 L160.700528,61.0540541 L145.610909,62.1621622 L129.962815,61.0162162 L127.634487,60.8459459 L124.666745,60.6297297 L118.461466,54.6837838 C118.461466,54.6837838 122.853724,49.9702703 126.700997,46.7891892 C128.217243,45.5324324 129.649853,44.5162162 130.693959,44.1162162 L130.872023,44.0540541 C131.528752,43.797494 132.11508,43.3880088 132.582522,42.8594595 C135.620411,39.7216216 138.428974,31.9783784 138.428974,31.9783784 C138.428974,31.9783784 151.829677,25.0432432 150.210909,34.1405405 C148.592141,43.2378378 156.235425,40.9891892 156.235425,40.9891892 L158.755308,42.1405405 L159.75085,42.5972973 L162.289619,43.7621622 L168.017361,46.3945946 C172.512141,48.4675676 172.139824,54.3243243 172.139824,54.3243243 Z" id="Path" fill="#BE6F72" fill-rule="nonzero"></path>
                <ellipse id="Oval" fill="#000000" fill-rule="nonzero" opacity="0.1" cx="144.982287" cy="27.3135135" rx="12.0517302" ry="12.072973"></ellipse>
                <path d="M172.15871,62.9243243 L118.013607,62.9243243 C118.013607,62.8378378 118.013607,62.7918919 118.013607,62.7918919 L118.461466,54.9540541 C118.461466,54.9540541 122.853724,50.2405405 126.700997,47.0594595 L160.695132,45.7081081 L162.276129,44.0378378 L168.003871,46.6702703 C172.501349,48.7405405 172.139824,54.5972973 172.139824,54.5972973 C172.139824,54.5972973 172.754956,61.3837838 172.15871,62.9243243 Z" id="Path" fill="#000000" fill-rule="nonzero" opacity="0.1"></path>
                <path d="M172.15871,62.6540541 L118.013607,62.6540541 C118.013607,62.5675676 118.013607,62.5216216 118.013607,62.5216216 L118.461466,54.6837838 C118.461466,54.6837838 122.853724,49.9702703 126.700997,46.7891892 L160.695132,45.4378378 L162.276129,43.7675676 L168.003871,46.4 C172.501349,48.4702703 172.139824,54.327027 172.139824,54.327027 C172.139824,54.327027 172.754956,61.1135135 172.15871,62.6540541 Z" id="Path" fill="#E7C7CA" fill-rule="nonzero"></path>
                <path d="M136.302991,40.6756757 C136.302991,40.6756757 144.844692,51.5783784 156.221935,40.4513514 C167.599179,29.3243243 157.481877,65.2702703 157.481877,65.2702703 L132.930557,68.1891892 L136.302991,40.6756757 Z" id="Path" fill="#000000" fill-rule="nonzero" opacity="0.1"></path>
                <path d="M136.302991,41.2162162 C136.302991,41.2162162 144.844692,52.1189189 156.221935,40.9918919 C167.599179,29.8648649 157.481877,65.8108108 157.481877,65.8108108 L132.930557,68.7297297 L136.302991,41.2162162 Z" id="Path" fill="#E7C7CA" fill-rule="nonzero"></path>
                <path d="M159.737361,43.1297297 L160.641173,56.9378378 L161.609736,61.5324324 L162.348974,65.0459459 C162.348974,65.0459459 164.237537,92.072973 163.697947,93.4243243 C163.158358,94.7756757 163.967742,95.8567568 164.081056,96.5756757 C164.19437,97.2945946 163.967742,99.1 164.056774,99.9108108 C164.145806,100.721622 164.056774,101.081081 161.990147,100.791892 C159.923519,100.502703 157.042111,100 157.042111,100 C157.042111,100 149.757654,100.540541 147.240469,99.6405405 C144.723284,98.7405405 139.956012,98.7378378 139.956012,98.7378378 C139.956012,98.7378378 132.760587,98.9189189 130.424164,98.6486486 C128.087742,98.3783784 126.825103,101.532432 125.298065,100.62973 C123.771026,99.727027 127.094897,90.9918919 128.174076,88.4675676 C129.253255,85.9432432 126.73607,79.5486486 126.73607,79.5486486 L129.973607,61.5567568 L130.693959,57.4783784 L130.693959,44.6567568 L130.872023,44.5945946 C131.528752,44.3380346 132.11508,43.9285493 132.582522,43.4 L133.391906,56.3027027 L158.75261,57.2054054 L158.75261,42.6837838" id="Path" fill="#000000" fill-rule="nonzero" opacity="0.1"></path>
                <path d="M159.737361,42.5891892 L160.641173,56.3972973 L161.609736,60.9918919 L162.348974,64.5054054 C162.348974,64.5054054 164.237537,91.5324324 163.697947,92.8837838 C163.158358,94.2351351 163.967742,95.3162162 164.081056,96.0351351 C164.19437,96.7540541 163.967742,98.5594595 164.056774,99.3702703 C164.145806,100.181081 164.056774,100.540541 161.990147,100.251351 C159.923519,99.9621622 157.042111,99.4594595 157.042111,99.4594595 C157.042111,99.4594595 149.757654,100 147.240469,99.1 C144.723284,98.2 139.956012,98.1972973 139.956012,98.1972973 C139.956012,98.1972973 132.760587,98.3783784 130.424164,98.1081081 C128.087742,97.8378378 126.825103,100.991892 125.298065,100.089189 C123.771026,99.1864865 127.094897,90.4513514 128.174076,87.927027 C129.253255,85.4027027 126.73607,79.0081081 126.73607,79.0081081 L129.973607,61.0162162 L130.693959,56.9378378 L130.693959,44.1162162 L130.872023,44.0540541 C131.528752,43.797494 132.11508,43.3880088 132.582522,42.8594595 L133.391906,55.7621622 L158.75261,56.6648649 L158.75261,42.1432432" id="Path" fill="#E7C7CA" fill-rule="nonzero"></path>
                <path d="M162.653842,13.772973 C162.500059,13.2081081 162.286921,12.6216216 161.844457,12.2432432 C161.421948,11.939326 160.933943,11.7393354 160.419941,11.6594595 C159.189349,11.3352966 157.938228,11.0951059 156.675191,10.9405405 C156.494759,10.3404075 156.221659,9.77226858 155.865806,9.25675676 C153.221818,5.51621622 149.309795,1.98918919 144.707097,1.19189189 C142.29783,0.772972973 139.505455,1.14864865 137.962229,3.05135135 C137.115073,4.0972973 136.75085,5.48378378 135.895601,6.51081081 C134.247155,8.50540541 131.27132,8.75135135 129.1939,10.2945946 C128.085044,11.1054054 127.281056,12.2810811 126.495953,13.4216216 C125.6461,14.6567568 124.771965,15.9432432 124.50217,17.4189189 C123.962581,20.3675676 125.907801,23.1783784 126.266628,26.1540541 C127.076012,32.8108108 119.953431,38.7162162 121.299707,45.2837838 C122.084809,49.1135135 125.616422,51.8108108 129.269443,53.1783784 C130.556364,53.6621622 132.026745,54.1432432 132.628387,55.3810811 C132.898182,55.9216216 132.944047,56.5459459 133.197654,57.0918919 C134.050205,58.9135135 136.853372,58.9837838 138.358827,57.6567568 C139.864282,56.3297297 140.33912,54.1837838 140.517185,52.1810811 C141.240235,43.4351351 137.743695,34.7945946 138.151085,26.027027 C138.272493,23.3756757 139.017126,20.3675676 141.388622,19.1675676 C144.580293,17.5459459 148.419472,20.2486486 151.932199,19.7324324 C153.594468,23.7841571 153.947349,28.2558785 152.941232,32.5189189 C152.382757,34.8513514 151.416891,37.1135135 151.346745,39.5189189 C151.241525,43.1810811 153.213724,46.527027 154.918827,49.7648649 C155.284695,50.3703343 155.529366,51.0413814 155.639179,51.7405405 C155.666018,52.4499217 155.534201,53.1563401 155.253372,53.8081081 C154.290205,56.4054054 152.62827,58.8162162 152.439413,61.5810811 C152.384071,61.9038311 152.456672,62.2354742 152.64176,62.5054054 C152.831847,62.6855607 153.077151,62.7960467 153.33783,62.8189189 C156.251613,63.3189189 158.771496,60.7324324 160.193314,58.1351351 C161.778522,55.2664429 162.702244,52.0785107 162.896657,48.8054054 C163.190733,43.3027027 161.221232,37.8891892 161.342639,32.3810811 C161.482933,26.1189189 164.307683,19.8135135 162.653842,13.772973 Z" id="Path" fill="#000000" fill-rule="nonzero" opacity="0.1"></path>
                <path d="M162.923636,13.5027027 C162.769853,12.9378378 162.556716,12.3513514 162.114252,11.972973 C161.691743,11.6690557 161.203737,11.4690651 160.689736,11.3891892 C159.459143,11.0650263 158.208023,10.8248356 156.944985,10.6702703 C156.764554,10.0701372 156.491453,9.50199831 156.135601,8.98648649 C153.491613,5.24594595 149.579589,1.71891892 144.976891,0.921621622 C142.567625,0.502702703 139.775249,0.878378378 138.232023,2.78108108 C137.384868,3.82702703 137.020645,5.21351351 136.165396,6.24054054 C134.51695,8.23513514 131.541114,8.48108108 129.463695,10.0243243 C128.354839,10.8351351 127.55085,12.0108108 126.765748,13.1513514 C125.915894,14.3864865 125.04176,15.672973 124.771965,17.1486486 C124.232375,20.0972973 126.177595,22.9081081 126.536422,25.8837838 C127.345806,32.5405405 120.223226,38.4459459 121.569501,45.0135135 C122.354604,48.8432432 125.886217,51.5405405 129.539238,52.9081081 C130.826158,53.3918919 132.29654,53.872973 132.898182,55.1108108 C133.167977,55.6513514 133.213842,56.2756757 133.467449,56.8216216 C134.32,58.6432432 137.123167,58.7135135 138.628622,57.3864865 C140.134076,56.0594595 140.608915,53.9135135 140.786979,51.9108108 C141.510029,43.1648649 138.01349,34.5243243 138.42088,25.7567568 C138.542287,23.1054054 139.286921,20.0972973 141.658416,18.8972973 C144.850088,17.2756757 148.689267,19.9783784 152.201994,19.4621622 C153.864262,23.5138868 154.217144,27.9856082 153.211026,32.2486486 C152.652551,34.5810811 151.686686,36.8432432 151.61654,39.2486486 C151.51132,42.9108108 153.483519,46.2567568 155.188622,49.4945946 C155.55449,50.1000641 155.79916,50.7711111 155.908974,51.4702703 C155.935813,52.1796514 155.803996,52.8860698 155.523167,53.5378378 C154.56,56.1351351 152.898065,58.5459459 152.709208,61.3108108 C152.653866,61.6335608 152.726466,61.965204 152.911554,62.2351351 C153.101641,62.4152904 153.346945,62.5257765 153.607625,62.5486486 C156.521408,63.0486486 159.04129,60.4621622 160.463109,57.8648649 C162.048317,54.9961727 162.972039,51.8082404 163.166452,48.5351351 C163.460528,43.0324324 161.491026,37.6189189 161.612434,32.1108108 C161.752727,25.8486486 164.577478,19.5432432 162.923636,13.5027027 Z" id="Path" fill="#3E373A" fill-rule="nonzero"></path>
                <polygon id="Path" fill="#C3C7D9" fill-rule="nonzero" points="156.963871 133.17027 167.666628 133.513514 166.131496 125.562162 157.932434 126.343243"></polygon>
                <path d="M190.127038,114.324324 C189.406686,115.224324 186.619707,116.845946 186.349912,117.386486 C186.080117,117.927027 182.753548,119.548649 181.04305,119.818919 C179.332551,120.089189 173.939355,121.262162 172.949208,121.891892 C172.239648,122.345946 166.544282,123.783784 162.802229,124.581081 C161.788662,124.821293 160.762835,125.00625 159.729267,125.135135 C158.110499,125.224324 140.395777,119.189189 140.395777,119.189189 L143.811378,115.675676 L144.000235,115.610811 C144.9661,115.283784 149.428504,113.772973 151.90522,113.054054 C154.694897,112.243243 157.932434,108.910811 157.932434,108.910811 C157.932434,108.910811 162.697009,107.289189 163.328328,107.108108 C163.959648,106.927027 161.70956,100.802703 161.70956,100.802703 C161.70956,100.802703 172.050792,99.3648649 176.097713,98.1459459 C180.144633,96.927027 189.498416,97.3783784 191.206217,102.154054 C192.914018,106.92973 190.858182,113.424324 190.127038,114.324324 Z" id="Path" fill="#4B4B5B" fill-rule="nonzero"></path>
                <path d="M143.001994,129.548649 C143.001994,129.548649 140.935367,131.710811 138.866041,131.532432 C136.796716,131.354054 129.560821,132.072973 129.560821,132.072973 C128.249527,132.596951 127.021607,133.309872 125.915894,134.189189 C124.224282,135.524324 123.325865,134.459459 123.158592,134.232432 L123.128915,134.189189 C122.227801,137.02973 120.161173,134.864865 120.161173,134.864865 C120.161173,134.864865 121.059589,126.216216 120.784399,125.135135 C120.509208,124.054054 122.562346,122.197297 122.562346,122.197297 L124.990499,121.578378 L131.141818,120 L139.956012,123.062162 L143.001994,129.548649 Z" id="Path" fill="#E7C7CA" fill-rule="nonzero"></path>
                <path d="M124.979707,121.578378 L123.158592,134.232432 L123.128915,134.189189 C122.227801,137.02973 120.161173,134.864865 120.161173,134.864865 C120.161173,134.864865 121.059589,126.216216 120.784399,125.135135 C120.509208,124.054054 122.562346,122.197297 122.562346,122.197297 L124.979707,121.578378 Z" id="Path" fill="#000000" fill-rule="nonzero" opacity="0.1"></path>
                <path d="M137.708622,85.5837838 C137.708622,85.5837838 142.473196,87.2054054 146.611848,85.5837838" id="Path" fill="#000000" fill-rule="nonzero" opacity="0.1"></path>
                <path d="M153.974545,88.6486486 C153.974545,88.6486486 155.952141,89.6378378 157.481877,88.6486486" id="Path" fill="#000000" fill-rule="nonzero" opacity="0.1"></path>
                <path d="M153.974545,90.9945946 C153.974545,90.9945946 157.301114,91.4405405 157.932434,90.5405405" id="Path" fill="#000000" fill-rule="nonzero" opacity="0.1"></path>
                <path d="M152.895367,96.0351351 C152.895367,96.0351351 159.143812,95.2243243 160.695132,94.1432432" id="Path" fill="#000000" fill-rule="nonzero" opacity="0.1"></path>
                <path d="M133.828974,94.1432432 C133.828974,94.1432432 137.336305,96.1243243 139.94522,96.0351351" id="Path" fill="#000000" fill-rule="nonzero" opacity="0.1"></path>
                <path d="M162.799531,124.581081 C161.785964,124.821293 160.760137,125.00625 159.726569,125.135135 C158.107801,125.224324 140.393079,119.189189 140.393079,119.189189 L143.80868,115.675676 L143.997537,115.610811 C144.537126,115.991892 144.979589,116.318919 145.295249,116.567568 C146.781818,117.740541 148.217126,116.208108 148.756716,116.208108 C149.296305,116.208108 153.971848,120.081081 153.971848,120.081081 C153.971848,120.081081 158.288563,121.072973 159.008915,121.972973 C159.729267,122.872973 162.246452,122.694595 162.694311,123.324324 C162.829208,123.518919 162.845396,123.997297 162.799531,124.581081 Z" id="Path" fill="#000000" fill-rule="nonzero" opacity="0.1"></path>
                <path d="M129.560821,101.17027 C129.560821,101.17027 125.195543,101.421622 122.678358,100.359459 C120.161173,99.2972973 111.797537,96.8459459 109.369384,98.5675676 C106.941232,100.289189 101.09478,101.810811 103.792727,108.659459 C106.490674,115.508108 107.750616,115.686486 107.750616,115.686486 C108.585372,116.31359 109.314114,117.070993 109.908974,117.92973 C110.718358,119.191892 118.27261,122.072973 120.161173,122.072973 C122.049736,122.072973 125.376305,122.072973 130.051848,125.316216 C134.72739,128.559459 138.955073,128.921622 138.955073,128.921622 C138.955073,128.921622 144.890557,131.354054 146.738651,131.894595 C148.586745,132.435135 157.03132,134.775676 159.011613,134.056757 C160.991906,133.337838 162.24915,128.82973 162.24915,128.82973 C162.24915,128.82973 163.147566,124.775676 162.697009,124.145946 C162.246452,123.516216 159.729267,123.694595 159.011613,122.794595 C158.293959,121.894595 153.974545,120.902703 153.974545,120.902703 C153.974545,120.902703 149.309795,117.027027 148.770205,117.027027 C148.230616,117.027027 146.795308,118.556757 145.308739,117.386486 C142.347495,115.189304 139.236353,113.202466 135.998123,111.440541 C132.582522,109.637838 129.560821,101.17027 129.560821,101.17027 Z" id="Path" fill="#4B4B5B" fill-rule="nonzero"></path>
                <path d="M120.784399,103.783784 C122.359913,103.461341 123.995369,103.894166 125.206334,104.954054 C127.364692,106.756757 134.627566,110.375676 134.627566,110.375676" id="Path" fill="#000000" fill-rule="nonzero" opacity="0.1"></path>
                <path d="M174.748739,103.67027 C174.748739,103.67027 165.125161,105.12973 163.328328,107.110811" id="Path" fill="#000000" fill-rule="nonzero" opacity="0.1"></path>
                <path d="M185.810323,133.513514 L185.386745,133.513514 C183.865103,133.459459 178.709326,133.297297 177.716481,133.513514 C176.54827,133.783784 161.07824,133.513514 161.07824,133.513514 L164.102639,132.883784 C164.102639,132.883784 162.980293,128.943243 163.692551,128.616216 C163.692551,128.616216 159.64563,125.945946 162.697009,124.143243 C165.748387,122.340541 169.037185,123.1 169.037185,123.1 L176.696657,120.5 L178.167038,120 C178.167038,120 186.800469,120.451351 189.136891,126.397297 C191.473314,132.343243 185.810323,133.513514 185.810323,133.513514 Z" id="Path" fill="#E7C7CA" fill-rule="nonzero"></path>
                <path d="M185.810323,133.513514 L185.386745,133.513514 C187.898534,131.437838 193.580411,125.118919 176.696657,120.513514 L178.167038,120.013514 C178.167038,120.013514 186.800469,120.464865 189.136891,126.410811 C191.473314,132.356757 185.810323,133.513514 185.810323,133.513514 Z" id="Path" fill="#000000" fill-rule="nonzero" opacity="0.1"></path>
                <ellipse id="Oval" fill="#4B4B5B" fill-rule="nonzero" cx="169.938299" cy="126.035135" rx="1" ry="1"></ellipse>
                <ellipse id="Oval" fill="#4B4B5B" fill-rule="nonzero" cx="167.194487" cy="126.816216" rx="1" ry="1"></ellipse>
                <g id="Group" opacity="0.1" transform="translate(121.407625, 16.756757)" fill="#000000" fill-rule="nonzero">
                    <path d="M32.4185337,10.1108108 C32.5231672,7.1380583 31.995275,4.17702009 30.869912,1.42432432 C27.3625806,1.94864865 23.5207038,-0.762162162 20.3263343,0.859459459 C17.9629326,2.05945946 17.2209971,5.06756757 17.0887977,7.71891892 C17.0564223,8.41891892 17.0510264,9.11891892 17.0645161,9.81891892 C17.0645161,9.57027027 17.0645161,9.31891892 17.0887977,9.07027027 C17.2129032,6.41891892 17.9548387,3.41081081 20.3263343,2.21081081 C23.5207038,0.589189189 27.3571848,3.29189189 30.869912,2.77567568 C31.8229739,5.10731036 32.3476099,7.59227866 32.4185337,10.1108108 Z" id="Path"></path>
                    <path d="M5.23941349,9.61621622 C5.28562267,9.02730074 5.27387497,8.43525934 5.20434018,7.84864865 C4.91835777,5.47027027 3.62064516,3.1972973 3.38592375,0.878378378 C3.08375367,3.67567568 4.86170088,6.36216216 5.20434018,9.2 C5.23941349,9.34594595 5.23941349,9.47567568 5.23941349,9.61621622 Z" id="Path"></path>
                    <path d="M19.4548974,33.8702703 C19.2876246,35.8756757 18.8154839,38.0189189 17.2965396,39.3486486 C15.7775953,40.6783784 12.979824,40.6054054 12.1353666,38.7837838 C11.8655718,38.2432432 11.8251026,37.6135135 11.5634018,37.072973 C10.9644575,35.8351351 9.4913783,35.3540541 8.20445748,34.8702703 C4.548739,33.5 1.02252199,30.8162162 0.237419355,26.9756757 C0.167284293,26.6277523 0.119522303,26.2756767 0.0944281525,25.9216216 C0.0280797705,26.7261604 0.0762250303,27.5360624 0.237419355,28.327027 C1.02252199,32.1567568 4.5541349,34.8513514 8.20445748,36.2216216 C9.4913783,36.7054054 10.9644575,37.1864865 11.5634018,38.4243243 C11.8331965,38.9648649 11.8790616,39.5891892 12.1353666,40.1351351 C12.9852199,41.9567568 15.7883871,42.027027 17.2965396,40.7 C18.8046921,39.372973 19.2741349,37.227027 19.4548974,35.2216216 C19.5370388,34.1660987 19.5649544,33.1070432 19.5385337,32.0486486 C19.5385337,32.6621622 19.5034604,33.2675676 19.4548974,33.8702703 Z" id="Path"></path>
                    <path d="M40.2938416,14.072973 C40.2938416,14.4648649 40.2938416,14.8540541 40.2938416,15.2432432 C40.4449267,10.2162162 42.2849267,5.16216216 42.1041642,0.240540541 C41.963871,4.79189189 40.3963636,9.44594595 40.2938416,14.072973 Z" id="Path"></path>
                    <path d="M34.5040469,34.4081081 C34.5704085,34.0874215 34.5912984,33.7589628 34.5660997,33.4324324 C34.4574355,32.7329761 34.2126855,32.0617116 33.8457478,31.4567568 C32.2863343,28.4837838 30.5083871,25.4405405 30.2979472,22.1405405 C30.2979472,22.2810811 30.2790616,22.4108108 30.2763636,22.5621622 C30.1684457,26.2216216 32.1406452,29.5702703 33.8457478,32.8081081 C34.1355353,33.3095922 34.3569383,33.8477136 34.5040469,34.4081081 L34.5040469,34.4081081 Z" id="Path"></path>
                    <path d="M41.8451613,30.4972973 C41.6437564,33.7716795 40.7136306,36.9594431 39.1229326,39.827027 C37.6984164,42.4243243 35.1812317,45.0108108 32.2647507,44.5108108 C32.0034553,44.4882524 31.757776,44.3766433 31.5686804,44.1945946 C31.5138853,44.1326939 31.4709045,44.0612384 31.4418768,43.9837838 C31.4095015,44.1945946 31.382522,44.4081081 31.3663343,44.6243243 C31.3105515,44.946226 31.3832177,45.2771976 31.5686804,45.5459459 C31.757776,45.7279947 32.0034553,45.8396037 32.2647507,45.8621622 C35.1812317,46.3621622 37.6984164,43.7756757 39.1229326,41.1783784 C40.7136306,38.3107945 41.6437564,35.1230308 41.8451613,31.8486486 C41.8775367,31.2162162 41.8802346,30.5864865 41.861349,29.9567568 C41.8559531,30.1378378 41.8559531,30.3162162 41.8451613,30.4972973 Z" id="Path"></path>
                </g>
                <path d="M163.692551,128.616216 C163.692551,128.616216 170.521056,131.486486 175.02393,125.135135" id="Path" stroke="#000000" stroke-width="0.5" opacity="0.1"></path>
                <path d="M165.036129,133.632432 C165.036129,133.632432 170.612786,130 177.716481,133.513514" id="Path" stroke="#000000" stroke-width="0.5" opacity="0.1"></path>
                <path d="M127.707331,132.808108 C127.707331,132.808108 130.04915,127.516216 136.302991,131.551351" id="Path" stroke="#000000" stroke-width="0.5" opacity="0.1"></path>
                <path d="M120.115308,54.5486486 L124.890674,50.2243243 C124.890674,50.2243243 143.406686,49.0081081 144.172903,55.3135135 C144.172903,55.3135135 150.737009,47.8378378 164.542405,49.5027027 L170.38346,54.1621622 L154.238944,61.2594595 L138.550381,66.7108108 L126.995073,61.5297297 L120.115308,54.5486486 Z" id="Path" fill="#000000" fill-rule="nonzero" opacity="0.1"></path>
                <path d="M120.115308,54.8189189 L124.890674,50.4945946 C124.890674,50.4945946 143.406686,49.2783784 144.172903,55.5837838 C144.172903,55.5837838 150.737009,48.1081081 164.542405,49.772973 L170.38346,54.4324324 L154.238944,61.5297297 L138.550381,66.9810811 L126.995073,61.8 L120.115308,54.8189189 Z" id="Path" fill="#D5D6DB" fill-rule="nonzero"></path>
                <polygon id="Path" fill="#000000" fill-rule="nonzero" opacity="0.1" points="118.002815 55.3594595 120.115308 80.6756757 142.50827 81.8027027 141.537009 56.5945946 141.518123 56.1702703"></polygon>
                <polygon id="Path" fill="#57B99B" fill-rule="nonzero" points="118.002815 54.8189189 120.115308 80.1351351 142.50827 81.2621622 141.537009 56.0540541 141.518123 55.6297297"></polygon>
                <polygon id="Path" fill="#000000" fill-rule="nonzero" opacity="0.1" points="171.40868 54.8189189 148.308856 58.2891892 148.308856 83.7189189 170.882581 80.4513514"></polygon>
                <polygon id="Path" fill="#57B99B" fill-rule="nonzero" points="171.40868 54.2783784 148.308856 57.7486486 148.308856 83.1783784 170.882581 79.9108108"></polygon>
                <polygon id="Path" fill="#FFFFFF" fill-rule="nonzero" opacity="0.3" points="165.961525 60.4837838 153.483519 61.872973 153.756012 66.1324324 165.953431 64.7972973"></polygon>
                <path d="M121.329384,93.6918919 L122.600117,97.1162162 C122.600117,97.1162162 124.48868,98.7378378 126.555308,97.927027 C128.621935,97.1162162 130.424164,96.7135135 131.322581,95.9243243 C132.220997,95.1351351 133.480938,91.1702703 133.480938,91.1702703 C133.480938,91.1702703 134.74088,86.8459459 135.998123,85.7648649 C137.255367,84.6837838 140.584633,69.7891892 135.998123,71.2459459 C131.411613,72.7027027 127.904282,86.2162162 127.904282,86.2162162 C127.904282,86.2162162 127.094897,87.2054054 125.926686,87.2972973 C124.758475,87.3891892 122.419355,87.1162162 121.968798,88.1081081 C121.51824,89.1 119.980411,91.7108108 121.329384,93.6918919 Z" id="Path" fill="#BE6F72" fill-rule="nonzero"></path>
                <path d="M148.308856,58.2864865 C145.91065,58.8278488 143.39817,58.2003757 141.534311,56.5945946 L142.50827,81.8 C142.50827,81.8 144.801525,84.2864865 148.308856,83.7189189 L148.308856,58.2864865 Z" id="Path" fill="#000000" fill-rule="nonzero" opacity="0.1"></path>
                <path d="M148.308856,57.7459459 C145.91065,58.2873082 143.39817,57.6598351 141.534311,56.0540541 L142.50827,81.2594595 C142.50827,81.2594595 144.801525,83.7459459 148.308856,83.1783784 L148.308856,57.7459459 Z" id="Path" fill="#57B99B" fill-rule="nonzero"></path>
                <path d="M148.308856,57.7459459 C145.91065,58.2873082 143.39817,57.6598351 141.534311,56.0540541 L142.50827,81.2594595 C142.50827,81.2594595 144.801525,83.7459459 148.308856,83.1783784 L148.308856,57.7459459 Z" id="Path" fill="#000000" fill-rule="nonzero" opacity="0.1"></path>
                <path d="M148.848446,54.9054054 C148.848446,54.9054054 158.245396,52.027027 160.695132,52.4324324" id="Path" fill="#000000" fill-rule="nonzero" opacity="0.1"></path>
                <path d="M138.337243,53.6486486 C138.337243,53.6486486 129.228974,51.4864865 127.707331,52.1" id="Path" fill="#000000" fill-rule="nonzero" opacity="0.1"></path>
                <path d="M154.773138,55.2648649 C154.773138,55.2648649 161.056657,52.9567568 163.328328,54.0540541" id="Path" fill="#000000" fill-rule="nonzero" opacity="0.1"></path>
                <path d="M151.608446,113.164865 C152.58214,112.432321 153.618591,111.787467 154.705689,111.237838 C156.324457,110.456757 159.292199,108.42973 159.292199,108.42973" id="Path" fill="#000000" fill-rule="nonzero" opacity="0.1"></path>
                <path d="M127.707331,85.5837838 C127.707331,85.5837838 123.76563,88.8135135 122.581232,89.0972973 C121.396833,89.3810811 120.665689,91.9 120.665689,91.9" id="Path" fill="#000000" fill-rule="nonzero" opacity="0.1"></path>
                <path d="M169.091144,93.2108108 L167.8339,96.6432432 C167.8339,96.6432432 165.945337,98.2648649 163.876012,97.4540541 C161.806686,96.6432432 160.009853,96.2405405 159.108739,95.4513514 C158.207625,94.6621622 156.950381,90.6972973 156.950381,90.6972973 C156.950381,90.6972973 155.693138,86.372973 154.433196,85.2918919 C153.173255,84.2108108 149.846686,69.3162162 154.433196,70.772973 C159.019707,72.2297297 162.527038,85.7432432 162.527038,85.7432432 C162.527038,85.7432432 163.336422,86.7324324 164.504633,86.8243243 C165.672845,86.9162162 168.011965,86.6432432 168.462522,87.6351351 C168.913079,88.627027 170.440117,91.2378378 169.091144,93.2108108 Z" id="Path" fill="#BE6F72" fill-rule="nonzero"></path>
                <path d="M166.886921,86.8972973 C166.886921,86.8972973 169.46346,88.5567568 169.452669,90.5405405" id="Path" fill="#000000" fill-rule="nonzero" opacity="0.1"></path>
                <ellipse id="Oval" fill="#BE6F72" fill-rule="nonzero" cx="145.025455" cy="26.7216216" rx="12.0517302" ry="12.072973"></ellipse>
                <path d="M137.457713,23.4810811 C138.92,23.2513514 140.201525,22.4 141.599062,21.9108108 C144.725982,20.8108108 148.184751,21.5648649 151.349443,22.5567568 C152.563519,22.9378378 153.796481,23.3675676 155.069912,23.3675676 C156.343343,23.3675676 157.695015,22.8459459 158.34522,21.7459459 C158.944164,20.7351351 158.828152,19.4216216 158.323636,18.3594595 C157.81912,17.2972973 156.974663,16.4432432 156.122111,15.6378378 C153.316246,12.9837838 149.835894,10.5027027 145.985924,10.772973 C144.437302,10.8837838 142.956129,11.4378378 141.531613,12.0513514 C139.73792,12.8256755 137.991944,13.7065199 136.302991,14.6891892 C135.005279,15.4432432 132.601408,16.4513514 131.854076,17.8297297 C130.15437,20.9351351 134.813724,23.8972973 137.457713,23.4810811 Z" id="Path" fill="#3E373A" fill-rule="nonzero"></path>
                <path d="M158.34522,20.6108108 C157.695015,21.7108108 156.343343,22.2324324 155.069912,22.2324324 C153.796481,22.2324324 152.563519,21.8189189 151.346745,21.4378378 C148.182053,20.4459459 144.725982,19.6891892 141.596364,20.7918919 C140.201525,21.2810811 138.917302,22.1432432 137.455015,22.3594595 C135.323636,22.6945946 131.891848,20.8351351 131.519531,18.4702703 C131.101349,21.2027027 135.080821,23.5432432 137.455015,23.1702703 C138.917302,22.9405405 140.201525,22.0891892 141.596364,21.6027027 C144.725982,20.5 148.182053,21.2567568 151.346745,22.2486486 C152.563519,22.6297297 153.793783,23.0594595 155.069912,23.0432432 C156.346041,23.027027 157.695015,22.5243243 158.34522,21.4216216 C158.682254,20.8217372 158.814859,20.1281292 158.722933,19.4459459 C158.680841,19.856658 158.552093,20.2537183 158.34522,20.6108108 L158.34522,20.6108108 Z" id="Path" fill="#000000" fill-rule="nonzero" opacity="0.1"></path>
                <path d="M256.148504,167.083784 C256.148504,167.083784 257.748387,169.178378 255.409267,172.343243 C253.070147,175.508108 251.143812,178.178378 251.920821,180.151351 C251.920821,180.151351 255.449736,174.275676 258.320352,174.191892 C261.190968,174.108108 259.302405,170.616216 256.148504,167.083784 Z" id="Path" fill="#57B99B" fill-rule="nonzero"></path>
                <path d="M256.148504,167.083784 C256.287826,167.286108 256.397741,167.507237 256.474956,167.740541 C259.275425,171.037838 260.770088,174.116216 258.074839,174.191892 C255.565748,174.264865 252.557537,178.759459 251.837185,179.891892 C251.860227,179.983413 251.888145,180.073633 251.920821,180.162162 C251.920821,180.162162 255.449736,174.286486 258.320352,174.202703 C261.190968,174.118919 259.302405,170.616216 256.148504,167.083784 Z" id="Path" fill="#000000" fill-rule="nonzero" opacity="0.1"></path>
                <path d="M259.116246,169.754054 C259.116246,170.491892 259.03261,171.089189 258.932786,171.089189 C258.832962,171.089189 258.746628,170.491892 258.746628,169.754054 C258.746628,169.016216 258.84915,169.364865 258.951672,169.364865 C259.054194,169.364865 259.116246,169.016216 259.116246,169.754054 Z" id="Path" fill="#FFD037" fill-rule="nonzero"></path>
                <path d="M260.138768,170.635135 C259.493959,170.986486 258.930088,171.2 258.881525,171.110811 C258.832962,171.021622 259.315894,170.662162 259.960704,170.3 C260.605513,169.937838 260.351906,170.202703 260.400469,170.3 C260.449032,170.397297 260.786276,170.281081 260.138768,170.635135 Z" id="Path" fill="#FFD037" fill-rule="nonzero"></path>
                <path d="M247.693138,167.083784 C247.693138,167.083784 246.093255,169.178378 248.432375,172.343243 C250.771496,175.508108 252.69783,178.178378 251.918123,180.151351 C251.918123,180.151351 248.391906,174.275676 245.518592,174.191892 C242.645279,174.108108 244.547331,170.616216 247.693138,167.083784 Z" id="Path" fill="#57B99B" fill-rule="nonzero"></path>
                <path d="M247.693138,167.083784 C247.553817,167.286108 247.443901,167.507237 247.366686,167.740541 C244.566217,171.037838 243.071554,174.116216 245.766804,174.191892 C248.273196,174.264865 251.284106,178.759459 252.004457,179.891892 C251.981835,179.98384 251.952991,180.074139 251.918123,180.162162 C251.918123,180.162162 248.391906,174.286486 245.518592,174.202703 C242.645279,174.118919 244.547331,170.616216 247.693138,167.083784 Z" id="Path" fill="#000000" fill-rule="nonzero" opacity="0.1"></path>
                <path d="M244.72,169.754054 C244.72,170.491892 244.800938,171.089189 244.90346,171.089189 C245.005982,171.089189 245.089619,170.491892 245.089619,169.754054 C245.089619,169.016216 244.984399,169.364865 244.884575,169.364865 C244.784751,169.364865 244.72,169.016216 244.72,169.754054 Z" id="Path" fill="#FFD037" fill-rule="nonzero"></path>
                <path d="M243.700176,170.635135 C244.344985,170.986486 244.908856,171.2 244.957419,171.110811 C245.005982,171.021622 244.52305,170.662162 243.87824,170.3 C243.233431,169.937838 243.487038,170.202703 243.438475,170.3 C243.389912,170.397297 243.052669,170.281081 243.700176,170.635135 Z" id="Path" fill="#FFD037" fill-rule="nonzero"></path>
                <ellipse id="Oval" fill="#57B99B" fill-rule="nonzero" opacity="0.1" cx="251.920821" cy="193.613514" rx="16.7272727" ry="2.57027027"></ellipse>
                <path d="M260.529971,177.327027 L260.449032,177.981081 L260.335718,178.905405 L260.289853,179.291892 L260.17654,180.216216 L260.127977,180.602703 L260.017361,181.524324 L258.735836,192.037838 C258.622522,192.975676 257.092786,193.708108 255.244692,193.708108 L248.594252,193.708108 C246.746158,193.708108 245.21912,192.975676 245.103109,192.037838 L243.821584,181.524324 L243.70827,180.602703 L243.662405,180.216216 L243.549091,179.291892 L243.500528,178.905405 L243.389912,177.981081 L243.308974,177.327027 C243.246921,176.786486 244.072493,176.348649 245.119296,176.348649 L258.722346,176.348649 C259.766452,176.348649 260.594721,176.794595 260.529971,177.327027 Z" id="Path" fill="#65617D" fill-rule="nonzero"></path>
                <polygon id="Path" fill="#9D9CB5" fill-rule="nonzero" points="260.449032 177.981081 260.338416 178.905405 243.503226 178.905405 243.389912 177.981081"></polygon>
                <polygon id="Path" fill="#9D9CB5" fill-rule="nonzero" points="260.289853 179.291892 260.179238 180.216216 243.662405 180.216216 243.549091 179.291892"></polygon>
                <polygon id="Path" fill="#9D9CB5" fill-rule="nonzero" points="260.130674 180.602703 260.017361 181.527027 243.821584 181.527027 243.710968 180.602703"></polygon>
            </g>
        </g>
    </g>
</svg>